G04 CAM350 V9.5.1 (Build 211) Date:  Sun Feb 09 09:35:33 2025 *
G04 Database: g:\2025-02-01  ºÏÆ´  ºÚÄ¤\2025-02-01-116\1.cam *
G04 Layer 10: BTesa *
%FSLAX35Y35*%
%MOIN*%
%SFA1.000B1.000*%

%MIA0B0*%
%IPPOS*%
%ADD64C,0.00039*%
%LNBTesa*%
%LPD*%
G36*
X242570Y157229D02*
G01X200481D01*
X199501Y157253*
X198524Y157327*
X197551Y157449*
X196585Y157619*
X195629Y157837*
X194685Y158103*
X193756Y158415*
X192842Y158773*
X191948Y159176*
X191076Y159624*
X190227Y160114*
X189404Y160647*
X188608Y161219*
X187840Y161829*
X187105Y162479*
X186404Y163163*
X185737Y163882*
X185106Y164634*
X184514Y165415*
X183962Y166225*
X183451Y167061*
Y167062*
X162406Y203512*
X161937Y204373*
X161512Y205256*
X161131Y206159*
X160795Y207082*
X160507Y208019*
X160265Y208969*
X160070Y209930*
X159924Y210899*
X159826Y211875*
X159777Y212854*
Y213835*
X159826Y214814*
X159924Y215790*
X160070Y216759*
X160265Y217721*
X160507Y218671*
X160795Y219608*
X161131Y220529*
X161512Y221432*
X161937Y222316*
X162406Y223177*
Y223178*
X183451Y259627*
X183962Y260464*
X184514Y261274*
X185106Y262056*
X185737Y262807*
X186404Y263525*
X187105Y264210*
X187840Y264859*
X188608Y265471*
X189404Y266043*
X190227Y266574*
X191076Y267065*
X191948Y267513*
X192842Y267916*
X193756Y268274*
X194685Y268586*
X195629Y268852*
X196585Y269070*
X197551Y269240*
X198524Y269362*
X199501Y269436*
X200481Y269460*
X242570*
X242571*
X243551Y269436*
X244528Y269362*
X245501Y269240*
X246467Y269070*
X247423Y268852*
X248367Y268586*
X249296Y268274*
X250209Y267916*
X251103Y267513*
X251975Y267065*
X252825Y266574*
X253649Y266043*
X254444Y265471*
X255211Y264859*
X255946Y264210*
X256648Y263525*
X257315Y262807*
X257945Y262056*
X258538Y261274*
X259089Y260464*
X259601Y259627*
X280645Y223178*
X280646Y223177*
X281114Y222316*
X281540Y221432*
X281920Y220529*
X282256Y219608*
X282545Y218671*
X282787Y217721*
X282981Y216759*
X283127Y215790*
X283225Y214814*
X283274Y213835*
Y212854*
X283225Y211875*
X283127Y210899*
X282981Y209930*
X282787Y208969*
X282545Y208019*
X282256Y207082*
X281920Y206159*
X281540Y205256*
X281114Y204373*
X280646Y203512*
X280645*
X259601Y167062*
Y167061*
X259089Y166225*
X258538Y165415*
X257945Y164634*
X257315Y163882*
X256648Y163163*
X255946Y162479*
X255211Y161829*
X254444Y161219*
X253649Y160647*
X252825Y160114*
X251975Y159624*
X251103Y159176*
X250209Y158773*
X249296Y158415*
X248367Y158103*
X247423Y157837*
X246467Y157619*
X245501Y157449*
X244528Y157327*
X243551Y157253*
X242571Y157229*
X242570*
G37*
G36*
X106744D02*
G01X64654D01*
X63674Y157253*
X62697Y157327*
X61724Y157449*
X60758Y157619*
X59802Y157837*
X58858Y158103*
X57929Y158415*
X57016Y158773*
X56122Y159176*
X55249Y159624*
X54400Y160114*
X53577Y160647*
X52781Y161219*
X52014Y161829*
X51278Y162479*
X50577Y163163*
X49910Y163882*
X49279Y164634*
X48687Y165415*
X48136Y166225*
X47624Y167061*
Y167062*
X26579Y203512*
X26111Y204373*
X25685Y205256*
X25304Y206159*
X24969Y207082*
X24680Y208019*
X24438Y208969*
X24243Y209930*
X24098Y210899*
X24000Y211875*
X23951Y212854*
Y213835*
X24000Y214814*
X24098Y215790*
X24243Y216759*
X24438Y217721*
X24680Y218671*
X24969Y219608*
X25304Y220529*
X25685Y221432*
X26111Y222316*
X26579Y223177*
Y223178*
X47624Y259627*
X48136Y260464*
X48687Y261274*
X49279Y262056*
X49910Y262807*
X50577Y263525*
X51278Y264210*
X52014Y264859*
X52781Y265471*
X53577Y266043*
X54400Y266574*
X55249Y267065*
X56122Y267513*
X57016Y267916*
X57929Y268274*
X58858Y268586*
X59802Y268852*
X60758Y269070*
X61724Y269240*
X62697Y269362*
X63674Y269436*
X64654Y269460*
X106744*
X107724Y269436*
X108701Y269362*
X109674Y269240*
X110640Y269070*
X111596Y268852*
X112540Y268586*
X113469Y268274*
X114382Y267916*
X115276Y267513*
X116149Y267065*
X116998Y266574*
X117822Y266043*
X118617Y265471*
X119384Y264859*
X120120Y264210*
X120821Y263525*
X121488Y262807*
X122119Y262056*
X122711Y261274*
X123262Y260464*
X123774Y259627*
X144819Y223178*
Y223177*
X145287Y222316*
X145713Y221432*
X146094Y220529*
X146429Y219608*
X146718Y218671*
X146960Y217721*
X147155Y216759*
X147300Y215790*
X147398Y214814*
X147447Y213835*
Y212854*
X147398Y211875*
X147300Y210899*
X147155Y209930*
X146960Y208969*
X146718Y208019*
X146429Y207082*
X146094Y206159*
X145713Y205256*
X145287Y204373*
X144819Y203512*
X123774Y167062*
Y167061*
X123262Y166225*
X122711Y165415*
X122119Y164634*
X121488Y163882*
X120821Y163163*
X120120Y162479*
X119384Y161829*
X118617Y161219*
X117822Y160647*
X116998Y160114*
X116149Y159624*
X115276Y159176*
X114382Y158773*
X113469Y158415*
X112540Y158103*
X111596Y157837*
X110640Y157619*
X109674Y157449*
X108701Y157327*
X107724Y157253*
X106744Y157229*
G37*
G36*
X242570Y31245D02*
G01X200481D01*
X199501Y31269*
X198524Y31343*
X197551Y31464*
X196585Y31634*
X195629Y31853*
X194685Y32119*
X193756Y32431*
X192842Y32789*
X191948Y33192*
X191076Y33639*
X190227Y34130*
X189404Y34662*
X188608Y35235*
X187840Y35845*
X187105Y36494*
X186404Y37179*
X185737Y37898*
X185106Y38649*
X184514Y39430*
X183962Y40241*
X183451Y41077*
X162406Y77527*
Y77528*
X161937Y78389*
X161512Y79272*
X161131Y80175*
X160795Y81097*
X160507Y82034*
X160265Y82984*
X160070Y83945*
X159924Y84914*
X159826Y85890*
X159777Y86869*
Y87851*
X159826Y88830*
X159924Y89806*
X160070Y90775*
X160265Y91737*
X160507Y92687*
X160795Y93624*
X161131Y94545*
X161512Y95448*
X161937Y96332*
X162406Y97193*
Y97194*
X183451Y133643*
X183962Y134479*
X184514Y135290*
X185106Y136072*
X185737Y136823*
X186404Y137541*
X187105Y138226*
X187840Y138875*
X188608Y139486*
X189404Y140059*
X190227Y140590*
X191076Y141081*
X191948Y141528*
X192842Y141932*
X193756Y142289*
X194685Y142602*
X195629Y142868*
X196585Y143086*
X197551Y143256*
X198524Y143377*
X199501Y143451*
X200481Y143475*
X242570*
X242571*
X243551Y143451*
X244528Y143377*
X245501Y143256*
X246467Y143086*
X247423Y142868*
X248367Y142602*
X249296Y142289*
X250209Y141932*
X251103Y141528*
X251975Y141081*
X252825Y140590*
X253649Y140059*
X254444Y139486*
X255211Y138875*
X255946Y138226*
X256648Y137541*
X257315Y136823*
X257945Y136072*
X258538Y135290*
X259089Y134479*
X259601Y133643*
X280645Y97194*
X280646Y97193*
X281114Y96332*
X281540Y95448*
X281920Y94545*
X282256Y93624*
X282545Y92687*
X282787Y91737*
X282981Y90775*
X283127Y89806*
X283225Y88830*
X283274Y87851*
Y86869*
X283225Y85890*
X283127Y84914*
X282981Y83945*
X282787Y82984*
X282545Y82034*
X282256Y81097*
X281920Y80175*
X281540Y79272*
X281114Y78389*
X280646Y77528*
X280645Y77527*
X259601Y41077*
X259089Y40241*
X258538Y39430*
X257945Y38649*
X257315Y37898*
X256648Y37179*
X255946Y36494*
X255211Y35845*
X254444Y35235*
X253649Y34662*
X252825Y34130*
X251975Y33639*
X251103Y33192*
X250209Y32789*
X249296Y32431*
X248367Y32119*
X247423Y31853*
X246467Y31634*
X245501Y31464*
X244528Y31343*
X243551Y31269*
X242571Y31245*
X242570*
G37*
G36*
X106744D02*
G01X64654D01*
X63674Y31269*
X62697Y31343*
X61724Y31464*
X60758Y31634*
X59802Y31853*
X58858Y32119*
X57929Y32431*
X57016Y32789*
X56122Y33192*
X55249Y33639*
X54400Y34130*
X53577Y34662*
X52781Y35235*
X52014Y35845*
X51278Y36494*
X50577Y37179*
X49910Y37898*
X49279Y38649*
X48687Y39430*
X48136Y40241*
X47624Y41077*
X26579Y77527*
Y77528*
X26111Y78389*
X25685Y79272*
X25304Y80175*
X24969Y81097*
X24680Y82034*
X24438Y82984*
X24243Y83945*
X24098Y84914*
X24000Y85890*
X23951Y86869*
Y87851*
X24000Y88830*
X24098Y89806*
X24243Y90775*
X24438Y91737*
X24680Y92687*
X24969Y93624*
X25304Y94545*
X25685Y95448*
X26111Y96332*
X26579Y97193*
Y97194*
X47624Y133643*
X48136Y134479*
X48687Y135290*
X49279Y136072*
X49910Y136823*
X50577Y137541*
X51278Y138226*
X52014Y138875*
X52781Y139486*
X53577Y140059*
X54400Y140590*
X55249Y141081*
X56122Y141528*
X57016Y141932*
X57929Y142289*
X58858Y142602*
X59802Y142868*
X60758Y143086*
X61724Y143256*
X62697Y143377*
X63674Y143451*
X64654Y143475*
X106744*
X107724Y143451*
X108701Y143377*
X109674Y143256*
X110640Y143086*
X111596Y142868*
X112540Y142602*
X113469Y142289*
X114382Y141932*
X115276Y141528*
X116149Y141081*
X116998Y140590*
X117822Y140059*
X118617Y139486*
X119384Y138875*
X120120Y138226*
X120821Y137541*
X121488Y136823*
X122119Y136072*
X122711Y135290*
X123262Y134479*
X123774Y133643*
X144819Y97194*
Y97193*
X145287Y96332*
X145713Y95448*
X146094Y94545*
X146429Y93624*
X146718Y92687*
X146960Y91737*
X147155Y90775*
X147300Y89806*
X147398Y88830*
X147447Y87851*
Y86869*
X147398Y85890*
X147300Y84914*
X147155Y83945*
X146960Y82984*
X146718Y82034*
X146429Y81097*
X146094Y80175*
X145713Y79272*
X145287Y78389*
X144819Y77528*
Y77527*
X123774Y41077*
X123262Y40241*
X122711Y39430*
X122119Y38649*
X121488Y37898*
X120821Y37179*
X120120Y36494*
X119384Y35845*
X118617Y35235*
X117822Y34662*
X116998Y34130*
X116149Y33639*
X115276Y33192*
X114382Y32789*
X113469Y32431*
X112540Y32119*
X111596Y31853*
X110640Y31634*
X109674Y31464*
X108701Y31343*
X107724Y31269*
X106744Y31245*
G37*
%LPC*%
G36*
X172579Y212441D02*
G01X172576Y212453D01*
X172565Y212460*
X172560Y212461*
X172548Y212457*
X172541Y212447*
X172540Y212441*
X172544Y212429*
X172554Y212422*
X172560*
X172572Y212425*
X172579Y212436*
Y212441*
G37*
G36*
X172605Y212886D02*
G01X172602Y212898D01*
X172591Y212905*
X172586Y212906*
X172574Y212902*
X172567Y212892*
X172566Y212886*
X172570Y212874*
X172580Y212867*
X172586*
X172598Y212870*
X172605Y212881*
Y212886*
G37*
G36*
X242572Y170969D02*
G01X243597Y171059D01*
X243601*
X244595Y171326*
X244598Y171327*
X245531Y171762*
X245534Y171764*
X246377Y172354*
X246380Y172356*
X247108Y173084*
X247110Y173087*
X247701Y173930*
X247702Y173931*
X268746Y210381*
X268747Y210383*
X269182Y211316*
X269183Y211319*
X269450Y212314*
Y212318*
X269540Y213343*
Y213346*
X269450Y214372*
Y214375*
X269183Y215369*
X269182Y215373*
X268747Y216306*
X268746Y216307*
X247702Y252757*
X247701Y252759*
X247110Y253602*
X247108Y253604*
X246380Y254332*
X246377Y254334*
X245534Y254925*
X245531Y254927*
X244598Y255362*
X244595Y255363*
X243601Y255629*
X243597Y255630*
X242572Y255720*
X242571*
X200481*
X200479*
X199454Y255630*
X199451Y255629*
X198457Y255363*
X198453Y255362*
X197520Y254927*
X197517Y254925*
X196674Y254334*
X196672Y254332*
X195944Y253604*
X195942Y253602*
X195351Y252759*
X195350Y252757*
X174306Y216307*
X174305Y216306*
X173870Y215373*
X173869Y215369*
X173602Y214375*
X173601Y214372*
X173512Y213346*
Y213343*
X173601Y212318*
X173602Y212314*
X173869Y211319*
X173870Y211316*
X174305Y210383*
X174306Y210381*
X195350Y173931*
X195351Y173930*
X195942Y173087*
X195944Y173084*
X196672Y172356*
X196674Y172354*
X197517Y171764*
X197520Y171762*
X198453Y171327*
X198457Y171326*
X199451Y171059*
X199454*
X200479Y170969*
X200481*
X242571*
X242572*
G37*
G36*
X36753Y212441D02*
G01X36749Y212453D01*
X36739Y212460*
X36733Y212461*
X36721Y212457*
X36714Y212447*
X36713Y212441*
X36717Y212429*
X36727Y212422*
X36733*
X36745Y212425*
X36752Y212436*
X36753Y212441*
G37*
G36*
X36779Y212886D02*
G01X36775Y212898D01*
X36765Y212905*
X36759Y212906*
X36747Y212902*
X36740Y212892*
X36739Y212886*
X36743Y212874*
X36753Y212867*
X36759*
X36771Y212870*
X36778Y212881*
X36779Y212886*
G37*
G36*
X106746Y170969D02*
G01X107771Y171059D01*
X107774*
X108768Y171326*
X108771Y171327*
X109704Y171762*
X109707Y171764*
X110550Y172354*
X110553Y172356*
X111281Y173084*
X111283Y173087*
X111874Y173930*
X111875Y173931*
X132919Y210381*
X132920Y210383*
X133355Y211316*
X133356Y211319*
X133623Y212314*
X133624Y212318*
X133714Y213343*
Y213346*
X133624Y214372*
X133623Y214375*
X133356Y215369*
X133355Y215373*
X132920Y216306*
X132919Y216307*
X111875Y252757*
X111874Y252759*
X111283Y253602*
X111281Y253604*
X110553Y254332*
X110550Y254334*
X109707Y254925*
X109704Y254927*
X108771Y255362*
X108768Y255363*
X107774Y255629*
X107771Y255630*
X106746Y255720*
X106744*
X64654*
X64652*
X63627Y255630*
X63624Y255629*
X62630Y255363*
X62627Y255362*
X61694Y254927*
X61691Y254925*
X60848Y254334*
X60845Y254332*
X60117Y253604*
X60115Y253602*
X59524Y252759*
X59523Y252757*
X38479Y216307*
X38478Y216306*
X38043Y215373*
X38042Y215369*
X37775Y214375*
X37774Y214372*
X37685Y213346*
Y213343*
X37774Y212318*
X37775Y212314*
X38042Y211319*
X38043Y211316*
X38478Y210383*
X38479Y210381*
X59523Y173931*
X59524Y173930*
X60115Y173087*
X60117Y173084*
X60845Y172356*
X60848Y172354*
X61691Y171764*
X61694Y171762*
X62627Y171327*
X62630Y171326*
X63624Y171059*
X63627*
X64652Y170969*
X64654*
X106744*
X106746*
G37*
G36*
X172579Y86457D02*
G01X172576Y86469D01*
X172565Y86476*
X172560Y86477*
X172548Y86473*
X172541Y86463*
X172540Y86457*
X172544Y86445*
X172554Y86438*
X172560Y86437*
X172572Y86441*
X172579Y86451*
Y86457*
G37*
G36*
X172605Y86902D02*
G01X172602Y86914D01*
X172591Y86921*
X172586Y86922*
X172574Y86918*
X172567Y86908*
X172566Y86902*
X172570Y86890*
X172580Y86883*
X172586Y86882*
X172598Y86886*
X172605Y86896*
Y86902*
G37*
G36*
X242572Y44984D02*
G01X243597Y45074D01*
X243601Y45075*
X244595Y45342*
X244598Y45343*
X245531Y45778*
X245534Y45780*
X246377Y46370*
X246380Y46372*
X247108Y47100*
X247110Y47103*
X247701Y47946*
X247702Y47947*
X268746Y84397*
X268747Y84399*
X269182Y85332*
X269183Y85335*
X269450Y86330*
Y86333*
X269540Y87358*
Y87362*
X269450Y88388*
Y88391*
X269183Y89385*
X269182Y89388*
X268747Y90321*
X268746Y90323*
X247702Y126773*
X247701Y126774*
X247110Y127617*
X247108Y127620*
X246380Y128348*
X246377Y128350*
X245534Y128941*
X245531Y128943*
X244598Y129378*
X244595Y129379*
X243601Y129645*
X243597Y129646*
X242572Y129736*
X242571*
X200481*
X200479*
X199454Y129646*
X199451Y129645*
X198457Y129379*
X198453Y129378*
X197520Y128943*
X197517Y128941*
X196674Y128350*
X196672Y128348*
X195944Y127620*
X195942Y127617*
X195351Y126774*
X195350Y126773*
X174306Y90323*
X174305Y90321*
X173870Y89388*
X173869Y89385*
X173602Y88391*
X173601Y88388*
X173512Y87362*
Y87358*
X173601Y86333*
X173602Y86330*
X173869Y85335*
X173870Y85332*
X174305Y84399*
X174306Y84397*
X195350Y47947*
X195351Y47946*
X195942Y47103*
X195944Y47100*
X196672Y46372*
X196674Y46370*
X197517Y45780*
X197520Y45778*
X198453Y45343*
X198457Y45342*
X199451Y45075*
X199454Y45074*
X200479Y44984*
X200481*
X242571*
X242572*
G37*
G36*
X36753Y86457D02*
G01X36749Y86469D01*
X36739Y86476*
X36733Y86477*
X36721Y86473*
X36714Y86463*
X36713Y86457*
X36717Y86445*
X36727Y86438*
X36733Y86437*
X36745Y86441*
X36752Y86451*
X36753Y86457*
G37*
G36*
X36779Y86902D02*
G01X36775Y86914D01*
X36765Y86921*
X36759Y86922*
X36747Y86918*
X36740Y86908*
X36739Y86902*
X36743Y86890*
X36753Y86883*
X36759Y86882*
X36771Y86886*
X36778Y86896*
X36779Y86902*
G37*
G36*
X106746Y44984D02*
G01X107771Y45074D01*
X107774Y45075*
X108768Y45342*
X108771Y45343*
X109704Y45778*
X109707Y45780*
X110550Y46370*
X110553Y46372*
X111281Y47100*
X111283Y47103*
X111874Y47946*
X111875Y47947*
X132919Y84397*
X132920Y84399*
X133355Y85332*
X133356Y85335*
X133623Y86330*
X133624Y86333*
X133714Y87358*
Y87362*
X133624Y88388*
X133623Y88391*
X133356Y89385*
X133355Y89388*
X132920Y90321*
X132919Y90323*
X111875Y126773*
X111874Y126774*
X111283Y127617*
X111281Y127620*
X110553Y128348*
X110550Y128350*
X109707Y128941*
X109704Y128943*
X108771Y129378*
X108768Y129379*
X107774Y129645*
X107771Y129646*
X106746Y129736*
X106744*
X64654*
X64652*
X63627Y129646*
X63624Y129645*
X62630Y129379*
X62627Y129378*
X61694Y128943*
X61691Y128941*
X60848Y128350*
X60845Y128348*
X60117Y127620*
X60115Y127617*
X59524Y126774*
X59523Y126773*
X38479Y90323*
X38478Y90321*
X38043Y89388*
X38042Y89385*
X37775Y88391*
X37774Y88388*
X37685Y87362*
Y87358*
X37774Y86333*
X37775Y86330*
X38042Y85335*
X38043Y85332*
X38478Y84399*
X38479Y84397*
X59523Y47947*
X59524Y47946*
X60115Y47103*
X60117Y47100*
X60845Y46372*
X60848Y46370*
X61691Y45780*
X61694Y45778*
X62627Y45343*
X62630Y45342*
X63624Y45075*
X63627Y45074*
X64652Y44984*
X64654*
X106744*
X106746*
G37*
%LPD*%
G54D64*
X36759Y86902D03*
X36733Y86457D03*
X172586Y86902D03*
X172560Y86457D03*
X36759Y212886D03*
X36733Y212441D03*
X172586Y212886D03*
X172560Y212441D03*
X59540Y47957D02*
G01X60131Y47114D01*
X60859Y46386*
X61702Y45796*
X62635Y45361*
X63629Y45094*
X64654Y45004*
X106744D02*
G01X107769Y45094D01*
X108763Y45361*
X109696Y45796*
X110539Y46386*
X111267Y47114*
X111858Y47957*
X132902Y84407D02*
G01X133337Y85340D01*
X133604Y86335*
X133694Y87360*
X133604Y88386*
X133337Y89380*
X132902Y90313*
X111858Y126763D02*
G01X111267Y127606D01*
X110539Y128334*
X109696Y128925*
X108763Y129360*
X107769Y129626*
X106744Y129716*
X64654D02*
G01X63629Y129626D01*
X62635Y129360*
X61702Y128925*
X60859Y128334*
X60131Y127606*
X59540Y126763*
X38496Y90313D02*
G01X38061Y89380D01*
X37794Y88386*
X37705Y87360*
X37794Y86335*
X38061Y85340*
X38496Y84407*
X47607Y41067D02*
G01X48119Y40230D01*
X48671Y39419*
X49264Y38637*
X49895Y37885*
X50563Y37165*
X51265Y36480*
X52001Y35830*
X52769Y35219*
X53566Y34646*
X54390Y34113*
X55240Y33622*
X56113Y33174*
X57008Y32771*
X57922Y32412*
X58852Y32100*
X59797Y31834*
X60754Y31615*
X61721Y31445*
X62695Y31323*
X63673Y31249*
X64654Y31225*
X106744D02*
G01X107725Y31249D01*
X108703Y31323*
X109677Y31445*
X110644Y31615*
X111601Y31834*
X112546Y32100*
X113476Y32412*
X114390Y32771*
X115285Y33174*
X116158Y33622*
X117008Y34113*
X117833Y34646*
X118629Y35219*
X119397Y35830*
X120133Y36480*
X120835Y37165*
X121503Y37885*
X122134Y38637*
X122727Y39419*
X123279Y40230*
X123791Y41067*
X144836Y77518D02*
G01X145305Y78380D01*
X145731Y79264*
X146112Y80168*
X146448Y81091*
X146737Y82029*
X146979Y82980*
X147174Y83942*
X147320Y84912*
X147418Y85889*
X147467Y86869*
Y87851*
X147418Y88831*
X147320Y89808*
X147174Y90778*
X146979Y91741*
X146737Y92692*
X146448Y93630*
X146112Y94552*
X145731Y95456*
X145305Y96341*
X144836Y97203*
X123791Y133653D02*
G01X123279Y134490D01*
X122727Y135301*
X122134Y136084*
X121503Y136836*
X120835Y137555*
X120133Y138240*
X119397Y138890*
X118629Y139502*
X117833Y140075*
X117008Y140607*
X116158Y141098*
X115285Y141546*
X114390Y141950*
X113476Y142308*
X112546Y142621*
X111601Y142887*
X110644Y143105*
X109677Y143275*
X108703Y143397*
X107725Y143471*
X106744Y143495*
X64654D02*
G01X63673Y143471D01*
X62695Y143397*
X61721Y143275*
X60754Y143105*
X59797Y142887*
X58852Y142621*
X57922Y142308*
X57008Y141950*
X56113Y141546*
X55240Y141098*
X54390Y140607*
X53566Y140075*
X52769Y139502*
X52001Y138890*
X51265Y138240*
X50563Y137555*
X49895Y136836*
X49264Y136084*
X48671Y135301*
X48119Y134490*
X47607Y133653*
X26562Y97203D02*
G01X26093Y96341D01*
X25667Y95456*
X25286Y94552*
X24950Y93630*
X24661Y92692*
X24419Y91741*
X24224Y90778*
X24078Y89808*
X23980Y88831*
X23931Y87851*
Y86869*
X23980Y85889*
X24078Y84912*
X24224Y83942*
X24419Y82980*
X24661Y82029*
X24950Y81091*
X25286Y80168*
X25667Y79264*
X26093Y78380*
X26562Y77518*
X38496Y84407D02*
G01X59540Y47957D01*
X64654Y45004D02*
G01X106744D01*
X111858Y47957D02*
G01X132902Y84407D01*
X111858Y126763D02*
G01X132902Y90313D01*
X64654Y129716D02*
G01X106744D01*
X38496Y90313D02*
G01X59540Y126763D01*
X26562Y77518D02*
G01X47607Y41067D01*
X64654Y31225D02*
G01X106744D01*
X123791Y41067D02*
G01X144836Y77518D01*
X123791Y133653D02*
G01X144836Y97203D01*
X64654Y143495D02*
G01X106744D01*
X26562Y97203D02*
G01X47607Y133653D01*
X195367Y47957D02*
G01X195958Y47114D01*
X196686Y46386*
X197529Y45796*
X198462Y45361*
X199456Y45094*
X200481Y45004*
X242571D02*
G01X243596Y45094D01*
X244590Y45361*
X245523Y45796*
X246366Y46386*
X247094Y47114*
X247685Y47957*
X268729Y84407D02*
G01X269164Y85340D01*
X269431Y86335*
X269521Y87360*
X269431Y88386*
X269164Y89380*
X268729Y90313*
X247685Y126763D02*
G01X247094Y127606D01*
X246366Y128334*
X245523Y128925*
X244590Y129360*
X243596Y129626*
X242571Y129716*
X200481D02*
G01X199456Y129626D01*
X198462Y129360*
X197529Y128925*
X196686Y128334*
X195958Y127606*
X195367Y126763*
X174323Y90313D02*
G01X173888Y89380D01*
X173621Y88386*
X173532Y87360*
X173621Y86335*
X173888Y85340*
X174323Y84407*
X183434Y41067D02*
G01X183946Y40230D01*
X184498Y39419*
X185091Y38637*
X185722Y37885*
X186390Y37165*
X187092Y36480*
X187828Y35830*
X188596Y35219*
X189393Y34646*
X190217Y34113*
X191067Y33622*
X191940Y33174*
X192835Y32771*
X193749Y32412*
X194679Y32100*
X195624Y31834*
X196581Y31615*
X197548Y31445*
X198522Y31323*
X199500Y31249*
X200481Y31225*
X242571D02*
G01X243552Y31249D01*
X244530Y31323*
X245504Y31445*
X246471Y31615*
X247428Y31834*
X248373Y32100*
X249303Y32412*
X250217Y32771*
X251112Y33174*
X251985Y33622*
X252835Y34113*
X253660Y34646*
X254456Y35219*
X255224Y35830*
X255960Y36480*
X256662Y37165*
X257330Y37885*
X257961Y38637*
X258554Y39419*
X259106Y40230*
X259618Y41067*
X280663Y77518D02*
G01X281132Y78380D01*
X281558Y79264*
X281939Y80168*
X282275Y81091*
X282564Y82029*
X282806Y82980*
X283001Y83942*
X283147Y84912*
X283245Y85889*
X283294Y86869*
Y87851*
X283245Y88831*
X283147Y89808*
X283001Y90778*
X282806Y91741*
X282564Y92692*
X282275Y93630*
X281939Y94552*
X281558Y95456*
X281132Y96341*
X280663Y97203*
X259618Y133653D02*
G01X259106Y134490D01*
X258554Y135301*
X257961Y136084*
X257330Y136836*
X256662Y137555*
X255960Y138240*
X255224Y138890*
X254456Y139502*
X253660Y140075*
X252835Y140607*
X251985Y141098*
X251112Y141546*
X250217Y141950*
X249303Y142308*
X248373Y142621*
X247428Y142887*
X246471Y143105*
X245504Y143275*
X244530Y143397*
X243552Y143471*
X242571Y143495*
X200481D02*
G01X199500Y143471D01*
X198522Y143397*
X197548Y143275*
X196581Y143105*
X195624Y142887*
X194679Y142621*
X193749Y142308*
X192835Y141950*
X191940Y141546*
X191067Y141098*
X190217Y140607*
X189393Y140075*
X188596Y139502*
X187828Y138890*
X187092Y138240*
X186390Y137555*
X185722Y136836*
X185091Y136084*
X184498Y135301*
X183946Y134490*
X183434Y133653*
X162389Y97203D02*
G01X161920Y96341D01*
X161494Y95456*
X161113Y94552*
X160777Y93630*
X160488Y92692*
X160246Y91741*
X160051Y90778*
X159905Y89808*
X159807Y88831*
X159758Y87851*
Y86869*
X159807Y85889*
X159905Y84912*
X160051Y83942*
X160246Y82980*
X160488Y82029*
X160777Y81091*
X161113Y80168*
X161494Y79264*
X161920Y78380*
X162389Y77518*
X174323Y84407D02*
G01X195367Y47957D01*
X200481Y45004D02*
G01X242571D01*
X247685Y47957D02*
G01X268729Y84407D01*
X247685Y126763D02*
G01X268729Y90313D01*
X200481Y129716D02*
G01X242571D01*
X174323Y90313D02*
G01X195367Y126763D01*
X162389Y77518D02*
G01X183434Y41067D01*
X200481Y31225D02*
G01X242571D01*
X259618Y41067D02*
G01X280663Y77518D01*
X259618Y133653D02*
G01X280663Y97203D01*
X200481Y143495D02*
G01X242571D01*
X162389Y97203D02*
G01X183434Y133653D01*
X59540Y173941D02*
G01X60131Y173098D01*
X60859Y172370*
X61702Y171780*
X62635Y171345*
X63629Y171078*
X64654Y170988*
X106744D02*
G01X107769Y171078D01*
X108763Y171345*
X109696Y171780*
X110539Y172370*
X111267Y173098*
X111858Y173941*
X132902Y210391D02*
G01X133337Y211324D01*
X133604Y212319*
X133694Y213344*
X133604Y214370*
X133337Y215364*
X132902Y216297*
X111858Y252747D02*
G01X111267Y253590D01*
X110539Y254318*
X109696Y254909*
X108763Y255344*
X107769Y255610*
X106744Y255700*
X64654D02*
G01X63629Y255610D01*
X62635Y255344*
X61702Y254909*
X60859Y254318*
X60131Y253590*
X59540Y252747*
X38496Y216297D02*
G01X38061Y215364D01*
X37794Y214370*
X37705Y213344*
X37794Y212319*
X38061Y211324*
X38496Y210391*
X47607Y167051D02*
G01X48119Y166214D01*
X48671Y165403*
X49264Y164621*
X49895Y163869*
X50563Y163149*
X51265Y162464*
X52001Y161814*
X52769Y161203*
X53566Y160630*
X54390Y160097*
X55240Y159606*
X56113Y159158*
X57008Y158755*
X57922Y158396*
X58852Y158084*
X59797Y157818*
X60754Y157599*
X61721Y157429*
X62695Y157307*
X63673Y157233*
X64654Y157209*
X106744D02*
G01X107725Y157233D01*
X108703Y157307*
X109677Y157429*
X110644Y157599*
X111601Y157818*
X112546Y158084*
X113476Y158396*
X114390Y158755*
X115285Y159158*
X116158Y159606*
X117008Y160097*
X117833Y160630*
X118629Y161203*
X119397Y161814*
X120133Y162464*
X120835Y163149*
X121503Y163869*
X122134Y164621*
X122727Y165403*
X123279Y166214*
X123791Y167051*
X144836Y203502D02*
G01X145305Y204364D01*
X145731Y205248*
X146112Y206152*
X146448Y207075*
X146737Y208013*
X146979Y208964*
X147174Y209926*
X147320Y210896*
X147418Y211873*
X147467Y212853*
Y213835*
X147418Y214815*
X147320Y215792*
X147174Y216762*
X146979Y217725*
X146737Y218676*
X146448Y219614*
X146112Y220536*
X145731Y221440*
X145305Y222325*
X144836Y223187*
X123791Y259637D02*
G01X123279Y260474D01*
X122727Y261285*
X122134Y262068*
X121503Y262820*
X120835Y263539*
X120133Y264224*
X119397Y264874*
X118629Y265486*
X117833Y266059*
X117008Y266591*
X116158Y267082*
X115285Y267530*
X114390Y267934*
X113476Y268292*
X112546Y268605*
X111601Y268871*
X110644Y269089*
X109677Y269259*
X108703Y269381*
X107725Y269455*
X106744Y269479*
X64654D02*
G01X63673Y269455D01*
X62695Y269381*
X61721Y269259*
X60754Y269089*
X59797Y268871*
X58852Y268605*
X57922Y268292*
X57008Y267934*
X56113Y267530*
X55240Y267082*
X54390Y266591*
X53566Y266059*
X52769Y265486*
X52001Y264874*
X51265Y264224*
X50563Y263539*
X49895Y262820*
X49264Y262068*
X48671Y261285*
X48119Y260474*
X47607Y259637*
X26562Y223187D02*
G01X26093Y222325D01*
X25667Y221440*
X25286Y220536*
X24950Y219614*
X24661Y218676*
X24419Y217725*
X24224Y216762*
X24078Y215792*
X23980Y214815*
X23931Y213835*
Y212853*
X23980Y211873*
X24078Y210896*
X24224Y209926*
X24419Y208964*
X24661Y208013*
X24950Y207075*
X25286Y206152*
X25667Y205248*
X26093Y204364*
X26562Y203502*
X38496Y210391D02*
G01X59540Y173941D01*
X64654Y170988D02*
G01X106744D01*
X111858Y173941D02*
G01X132902Y210391D01*
X111858Y252747D02*
G01X132902Y216297D01*
X64654Y255700D02*
G01X106744D01*
X38496Y216297D02*
G01X59540Y252747D01*
X26562Y203502D02*
G01X47607Y167051D01*
X64654Y157209D02*
G01X106744D01*
X123791Y167051D02*
G01X144836Y203502D01*
X123791Y259637D02*
G01X144836Y223187D01*
X64654Y269479D02*
G01X106744D01*
X26562Y223187D02*
G01X47607Y259637D01*
X195367Y173941D02*
G01X195958Y173098D01*
X196686Y172370*
X197529Y171780*
X198462Y171345*
X199456Y171078*
X200481Y170988*
X242571D02*
G01X243596Y171078D01*
X244590Y171345*
X245523Y171780*
X246366Y172370*
X247094Y173098*
X247685Y173941*
X268729Y210391D02*
G01X269164Y211324D01*
X269431Y212319*
X269521Y213344*
X269431Y214370*
X269164Y215364*
X268729Y216297*
X247685Y252747D02*
G01X247094Y253590D01*
X246366Y254318*
X245523Y254909*
X244590Y255344*
X243596Y255610*
X242571Y255700*
X200481D02*
G01X199456Y255610D01*
X198462Y255344*
X197529Y254909*
X196686Y254318*
X195958Y253590*
X195367Y252747*
X174323Y216297D02*
G01X173888Y215364D01*
X173621Y214370*
X173532Y213344*
X173621Y212319*
X173888Y211324*
X174323Y210391*
X183434Y167051D02*
G01X183946Y166214D01*
X184498Y165403*
X185091Y164621*
X185722Y163869*
X186390Y163149*
X187092Y162464*
X187828Y161814*
X188596Y161203*
X189393Y160630*
X190217Y160097*
X191067Y159606*
X191940Y159158*
X192835Y158755*
X193749Y158396*
X194679Y158084*
X195624Y157818*
X196581Y157599*
X197548Y157429*
X198522Y157307*
X199500Y157233*
X200481Y157209*
X242571D02*
G01X243552Y157233D01*
X244530Y157307*
X245504Y157429*
X246471Y157599*
X247428Y157818*
X248373Y158084*
X249303Y158396*
X250217Y158755*
X251112Y159158*
X251985Y159606*
X252835Y160097*
X253660Y160630*
X254456Y161203*
X255224Y161814*
X255960Y162464*
X256662Y163149*
X257330Y163869*
X257961Y164621*
X258554Y165403*
X259106Y166214*
X259618Y167051*
X280663Y203502D02*
G01X281132Y204364D01*
X281558Y205248*
X281939Y206152*
X282275Y207075*
X282564Y208013*
X282806Y208964*
X283001Y209926*
X283147Y210896*
X283245Y211873*
X283294Y212853*
Y213835*
X283245Y214815*
X283147Y215792*
X283001Y216762*
X282806Y217725*
X282564Y218676*
X282275Y219614*
X281939Y220536*
X281558Y221440*
X281132Y222325*
X280663Y223187*
X259618Y259637D02*
G01X259106Y260474D01*
X258554Y261285*
X257961Y262068*
X257330Y262820*
X256662Y263539*
X255960Y264224*
X255224Y264874*
X254456Y265486*
X253660Y266059*
X252835Y266591*
X251985Y267082*
X251112Y267530*
X250217Y267934*
X249303Y268292*
X248373Y268605*
X247428Y268871*
X246471Y269089*
X245504Y269259*
X244530Y269381*
X243552Y269455*
X242571Y269479*
X200481D02*
G01X199500Y269455D01*
X198522Y269381*
X197548Y269259*
X196581Y269089*
X195624Y268871*
X194679Y268605*
X193749Y268292*
X192835Y267934*
X191940Y267530*
X191067Y267082*
X190217Y266591*
X189393Y266059*
X188596Y265486*
X187828Y264874*
X187092Y264224*
X186390Y263539*
X185722Y262820*
X185091Y262068*
X184498Y261285*
X183946Y260474*
X183434Y259637*
X162389Y223187D02*
G01X161920Y222325D01*
X161494Y221440*
X161113Y220536*
X160777Y219614*
X160488Y218676*
X160246Y217725*
X160051Y216762*
X159905Y215792*
X159807Y214815*
X159758Y213835*
Y212853*
X159807Y211873*
X159905Y210896*
X160051Y209926*
X160246Y208964*
X160488Y208013*
X160777Y207075*
X161113Y206152*
X161494Y205248*
X161920Y204364*
X162389Y203502*
X174323Y210391D02*
G01X195367Y173941D01*
X200481Y170988D02*
G01X242571D01*
X247685Y173941D02*
G01X268729Y210391D01*
X247685Y252747D02*
G01X268729Y216297D01*
X200481Y255700D02*
G01X242571D01*
X174323Y216297D02*
G01X195367Y252747D01*
X162389Y203502D02*
G01X183434Y167051D01*
X200481Y157209D02*
G01X242571D01*
X259618Y167051D02*
G01X280663Y203502D01*
X259618Y259637D02*
G01X280663Y223187D01*
X200481Y269479D02*
G01X242571D01*
X162389Y223187D02*
G01X183434Y259637D01*
M02*
