G04 CAM350 V9.5.1 (Build 211) Date:  Sun Feb 09 09:32:50 2025 *
G04 Database: G:\2025-02-01  ºÏÆ´  ºÚÄ¤\2025-02-01-116\1.cam *
G04 Layer 4: GBL *
%FSLAX35Y35*%
%MOIN*%
%SFA1.000B1.000*%

%MIA0B0*%
%IPPOS*%
%ADD71C,0.01575*%
%LNGBL*%
%LPD*%
G36*
X243732Y159177D02*
G01X199320D01*
X197018Y159481*
X194774Y160082*
X192629Y160970*
X190618Y162132*
X188775Y163546*
X187133Y165188*
X185719Y167030*
X185139Y168036*
X164094Y204486*
X163514Y205491*
X162625Y207637*
X162024Y209880*
X161721Y212183*
Y214505*
X162024Y216808*
X162625Y219051*
X163514Y221197*
X164094Y222202*
X185139Y258652*
X185719Y259658*
X187133Y261501*
X188775Y263143*
X190618Y264557*
X192629Y265718*
X194774Y266606*
X197018Y267208*
X199320Y267511*
X242544*
X243707Y267512*
X246013Y267212*
X248260Y266613*
X250410Y265725*
X252425Y264563*
X254271Y263148*
X255916Y261505*
X257332Y259660*
X257913Y258652*
X278958Y222202*
X279538Y221197*
X280427Y219051*
X281028Y216808*
X281331Y214505*
Y212183*
X281028Y209880*
X280427Y207637*
X279538Y205491*
X278958Y204486*
X257913Y168036*
X257333Y167030*
X255919Y165188*
X254277Y163545*
X252434Y162132*
X250423Y160970*
X248278Y160082*
X246034Y159481*
X243732Y159177*
G37*
G36*
X107905D02*
G01X63493D01*
X61191Y159481*
X58947Y160082*
X56802Y160970*
X54791Y162132*
X52948Y163546*
X51306Y165188*
X49892Y167030*
X49312Y168036*
X28267Y204486*
X27687Y205491*
X26798Y207637*
X26197Y209880*
X25894Y212183*
Y214505*
X26197Y216808*
X26798Y219051*
X27687Y221197*
X28267Y222202*
X49312Y258652*
X49892Y259658*
X51306Y261501*
X52948Y263143*
X54791Y264557*
X56802Y265718*
X58947Y266606*
X61191Y267208*
X63493Y267511*
X106717*
X107880Y267512*
X110186Y267212*
X112433Y266613*
X114583Y265725*
X116598Y264563*
X118444Y263148*
X120089Y261505*
X121505Y259660*
X122086Y258652*
X143131Y222202*
X143711Y221197*
X144600Y219051*
X145201Y216808*
X145504Y214505*
Y212183*
X145201Y209880*
X144600Y207637*
X143711Y205491*
X143131Y204486*
X122086Y168036*
X121506Y167030*
X120092Y165188*
X118450Y163545*
X116607Y162132*
X114596Y160970*
X112451Y160082*
X110207Y159481*
X107905Y159177*
G37*
G36*
X243732Y33193D02*
G01X199320D01*
X197018Y33497*
X194774Y34098*
X192629Y34986*
X190618Y36148*
X188775Y37562*
X187133Y39204*
X185719Y41046*
X185139Y42052*
X164094Y78502*
X163514Y79507*
X162625Y81653*
X162024Y83896*
X161721Y86199*
Y88521*
X162024Y90824*
X162625Y93067*
X163514Y95213*
X164094Y96218*
X185139Y132668*
X185719Y133674*
X187133Y135517*
X188775Y137159*
X190618Y138573*
X192629Y139734*
X194774Y140622*
X197018Y141224*
X199320Y141527*
X242544*
X243707Y141528*
X246013Y141228*
X248260Y140629*
X250410Y139741*
X252425Y138579*
X254271Y137164*
X255916Y135521*
X257332Y133676*
X257913Y132668*
X278958Y96218*
X279538Y95213*
X280427Y93067*
X281028Y90824*
X281331Y88521*
Y86199*
X281028Y83896*
X280427Y81653*
X279538Y79507*
X278958Y78502*
X257913Y42052*
X257333Y41046*
X255919Y39204*
X254277Y37561*
X252434Y36148*
X250423Y34986*
X248278Y34098*
X246034Y33497*
X243732Y33193*
G37*
G36*
X107905D02*
G01X63493D01*
X61191Y33497*
X58947Y34098*
X56802Y34986*
X54791Y36148*
X52948Y37562*
X51306Y39204*
X49892Y41046*
X49312Y42052*
X28267Y78502*
X27687Y79507*
X26798Y81653*
X26197Y83896*
X25894Y86199*
Y88521*
X26197Y90824*
X26798Y93067*
X27687Y95213*
X28267Y96218*
X49312Y132668*
X49892Y133674*
X51306Y135517*
X52948Y137159*
X54791Y138573*
X56802Y139734*
X58947Y140622*
X61191Y141224*
X63493Y141527*
X106717*
X107880Y141528*
X110186Y141228*
X112433Y140629*
X114583Y139741*
X116598Y138579*
X118444Y137164*
X120089Y135521*
X121505Y133676*
X122086Y132668*
X143131Y96218*
X143711Y95213*
X144600Y93067*
X145201Y90824*
X145504Y88521*
Y86199*
X145201Y83896*
X144600Y81653*
X143711Y79507*
X143131Y78502*
X122086Y42052*
X121506Y41046*
X120092Y39204*
X118450Y37561*
X116607Y36148*
X114596Y34986*
X112451Y34098*
X110207Y33497*
X107905Y33193*
G37*
%LPC*%
G36*
X243411Y164076D02*
G01X243478Y164072D01*
X245013Y164274*
X245076Y164296*
X245144Y164300*
X246639Y164701*
X246699Y164731*
X246765Y164744*
X248196Y165336*
X248252Y165374*
X248315Y165395*
X249656Y166169*
X249707Y166214*
X249767Y166244*
X250995Y167186*
X251040Y167237*
X251096Y167274*
X252191Y168369*
X252228Y168425*
X252278Y168469*
X253221Y169697*
X253251Y169758*
X253295Y169808*
X253682Y170479*
X274727Y206929*
X275114Y207599*
X275135Y207663*
X275173Y207719*
X275765Y209149*
X275778Y209215*
X275808Y209276*
X276209Y210771*
X276213Y210838*
X276235Y210902*
X276437Y212437*
X276432Y212504*
X276446Y212570*
Y214118*
X276432Y214184*
X276437Y214251*
X276235Y215786*
X276213Y215850*
X276209Y215917*
X275808Y217413*
X275778Y217473*
X275765Y217539*
X275173Y218969*
X275135Y219025*
X275114Y219089*
X274727Y219759*
X253682Y256210*
X253295Y256880*
X253251Y256931*
X253221Y256991*
X252278Y258219*
X252228Y258264*
X252191Y258319*
X251096Y259414*
X251040Y259452*
X250995Y259502*
X249767Y260445*
X249707Y260475*
X249656Y260519*
X248315Y261293*
X248252Y261315*
X248196Y261352*
X246765Y261944*
X246699Y261958*
X246639Y261987*
X245144Y262388*
X245076Y262392*
X245013Y262414*
X243478Y262616*
X243411Y262612*
X243345Y262625*
X199707*
X199641Y262612*
X199574Y262616*
X199429Y262597*
X199024Y262868*
X198327Y263006*
X197630Y262868*
X197038Y262473*
X196780Y262086*
X196413Y261987*
X196353Y261958*
X196287Y261944*
X194856Y261352*
X194800Y261315*
X194737Y261293*
X193396Y260519*
X193345Y260475*
X193285Y260445*
X192057Y259502*
X192012Y259452*
X191956Y259414*
X190862Y258319*
X190824Y258264*
X190774Y258219*
X189831Y256991*
X189801Y256931*
X189757Y256880*
X189370Y256210*
X168325Y219759*
X167938Y219089*
X167917Y219025*
X167879Y218969*
X167287Y217539*
X167274Y217473*
X167244Y217413*
X166843Y215917*
X166839Y215850*
X166817Y215786*
X166615Y214251*
X166619Y214184*
X166606Y214118*
Y212950*
Y212949*
X166402Y212813*
X166007Y212221*
X165868Y211524*
X166007Y210826*
X166402Y210235*
X166993Y209840*
X167097Y209819*
X167098*
X167244Y209276*
X167274Y209215*
X167287Y209149*
X167879Y207719*
X167917Y207663*
X167938Y207599*
X168325Y206929*
X189370Y170479*
X189757Y169808*
X189801Y169758*
X189831Y169697*
X190774Y168469*
X190824Y168425*
X190862Y168369*
X191956Y167274*
X192012Y167237*
X192057Y167186*
X193285Y166244*
X193345Y166214*
X193396Y166169*
X193452Y166137*
X193724Y165730*
X194315Y165335*
X195013Y165196*
X195136Y165220*
X196287Y164744*
X196353Y164731*
X196413Y164701*
X197908Y164300*
X197976Y164296*
X198039Y164274*
X199574Y164072*
X199641Y164076*
X199707Y164063*
X243345*
X243411Y164076*
G37*
G36*
X107584D02*
G01X107651Y164072D01*
X109186Y164274*
X109249Y164296*
X109317Y164300*
X110812Y164701*
X110872Y164731*
X110938Y164744*
X112369Y165336*
X112425Y165374*
X112488Y165395*
X113829Y166169*
X113880Y166214*
X113940Y166244*
X115168Y167186*
X115213Y167237*
X115269Y167274*
X116364Y168369*
X116401Y168425*
X116451Y168469*
X117394Y169697*
X117424Y169758*
X117468Y169808*
X117855Y170479*
X138900Y206929*
X139287Y207599*
X139308Y207663*
X139346Y207719*
X139938Y209149*
X139951Y209215*
X139981Y209276*
X140382Y210771*
X140386Y210838*
X140408Y210902*
X140610Y212437*
X140605Y212504*
X140619Y212570*
Y214118*
X140605Y214184*
X140610Y214251*
X140408Y215786*
X140386Y215850*
X140382Y215917*
X139981Y217413*
X139951Y217473*
X139938Y217539*
X139346Y218969*
X139308Y219025*
X139287Y219089*
X138900Y219759*
X117855Y256210*
X117468Y256880*
X117424Y256931*
X117394Y256991*
X116451Y258219*
X116401Y258264*
X116364Y258319*
X115269Y259414*
X115213Y259452*
X115168Y259502*
X113940Y260445*
X113880Y260475*
X113829Y260519*
X112488Y261293*
X112425Y261315*
X112369Y261352*
X110938Y261944*
X110872Y261958*
X110812Y261987*
X109317Y262388*
X109249Y262392*
X109186Y262414*
X107651Y262616*
X107584Y262612*
X107518Y262625*
X63880*
X63814Y262612*
X63747Y262616*
X63602Y262597*
X63197Y262868*
X62500Y263006*
X61803Y262868*
X61211Y262473*
X60953Y262086*
X60586Y261987*
X60526Y261958*
X60460Y261944*
X59029Y261352*
X58973Y261315*
X58910Y261293*
X57569Y260519*
X57518Y260475*
X57458Y260445*
X56230Y259502*
X56185Y259452*
X56129Y259414*
X55035Y258319*
X54997Y258264*
X54947Y258219*
X54004Y256991*
X53974Y256931*
X53930Y256880*
X53543Y256210*
X32498Y219759*
X32111Y219089*
X32090Y219025*
X32052Y218969*
X31460Y217539*
X31447Y217473*
X31417Y217413*
X31016Y215917*
X31012Y215850*
X30990Y215786*
X30788Y214251*
X30792Y214184*
X30779Y214118*
Y212950*
Y212949*
X30575Y212813*
X30180Y212221*
X30041Y211524*
X30180Y210826*
X30575Y210235*
X31166Y209840*
X31271Y209819*
X31417Y209276*
X31447Y209215*
X31460Y209149*
X32052Y207719*
X32090Y207663*
X32111Y207599*
X32498Y206929*
X53543Y170479*
X53930Y169808*
X53974Y169758*
X54004Y169697*
X54947Y168469*
X54997Y168425*
X55035Y168369*
X56129Y167274*
X56185Y167237*
X56230Y167186*
X57458Y166244*
X57518Y166214*
X57569Y166169*
X57625Y166137*
X57897Y165730*
X58488Y165335*
X59186Y165196*
X59309Y165220*
X60460Y164744*
X60526Y164731*
X60586Y164701*
X62081Y164300*
X62149Y164296*
X62212Y164274*
X63747Y164072*
X63814Y164076*
X63880Y164063*
X107518*
X107584Y164076*
G37*
G36*
X243411Y38092D02*
G01X243478Y38088D01*
X245013Y38290*
X245076Y38312*
X245144Y38316*
X246639Y38717*
X246699Y38747*
X246765Y38760*
X248196Y39352*
X248252Y39390*
X248315Y39411*
X249656Y40185*
X249707Y40230*
X249767Y40260*
X250995Y41202*
X251040Y41253*
X251096Y41290*
X252191Y42385*
X252228Y42441*
X252278Y42485*
X253221Y43713*
X253251Y43774*
X253295Y43824*
X253682Y44495*
X274727Y80945*
X275114Y81615*
X275135Y81679*
X275173Y81735*
X275765Y83165*
X275778Y83231*
X275808Y83292*
X276209Y84787*
X276213Y84854*
X276235Y84918*
X276437Y86453*
X276432Y86520*
X276446Y86586*
Y88134*
X276432Y88200*
X276437Y88267*
X276235Y89802*
X276213Y89866*
X276209Y89933*
X275808Y91429*
X275778Y91489*
X275765Y91555*
X275173Y92985*
X275135Y93041*
X275114Y93105*
X274727Y93775*
X253682Y130226*
X253295Y130896*
X253251Y130947*
X253221Y131007*
X252278Y132235*
X252228Y132280*
X252191Y132335*
X251096Y133430*
X251040Y133468*
X250995Y133518*
X249767Y134461*
X249707Y134491*
X249656Y134535*
X248315Y135309*
X248252Y135331*
X248196Y135368*
X246765Y135960*
X246699Y135974*
X246639Y136003*
X245144Y136404*
X245076Y136408*
X245013Y136430*
X243478Y136632*
X243411Y136628*
X243345Y136641*
X199707*
X199641Y136628*
X199574Y136632*
X199429Y136613*
X199024Y136884*
X198327Y137022*
X197630Y136884*
X197038Y136489*
X196780Y136102*
X196413Y136003*
X196353Y135974*
X196287Y135960*
X194856Y135368*
X194800Y135331*
X194737Y135309*
X193396Y134535*
X193345Y134491*
X193285Y134461*
X192057Y133518*
X192012Y133468*
X191956Y133430*
X190862Y132335*
X190824Y132280*
X190774Y132235*
X189831Y131007*
X189801Y130947*
X189757Y130896*
X189370Y130226*
X168325Y93775*
X167938Y93105*
X167917Y93041*
X167879Y92985*
X167287Y91555*
X167274Y91489*
X167244Y91429*
X166843Y89933*
X166839Y89866*
X166817Y89802*
X166615Y88267*
X166619Y88200*
X166606Y88134*
Y86965*
X166402Y86829*
X166007Y86237*
X165868Y85540*
X166007Y84842*
X166402Y84251*
X166993Y83856*
X167097Y83835*
X167098*
X167244Y83292*
X167274Y83231*
X167287Y83165*
X167879Y81735*
X167917Y81679*
X167938Y81615*
X168325Y80945*
X189370Y44495*
X189757Y43824*
X189801Y43774*
X189831Y43713*
X190774Y42485*
X190824Y42441*
X190862Y42385*
X191956Y41290*
X192012Y41253*
X192057Y41202*
X193285Y40260*
X193345Y40230*
X193396Y40185*
X193452Y40153*
X193724Y39746*
X194315Y39351*
X195013Y39212*
X195136Y39236*
X196287Y38760*
X196353Y38747*
X196413Y38717*
X197908Y38316*
X197976Y38312*
X198039Y38290*
X199574Y38088*
X199641Y38092*
X199707Y38079*
X243345*
X243411Y38092*
G37*
G36*
X107584D02*
G01X107651Y38088D01*
X109186Y38290*
X109249Y38312*
X109317Y38316*
X110812Y38717*
X110872Y38747*
X110938Y38760*
X112369Y39352*
X112425Y39390*
X112488Y39411*
X113829Y40185*
X113880Y40230*
X113940Y40260*
X115168Y41202*
X115213Y41253*
X115269Y41290*
X116364Y42385*
X116401Y42441*
X116451Y42485*
X117394Y43713*
X117424Y43774*
X117468Y43824*
X117855Y44495*
X138900Y80945*
X139287Y81615*
X139308Y81679*
X139346Y81735*
X139938Y83165*
X139951Y83231*
X139981Y83292*
X140382Y84787*
X140386Y84854*
X140408Y84918*
X140610Y86453*
X140605Y86520*
X140619Y86586*
Y88134*
X140605Y88200*
X140610Y88267*
X140408Y89802*
X140386Y89866*
X140382Y89933*
X139981Y91429*
X139951Y91489*
X139938Y91555*
X139346Y92985*
X139308Y93041*
X139287Y93105*
X138900Y93775*
X117855Y130226*
X117468Y130896*
X117424Y130947*
X117394Y131007*
X116451Y132235*
X116401Y132280*
X116364Y132335*
X115269Y133430*
X115213Y133468*
X115168Y133518*
X113940Y134461*
X113880Y134491*
X113829Y134535*
X112488Y135309*
X112425Y135331*
X112369Y135368*
X110938Y135960*
X110872Y135974*
X110812Y136003*
X109317Y136404*
X109249Y136408*
X109186Y136430*
X107651Y136632*
X107584Y136628*
X107518Y136641*
X63880*
X63814Y136628*
X63747Y136632*
X63602Y136613*
X63197Y136884*
X62500Y137022*
X61803Y136884*
X61211Y136489*
X60953Y136102*
X60586Y136003*
X60526Y135974*
X60460Y135960*
X59029Y135368*
X58973Y135331*
X58910Y135309*
X57569Y134535*
X57518Y134491*
X57458Y134461*
X56230Y133518*
X56185Y133468*
X56129Y133430*
X55035Y132335*
X54997Y132280*
X54947Y132235*
X54004Y131007*
X53974Y130947*
X53930Y130896*
X53543Y130226*
X32498Y93775*
X32111Y93105*
X32090Y93041*
X32052Y92985*
X31460Y91555*
X31447Y91489*
X31417Y91429*
X31016Y89933*
X31012Y89866*
X30990Y89802*
X30788Y88267*
X30792Y88200*
X30779Y88134*
Y86965*
X30575Y86829*
X30180Y86237*
X30041Y85540*
X30180Y84842*
X30575Y84251*
X31166Y83856*
X31271Y83835*
X31417Y83292*
X31447Y83231*
X31460Y83165*
X32052Y81735*
X32090Y81679*
X32111Y81615*
X32498Y80945*
X53543Y44495*
X53930Y43824*
X53974Y43774*
X54004Y43713*
X54947Y42485*
X54997Y42441*
X55035Y42385*
X56129Y41290*
X56185Y41253*
X56230Y41202*
X57458Y40260*
X57518Y40230*
X57569Y40185*
X57625Y40153*
X57897Y39746*
X58488Y39351*
X59186Y39212*
X59309Y39236*
X60460Y38760*
X60526Y38747*
X60586Y38717*
X62081Y38316*
X62149Y38312*
X62212Y38290*
X63747Y38088*
X63814Y38092*
X63880Y38079*
X107518*
X107584Y38092*
G37*
%LPD*%
G36*
X243345Y165083D02*
G01X199707D01*
X198172Y165285*
X196677Y165686*
X195246Y166278*
X193906Y167053*
X192677Y167995*
X191583Y169090*
X190640Y170318*
X190253Y170988*
X169208Y207439*
X168821Y208109*
X168229Y209540*
X167828Y211035*
X167626Y212570*
Y214118*
X167828Y215653*
X168229Y217149*
X168821Y218579*
X169208Y219250*
X190253Y255700*
X190640Y256370*
X191583Y257598*
X192677Y258693*
X193906Y259636*
X195246Y260410*
X196677Y261003*
X198172Y261403*
X199707Y261605*
X242571*
X243345*
X244880Y261403*
X246375Y261003*
X247806Y260410*
X249146Y259636*
X250375Y258693*
X251469Y257598*
X252412Y256370*
X252799Y255700*
X273844Y219250*
X274231Y218579*
X274823Y217149*
X275224Y215653*
X275426Y214118*
Y212570*
X275224Y211035*
X274823Y209540*
X274231Y208109*
X273844Y207439*
X252799Y170988*
X252412Y170318*
X251469Y169090*
X250375Y167995*
X249146Y167053*
X247806Y166278*
X246375Y165686*
X244880Y165285*
X243345Y165083*
G37*
G36*
X107518D02*
G01X63880D01*
X62345Y165285*
X60850Y165686*
X59419Y166278*
X58079Y167053*
X56850Y167995*
X55756Y169090*
X54813Y170318*
X54426Y170988*
X33381Y207439*
X32994Y208109*
X32402Y209540*
X32001Y211035*
X31799Y212570*
Y214118*
X32001Y215653*
X32402Y217149*
X32994Y218579*
X33381Y219250*
X54426Y255700*
X54813Y256370*
X55756Y257598*
X56850Y258693*
X58079Y259636*
X59419Y260410*
X60850Y261003*
X62345Y261403*
X63880Y261605*
X106744*
X107518*
X109053Y261403*
X110548Y261003*
X111979Y260410*
X113319Y259636*
X114548Y258693*
X115642Y257598*
X116585Y256370*
X116972Y255700*
X138017Y219250*
X138404Y218579*
X138996Y217149*
X139397Y215653*
X139599Y214118*
Y212570*
X139397Y211035*
X138996Y209540*
X138404Y208109*
X138017Y207439*
X116972Y170988*
X116585Y170318*
X115642Y169090*
X114548Y167995*
X113319Y167053*
X111979Y166278*
X110548Y165686*
X109053Y165285*
X107518Y165083*
G37*
G36*
X243345Y39099D02*
G01X199707D01*
X198172Y39301*
X196677Y39702*
X195246Y40294*
X193906Y41069*
X192677Y42011*
X191583Y43106*
X190640Y44334*
X190253Y45004*
X169208Y81455*
X168821Y82125*
X168229Y83556*
X167828Y85051*
X167626Y86586*
Y88134*
X167828Y89669*
X168229Y91165*
X168821Y92595*
X169208Y93266*
X190253Y129716*
X190640Y130386*
X191583Y131614*
X192677Y132709*
X193906Y133652*
X195246Y134426*
X196677Y135019*
X198172Y135419*
X199707Y135621*
X242571*
X243345*
X244880Y135419*
X246375Y135019*
X247806Y134426*
X249146Y133652*
X250375Y132709*
X251469Y131614*
X252412Y130386*
X252799Y129716*
X273844Y93266*
X274231Y92595*
X274823Y91165*
X275224Y89669*
X275426Y88134*
Y86586*
X275224Y85051*
X274823Y83556*
X274231Y82125*
X273844Y81455*
X252799Y45004*
X252412Y44334*
X251469Y43106*
X250375Y42011*
X249146Y41069*
X247806Y40294*
X246375Y39702*
X244880Y39301*
X243345Y39099*
G37*
G36*
X107518D02*
G01X63880D01*
X62345Y39301*
X60850Y39702*
X59419Y40294*
X58079Y41069*
X56850Y42011*
X55756Y43106*
X54813Y44334*
X54426Y45004*
X33381Y81455*
X32994Y82125*
X32402Y83556*
X32001Y85051*
X31799Y86586*
Y88134*
X32001Y89669*
X32402Y91165*
X32994Y92595*
X33381Y93266*
X54426Y129716*
X54813Y130386*
X55756Y131614*
X56850Y132709*
X58079Y133652*
X59419Y134426*
X60850Y135019*
X62345Y135419*
X63880Y135621*
X106744*
X107518*
X109053Y135419*
X110548Y135019*
X111979Y134426*
X113319Y133652*
X114548Y132709*
X115642Y131614*
X116585Y130386*
X116972Y129716*
X138017Y93266*
X138404Y92595*
X138996Y91165*
X139397Y89669*
X139599Y88134*
Y86586*
X139397Y85051*
X138996Y83556*
X138404Y82125*
X138017Y81455*
X116972Y45004*
X116585Y44334*
X115642Y43106*
X114548Y42011*
X113319Y41069*
X111979Y40294*
X110548Y39702*
X109053Y39301*
X107518Y39099*
G37*
%LPC*%
G36*
X242958Y169969D02*
G01X200094D01*
X200028Y169982*
X199961Y169978*
X199194Y170079*
X199130Y170100*
X199063Y170105*
X198315Y170305*
X198255Y170335*
X198189Y170348*
X197474Y170644*
X197418Y170682*
X197354Y170703*
X196684Y171090*
X196633Y171135*
X196573Y171164*
X195959Y171636*
X195914Y171686*
X195858Y171723*
X195311Y172271*
X195274Y172327*
X195223Y172371*
X194752Y172985*
X194722Y173046*
X194678Y173096*
X194484Y173431*
X173440Y209882*
X173246Y210217*
X173225Y210281*
X173187Y210336*
X172891Y211052*
X172878Y211118*
X172848Y211178*
X172648Y211926*
X172643Y211993*
X172622Y212056*
X172521Y212824*
X172525Y212891*
X172512Y212957*
Y213731*
X172525Y213797*
X172521Y213864*
X172622Y214632*
X172643Y214696*
X172648Y214763*
X172848Y215510*
X172878Y215571*
X172891Y215637*
X173187Y216352*
X173225Y216408*
X173246Y216471*
X173440Y216807*
X194484Y253257*
X194678Y253592*
X194722Y253643*
X194752Y253703*
X195223Y254317*
X195274Y254361*
X195311Y254417*
X195858Y254965*
X195914Y255002*
X195959Y255053*
X196573Y255524*
X196633Y255554*
X196684Y255598*
X197354Y255985*
X197418Y256007*
X197474Y256044*
X198189Y256340*
X198255Y256353*
X198315Y256383*
X199063Y256584*
X199130Y256588*
X199194Y256610*
X199961Y256711*
X200028Y256706*
X200094Y256719*
X200481*
X242958*
X243023Y256706*
X243091Y256711*
X243858Y256610*
X243922Y256588*
X243989Y256584*
X244737Y256383*
X244797Y256353*
X244863Y256340*
X245578Y256044*
X245634Y256007*
X245698Y255985*
X246368Y255598*
X246419Y255554*
X246479Y255524*
X247093Y255053*
X247138Y255002*
X247194Y254965*
X247741Y254417*
X247778Y254361*
X247829Y254317*
X248300Y253703*
X248330Y253643*
X248374Y253592*
X248568Y253257*
X269612Y216807*
X269806Y216471*
X269828Y216408*
X269865Y216352*
X270161Y215637*
X270174Y215571*
X270204Y215510*
X270404Y214763*
X270409Y214696*
X270430Y214632*
X270531Y213864*
X270527Y213797*
X270540Y213731*
Y212957*
X270527Y212891*
X270531Y212824*
X270430Y212056*
X270409Y211993*
X270404Y211926*
X270204Y211178*
X270174Y211118*
X270161Y211052*
X269865Y210336*
X269827Y210281*
X269806Y210217*
X269612Y209882*
X248568Y173431*
X248374Y173096*
X248330Y173046*
X248300Y172985*
X247829Y172371*
X247778Y172327*
X247741Y172271*
X247194Y171723*
X247138Y171686*
X247093Y171636*
X246479Y171164*
X246419Y171135*
X246368Y171090*
X245698Y170703*
X245634Y170682*
X245578Y170644*
X244863Y170348*
X244797Y170335*
X244737Y170305*
X243989Y170105*
X243922Y170100*
X243858Y170079*
X243091Y169978*
X243023Y169982*
X242958Y169969*
G37*
G36*
X107131D02*
G01X64267D01*
X64201Y169982*
X64134Y169978*
X63367Y170079*
X63303Y170100*
X63236Y170105*
X62488Y170305*
X62428Y170335*
X62362Y170348*
X61647Y170644*
X61591Y170682*
X61527Y170703*
X60857Y171090*
X60806Y171135*
X60746Y171164*
X60132Y171636*
X60087Y171686*
X60031Y171723*
X59484Y172271*
X59447Y172327*
X59396Y172371*
X58925Y172985*
X58895Y173046*
X58851Y173096*
X58657Y173431*
X37613Y209882*
X37419Y210217*
X37398Y210281*
X37360Y210336*
X37064Y211052*
X37051Y211118*
X37021Y211178*
X36821Y211926*
X36816Y211993*
X36795Y212056*
X36694Y212824*
X36698Y212891*
X36685Y212957*
Y213731*
X36698Y213797*
X36694Y213864*
X36795Y214632*
X36816Y214696*
X36821Y214763*
X37021Y215510*
X37051Y215571*
X37064Y215637*
X37360Y216352*
X37398Y216408*
X37419Y216471*
X37613Y216807*
X58657Y253257*
X58851Y253592*
X58895Y253643*
X58925Y253703*
X59396Y254317*
X59447Y254361*
X59484Y254417*
X60031Y254965*
X60087Y255002*
X60132Y255053*
X60746Y255524*
X60806Y255554*
X60857Y255598*
X61527Y255985*
X61591Y256007*
X61647Y256044*
X62362Y256340*
X62428Y256353*
X62488Y256383*
X63236Y256584*
X63303Y256588*
X63367Y256610*
X64134Y256711*
X64201Y256706*
X64267Y256719*
X64654*
X107131*
X107196Y256706*
X107264Y256711*
X108031Y256610*
X108095Y256588*
X108162Y256584*
X108910Y256383*
X108970Y256353*
X109036Y256340*
X109751Y256044*
X109807Y256007*
X109871Y255985*
X110541Y255598*
X110592Y255554*
X110652Y255524*
X111266Y255053*
X111311Y255002*
X111367Y254965*
X111914Y254417*
X111951Y254361*
X112002Y254317*
X112473Y253703*
X112503Y253643*
X112547Y253592*
X112741Y253257*
X133785Y216807*
X133979Y216471*
X134001Y216408*
X134038Y216352*
X134334Y215637*
X134347Y215571*
X134377Y215510*
X134577Y214763*
X134582Y214696*
X134603Y214632*
X134704Y213864*
X134700Y213797*
X134713Y213731*
Y212957*
X134700Y212891*
X134704Y212824*
X134603Y212056*
X134582Y211993*
X134577Y211926*
X134377Y211178*
X134347Y211118*
X134334Y211052*
X134038Y210336*
X134000Y210281*
X133979Y210217*
X133785Y209882*
X112741Y173431*
X112547Y173096*
X112503Y173046*
X112473Y172985*
X112002Y172371*
X111951Y172327*
X111914Y172271*
X111367Y171723*
X111311Y171686*
X111266Y171636*
X110652Y171164*
X110592Y171135*
X110541Y171090*
X109871Y170703*
X109807Y170682*
X109751Y170644*
X109036Y170348*
X108970Y170335*
X108910Y170305*
X108162Y170105*
X108095Y170100*
X108031Y170079*
X107264Y169978*
X107196Y169982*
X107131Y169969*
G37*
G36*
X242958Y43985D02*
G01X200094D01*
X200028Y43998*
X199961Y43994*
X199194Y44095*
X199130Y44116*
X199063Y44121*
X198315Y44321*
X198255Y44351*
X198189Y44364*
X197474Y44660*
X197418Y44698*
X197354Y44719*
X196684Y45106*
X196633Y45151*
X196573Y45180*
X195959Y45652*
X195914Y45702*
X195858Y45739*
X195311Y46287*
X195274Y46343*
X195223Y46387*
X194752Y47001*
X194722Y47062*
X194678Y47112*
X194484Y47447*
X173440Y83898*
X173246Y84233*
X173225Y84297*
X173187Y84352*
X172891Y85068*
X172878Y85134*
X172848Y85194*
X172648Y85942*
X172643Y86009*
X172622Y86072*
X172521Y86840*
X172525Y86907*
X172512Y86973*
Y87747*
X172525Y87813*
X172521Y87880*
X172622Y88648*
X172643Y88712*
X172648Y88779*
X172848Y89526*
X172878Y89587*
X172891Y89653*
X173187Y90368*
X173225Y90424*
X173246Y90487*
X173440Y90823*
X194484Y127273*
X194678Y127608*
X194722Y127659*
X194752Y127719*
X195223Y128333*
X195274Y128377*
X195311Y128433*
X195858Y128981*
X195914Y129018*
X195959Y129069*
X196573Y129540*
X196633Y129570*
X196684Y129614*
X197354Y130001*
X197418Y130023*
X197474Y130060*
X198189Y130356*
X198255Y130369*
X198315Y130399*
X199063Y130600*
X199130Y130604*
X199194Y130626*
X199961Y130727*
X200028Y130722*
X200094Y130735*
X200481*
X242958*
X243023Y130722*
X243091Y130727*
X243858Y130626*
X243922Y130604*
X243989Y130600*
X244737Y130399*
X244797Y130369*
X244863Y130356*
X245578Y130060*
X245634Y130023*
X245698Y130001*
X246368Y129614*
X246419Y129570*
X246479Y129540*
X247093Y129069*
X247138Y129018*
X247194Y128981*
X247741Y128433*
X247778Y128377*
X247829Y128333*
X248300Y127719*
X248330Y127659*
X248374Y127608*
X248568Y127273*
X269612Y90823*
X269806Y90487*
X269828Y90424*
X269865Y90368*
X270161Y89653*
X270174Y89587*
X270204Y89526*
X270404Y88779*
X270409Y88712*
X270430Y88648*
X270531Y87880*
X270527Y87813*
X270540Y87747*
Y86973*
X270527Y86907*
X270531Y86840*
X270430Y86072*
X270409Y86009*
X270404Y85942*
X270204Y85194*
X270174Y85134*
X270161Y85068*
X269865Y84352*
X269827Y84297*
X269806Y84233*
X269612Y83898*
X248568Y47447*
X248374Y47112*
X248330Y47062*
X248300Y47001*
X247829Y46387*
X247778Y46343*
X247741Y46287*
X247194Y45739*
X247138Y45702*
X247093Y45652*
X246479Y45180*
X246419Y45151*
X246368Y45106*
X245698Y44719*
X245634Y44698*
X245578Y44660*
X244863Y44364*
X244797Y44351*
X244737Y44321*
X243989Y44121*
X243922Y44116*
X243858Y44095*
X243091Y43994*
X243023Y43998*
X242958Y43985*
G37*
G36*
X107131D02*
G01X64267D01*
X64201Y43998*
X64134Y43994*
X63367Y44095*
X63303Y44116*
X63236Y44121*
X62488Y44321*
X62428Y44351*
X62362Y44364*
X61647Y44660*
X61591Y44698*
X61527Y44719*
X60857Y45106*
X60806Y45151*
X60746Y45180*
X60132Y45652*
X60087Y45702*
X60031Y45739*
X59484Y46287*
X59447Y46343*
X59396Y46387*
X58925Y47001*
X58895Y47062*
X58851Y47112*
X58657Y47447*
X37613Y83898*
X37419Y84233*
X37398Y84297*
X37360Y84352*
X37064Y85068*
X37051Y85134*
X37021Y85194*
X36821Y85942*
X36816Y86009*
X36795Y86072*
X36694Y86840*
X36698Y86907*
X36685Y86973*
Y87747*
X36698Y87813*
X36694Y87880*
X36795Y88648*
X36816Y88712*
X36821Y88779*
X37021Y89526*
X37051Y89587*
X37064Y89653*
X37360Y90368*
X37398Y90424*
X37419Y90487*
X37613Y90823*
X58657Y127273*
X58851Y127608*
X58895Y127659*
X58925Y127719*
X59396Y128333*
X59447Y128377*
X59484Y128433*
X60031Y128981*
X60087Y129018*
X60132Y129069*
X60746Y129540*
X60806Y129570*
X60857Y129614*
X61527Y130001*
X61591Y130023*
X61647Y130060*
X62362Y130356*
X62428Y130369*
X62488Y130399*
X63236Y130600*
X63303Y130604*
X63367Y130626*
X64134Y130727*
X64201Y130722*
X64267Y130735*
X64654*
X107131*
X107196Y130722*
X107264Y130727*
X108031Y130626*
X108095Y130604*
X108162Y130600*
X108910Y130399*
X108970Y130369*
X109036Y130356*
X109751Y130060*
X109807Y130023*
X109871Y130001*
X110541Y129614*
X110592Y129570*
X110652Y129540*
X111266Y129069*
X111311Y129018*
X111367Y128981*
X111914Y128433*
X111951Y128377*
X112002Y128333*
X112473Y127719*
X112503Y127659*
X112547Y127608*
X112741Y127273*
X133785Y90823*
X133979Y90487*
X134001Y90424*
X134038Y90368*
X134334Y89653*
X134347Y89587*
X134377Y89526*
X134577Y88779*
X134582Y88712*
X134603Y88648*
X134704Y87880*
X134700Y87813*
X134713Y87747*
Y86973*
X134700Y86907*
X134704Y86840*
X134603Y86072*
X134582Y86009*
X134577Y85942*
X134377Y85194*
X134347Y85134*
X134334Y85068*
X134038Y84352*
X134000Y84297*
X133979Y84233*
X133785Y83898*
X112741Y47447*
X112547Y47112*
X112503Y47062*
X112473Y47001*
X112002Y46387*
X111951Y46343*
X111914Y46287*
X111367Y45739*
X111311Y45702*
X111266Y45652*
X110652Y45180*
X110592Y45151*
X110541Y45106*
X109871Y44719*
X109807Y44698*
X109751Y44660*
X109036Y44364*
X108970Y44351*
X108910Y44321*
X108162Y44121*
X108095Y44116*
X108031Y44095*
X107264Y43994*
X107196Y43998*
X107131Y43985*
G37*
%LPD*%
G54D71*
X28700Y81900D03*
X56684Y138651D03*
X138200Y86444D03*
X144500Y90000D03*
X113000Y132400D03*
X59186Y41034D03*
X119500Y38700D03*
X110900Y43000D03*
X56757Y127105D03*
X52057Y119405D03*
X47536Y111493D03*
X42893Y103693D03*
X38257Y95805D03*
X37489Y65440D03*
X36863Y80793D03*
X41563Y72793D03*
X45863Y64893D03*
X50463Y56993D03*
X55198Y49126D03*
X66169Y41963D03*
X75194Y42064D03*
X84219D03*
X93244Y41963D03*
X102269D03*
X114099Y46679D03*
X118599Y54580D03*
X123299Y62679D03*
X127999Y70679D03*
X132799Y78579D03*
X135358Y91958D03*
X130858Y100058D03*
X126058Y107958D03*
X121293Y116092D03*
X116658Y124158D03*
X106431Y132695D03*
X97431D03*
X88431D03*
X79486Y132618D03*
X70431Y132695D03*
X62500Y135200D03*
X25712Y87500D03*
X31863Y85540D03*
X134932Y107411D03*
X139432Y99311D03*
X120732Y131511D03*
X125368Y123445D03*
X39052Y111357D03*
X43652Y119257D03*
X116086Y137934D03*
X57414Y37966D03*
X106600Y34759D03*
X97575D03*
X88550Y34859D03*
X79525D03*
X70500Y34759D03*
X51124Y41773D03*
X46389Y49640D03*
X41789Y57540D03*
X32789Y73440D03*
X29852Y95657D03*
X34489Y103545D03*
X48352Y126957D03*
X66100Y139900D03*
X75100D03*
X84100D03*
X93100D03*
X102100D03*
X130132Y115311D03*
X141204Y78728D03*
X136404Y70828D03*
X131704Y62828D03*
X127004Y54728D03*
X122504Y46828D03*
X164527Y81900D03*
X192511Y138651D03*
X274027Y86444D03*
X280327Y90000D03*
X248827Y132400D03*
X195013Y41034D03*
X255327Y38700D03*
X246727Y43000D03*
X192584Y127105D03*
X187884Y119405D03*
X183363Y111493D03*
X178720Y103693D03*
X174084Y95805D03*
X173316Y65440D03*
X172690Y80793D03*
X177390Y72793D03*
X181690Y64893D03*
X186290Y56993D03*
X191025Y49126D03*
X201996Y41963D03*
X211021Y42064D03*
X220046D03*
X229071Y41963D03*
X238096D03*
X249926Y46679D03*
X254426Y54580D03*
X259126Y62679D03*
X263826Y70679D03*
X268626Y78579D03*
X271185Y91958D03*
X266685Y100058D03*
X261885Y107958D03*
X257120Y116092D03*
X252485Y124158D03*
X242258Y132695D03*
X233258D03*
X224258D03*
X215313Y132618D03*
X206258Y132695D03*
X198327Y135200D03*
X161539Y87500D03*
X167690Y85540D03*
X270759Y107411D03*
X275259Y99311D03*
X256559Y131511D03*
X261195Y123445D03*
X174879Y111357D03*
X179479Y119257D03*
X251913Y137934D03*
X193241Y37966D03*
X242427Y34759D03*
X233402D03*
X224377Y34859D03*
X215352D03*
X206327Y34759D03*
X186951Y41773D03*
X182216Y49640D03*
X177616Y57540D03*
X168616Y73440D03*
X165679Y95657D03*
X170316Y103545D03*
X184179Y126957D03*
X201927Y139900D03*
X210927D03*
X219927D03*
X228927D03*
X237927D03*
X265959Y115311D03*
X277031Y78728D03*
X272231Y70828D03*
X267531Y62828D03*
X262831Y54728D03*
X258331Y46828D03*
X28700Y207884D03*
X56684Y264635D03*
X138200Y212428D03*
X144500Y215984D03*
X113000Y258384D03*
X59186Y167018D03*
X119500Y164684D03*
X110900Y168984D03*
X56757Y253089D03*
X52057Y245389D03*
X47536Y237477D03*
X42893Y229677D03*
X38257Y221789D03*
X37489Y191424D03*
X36863Y206777D03*
X41563Y198777D03*
X45863Y190877D03*
X50463Y182977D03*
X55198Y175110D03*
X66169Y167947D03*
X75194Y168048D03*
X84219D03*
X93244Y167947D03*
X102269D03*
X114099Y172663D03*
X118599Y180564D03*
X123299Y188663D03*
X127999Y196663D03*
X132799Y204563D03*
X135358Y217942D03*
X130858Y226042D03*
X126058Y233942D03*
X121293Y242076D03*
X116658Y250142D03*
X106431Y258679D03*
X97431D03*
X88431D03*
X79486Y258602D03*
X70431Y258679D03*
X62500Y261184D03*
X25712Y213484D03*
X31863Y211524D03*
X134932Y233395D03*
X139432Y225295D03*
X120732Y257495D03*
X125368Y249429D03*
X39052Y237341D03*
X43652Y245241D03*
X116086Y263918D03*
X57414Y163950D03*
X106600Y160743D03*
X97575D03*
X88550Y160843D03*
X79525D03*
X70500Y160743D03*
X51124Y167757D03*
X46389Y175624D03*
X41789Y183524D03*
X32789Y199424D03*
X29852Y221641D03*
X34489Y229529D03*
X48352Y252941D03*
X66100Y265884D03*
X75100D03*
X84100D03*
X93100D03*
X102100D03*
X130132Y241295D03*
X141204Y204712D03*
X136404Y196812D03*
X131704Y188812D03*
X127004Y180712D03*
X122504Y172812D03*
X164527Y207884D03*
X192511Y264635D03*
X274027Y212428D03*
X280327Y215984D03*
X248827Y258384D03*
X195013Y167018D03*
X255327Y164684D03*
X246727Y168984D03*
X192584Y253089D03*
X187884Y245389D03*
X183363Y237477D03*
X178720Y229677D03*
X174084Y221789D03*
X173316Y191424D03*
X172690Y206777D03*
X177390Y198777D03*
X181690Y190877D03*
X186290Y182977D03*
X191025Y175110D03*
X201996Y167947D03*
X211021Y168048D03*
X220046D03*
X229071Y167947D03*
X238096D03*
X249926Y172663D03*
X254426Y180564D03*
X259126Y188663D03*
X263826Y196663D03*
X268626Y204563D03*
X271185Y217942D03*
X266685Y226042D03*
X261885Y233942D03*
X257120Y242076D03*
X252485Y250142D03*
X242258Y258679D03*
X233258D03*
X224258D03*
X215313Y258602D03*
X206258Y258679D03*
X198327Y261184D03*
X161539Y213484D03*
X167690Y211524D03*
X270759Y233395D03*
X275259Y225295D03*
X256559Y257495D03*
X261195Y249429D03*
X174879Y237341D03*
X179479Y245241D03*
X251913Y263918D03*
X193241Y163950D03*
X242427Y160743D03*
X233402D03*
X224377Y160843D03*
X215352D03*
X206327Y160743D03*
X186951Y167757D03*
X182216Y175624D03*
X177616Y183524D03*
X168616Y199424D03*
X165679Y221641D03*
X170316Y229529D03*
X184179Y252941D03*
X201927Y265884D03*
X210927D03*
X219927D03*
X228927D03*
X237927D03*
X265959Y241295D03*
X277031Y204712D03*
X272231Y196812D03*
X267531Y188812D03*
X262831Y180712D03*
X258331Y172812D03*
M02*
