G04 CAM350 V9.5.1 (Build 211) Date:  Sun Feb 09 09:32:50 2025 *
G04 Database: G:\2025-02-01  ºÏÆ´  ºÚÄ¤\2025-02-01-116\1.cam *
G04 Layer 5: GBO *
%FSLAX35Y35*%
%MOIN*%
%SFA1.000B1.000*%

%MIA0B0*%
%IPPOS*%
%ADD70C,0.00500*%
%LNGBO*%
%LPD*%
G54D70*
X106942Y140241D02*
G01X107400Y140700D01*
X108317*
X108775Y140241*
Y138409*
X108317Y137950*
X107400*
X106942Y138409*
Y139325*
X107858*
X115713Y39902D02*
G01X116171Y40360D01*
X117087*
X117545Y39902*
Y38069*
X117087Y37610*
X116171*
X115713Y38069*
Y38985*
X116629*
X141746Y82853D02*
G01X144127Y81479D01*
X143440Y80289*
X142814Y80120*
X141227Y81037*
X141059Y81662*
X141746Y82853*
X139685Y79282D02*
G01X140143Y80075D01*
X140768Y80243*
X142356Y79327*
X142524Y78701*
X142065Y77907*
X141439Y77740*
X139852Y78656*
X139685Y79282*
X135940Y85218D02*
G01X137440Y86269D01*
X138229Y85144*
X137216Y84993*
X136840Y84730*
X136728Y84092*
X137253Y83341*
X137891Y83229*
X138643Y83755*
X138755Y84393*
X135189Y84693D02*
G01X136240Y83191D01*
X136015Y81915*
X134739Y82140*
X133687Y83641*
X141201Y90955D02*
G01X141659Y91414D01*
X142576*
X143034Y90955*
Y89122*
X142576Y88664*
X141659*
X141201Y89122*
Y90039*
X142117*
X112631Y39784D02*
G01Y37034D01*
X111256*
X110798Y37493*
Y39326*
X111256Y39784*
X112631*
X109882D02*
G01X108966D01*
X109423*
Y37034*
X109882*
X108966*
X104334Y43732D02*
G01X105800D01*
Y42633*
X105067Y43000*
X104700*
X104334Y42633*
Y41900*
X104700Y41533*
X105434*
X105800Y41900*
X103601Y43732D02*
G01Y42266D01*
X102867Y41533*
X102135Y42266*
Y43732*
X30549Y93375D02*
G01X32383D01*
Y92000*
X31467Y92459*
X31008*
X30549Y92000*
Y91084*
X31008Y90625*
X31924*
X32383Y91084*
X29634Y93375D02*
G01Y91542D01*
X28717Y90625*
X27800Y91542*
Y93375*
X57999Y138817D02*
G01X59833D01*
Y137442*
X58917Y137900*
X58458*
X57999Y137442*
Y136525*
X58458Y136067*
X59374*
X59833Y136525*
X57083Y138817D02*
G01Y136984D01*
X56167Y136067*
X55250Y136984*
Y138817*
X30731Y83039D02*
G01X31190Y83497D01*
X32105*
X32564Y83039*
Y81206*
X32105Y80747*
X31190*
X30731Y81206*
Y82122*
X31648*
X242769Y140241D02*
G01X243226Y140700D01*
X244144*
X244601Y140241*
Y138409*
X244144Y137950*
X243226*
X242769Y138409*
Y139325*
X243685*
X251539Y39902D02*
G01X251998Y40360D01*
X252913*
X253372Y39902*
Y38069*
X252913Y37610*
X251998*
X251539Y38069*
Y38985*
X252456*
X277573Y82853D02*
G01X279954Y81479D01*
X279267Y80289*
X278641Y80120*
X277054Y81037*
X276886Y81662*
X277573Y82853*
X275512Y79282D02*
G01X275969Y80075D01*
X276595Y80243*
X278183Y79327*
X278351Y78701*
X277892Y77907*
X277266Y77740*
X275679Y78656*
X275512Y79282*
X271767Y85218D02*
G01X273267Y86269D01*
X274056Y85144*
X273043Y84993*
X272667Y84730*
X272554Y84092*
X273080Y83341*
X273718Y83229*
X274469Y83755*
X274582Y84393*
X271015Y84693D02*
G01X272067Y83191D01*
X271842Y81915*
X270566Y82140*
X269514Y83641*
X277028Y90955D02*
G01X277486Y91414D01*
X278403*
X278861Y90955*
Y89122*
X278403Y88664*
X277486*
X277028Y89122*
Y90039*
X277944*
X248458Y39784D02*
G01Y37034D01*
X247083*
X246625Y37493*
Y39326*
X247083Y39784*
X248458*
X245709D02*
G01X244792D01*
X245250*
Y37034*
X245709*
X244792*
X240160Y43732D02*
G01X241627D01*
Y42633*
X240894Y43000*
X240527*
X240160Y42633*
Y41900*
X240527Y41533*
X241260*
X241627Y41900*
X239428Y43732D02*
G01Y42266D01*
X238694Y41533*
X237961Y42266*
Y43732*
X166376Y93375D02*
G01X168210D01*
Y92000*
X167293Y92459*
X166835*
X166376Y92000*
Y91084*
X166835Y90625*
X167751*
X168210Y91084*
X165461Y93375D02*
G01Y91542D01*
X164543Y90625*
X163627Y91542*
Y93375*
X193826Y138817D02*
G01X195660D01*
Y137442*
X194743Y137900*
X194285*
X193826Y137442*
Y136525*
X194285Y136067*
X195201*
X195660Y136525*
X192910Y138817D02*
G01Y136984D01*
X191993Y136067*
X191077Y136984*
Y138817*
X166558Y83039D02*
G01X167017Y83497D01*
X167932*
X168391Y83039*
Y81206*
X167932Y80747*
X167017*
X166558Y81206*
Y82122*
X167474*
X106942Y266226D02*
G01X107400Y266684D01*
X108317*
X108775Y266226*
Y264393*
X108317Y263934*
X107400*
X106942Y264393*
Y265309*
X107858*
X115713Y165886D02*
G01X116171Y166345D01*
X117087*
X117545Y165886*
Y164053*
X117087Y163595*
X116171*
X115713Y164053*
Y164970*
X116629*
X141746Y208837D02*
G01X144127Y207463D01*
X143440Y206273*
X142814Y206104*
X141227Y207021*
X141059Y207647*
X141746Y208837*
X139685Y205266D02*
G01X140143Y206059D01*
X140768Y206228*
X142356Y205311*
X142524Y204685*
X142065Y203891*
X141439Y203724*
X139852Y204640*
X139685Y205266*
X135940Y211202D02*
G01X137440Y212254D01*
X138229Y211128*
X137216Y210978*
X136840Y210715*
X136728Y210077*
X137253Y209325*
X137891Y209213*
X138643Y209739*
X138755Y210377*
X135189Y210677D02*
G01X136240Y209176D01*
X136015Y207900*
X134739Y208124*
X133687Y209626*
X141201Y216939D02*
G01X141659Y217398D01*
X142576*
X143034Y216939*
Y215107*
X142576Y214648*
X141659*
X141201Y215107*
Y216023*
X142117*
X112631Y165769D02*
G01Y163019D01*
X111256*
X110798Y163477*
Y165310*
X111256Y165769*
X112631*
X109882D02*
G01X108966D01*
X109423*
Y163019*
X109882*
X108966*
X104334Y169717D02*
G01X105800D01*
Y168618*
X105067Y168984*
X104700*
X104334Y168618*
Y167884*
X104700Y167518*
X105434*
X105800Y167884*
X103601Y169717D02*
G01Y168250D01*
X102867Y167518*
X102135Y168250*
Y169717*
X30549Y219359D02*
G01X32383D01*
Y217984*
X31467Y218443*
X31008*
X30549Y217984*
Y217068*
X31008Y216609*
X31924*
X32383Y217068*
X29634Y219359D02*
G01Y217527D01*
X28717Y216609*
X27800Y217527*
Y219359*
X57999Y264801D02*
G01X59833D01*
Y263426*
X58917Y263885*
X58458*
X57999Y263426*
Y262510*
X58458Y262051*
X59374*
X59833Y262510*
X57083Y264801D02*
G01Y262968D01*
X56167Y262051*
X55250Y262968*
Y264801*
X30731Y209023D02*
G01X31190Y209481D01*
X32105*
X32564Y209023*
Y207190*
X32105Y206731*
X31190*
X30731Y207190*
Y208106*
X31648*
X242769Y266226D02*
G01X243226Y266684D01*
X244144*
X244601Y266226*
Y264393*
X244144Y263934*
X243226*
X242769Y264393*
Y265309*
X243685*
X251539Y165886D02*
G01X251998Y166345D01*
X252913*
X253372Y165886*
Y164053*
X252913Y163595*
X251998*
X251539Y164053*
Y164970*
X252456*
X277573Y208837D02*
G01X279954Y207463D01*
X279267Y206273*
X278641Y206104*
X277054Y207021*
X276886Y207647*
X277573Y208837*
X275512Y205266D02*
G01X275969Y206059D01*
X276595Y206228*
X278183Y205311*
X278351Y204685*
X277892Y203891*
X277266Y203724*
X275679Y204640*
X275512Y205266*
X271767Y211202D02*
G01X273267Y212254D01*
X274056Y211128*
X273043Y210978*
X272667Y210715*
X272554Y210077*
X273080Y209325*
X273718Y209213*
X274469Y209739*
X274582Y210377*
X271015Y210677D02*
G01X272067Y209176D01*
X271842Y207900*
X270566Y208124*
X269514Y209626*
X277028Y216939D02*
G01X277486Y217398D01*
X278403*
X278861Y216939*
Y215107*
X278403Y214648*
X277486*
X277028Y215107*
Y216023*
X277944*
X248458Y165769D02*
G01Y163019D01*
X247083*
X246625Y163477*
Y165310*
X247083Y165769*
X248458*
X245709D02*
G01X244792D01*
X245250*
Y163019*
X245709*
X244792*
X240160Y169717D02*
G01X241627D01*
Y168618*
X240894Y168984*
X240527*
X240160Y168618*
Y167884*
X240527Y167518*
X241260*
X241627Y167884*
X239428Y169717D02*
G01Y168250D01*
X238694Y167518*
X237961Y168250*
Y169717*
X166376Y219359D02*
G01X168210D01*
Y217984*
X167293Y218443*
X166835*
X166376Y217984*
Y217068*
X166835Y216609*
X167751*
X168210Y217068*
X165461Y219359D02*
G01Y217527D01*
X164543Y216609*
X163627Y217527*
Y219359*
X193826Y264801D02*
G01X195660D01*
Y263426*
X194743Y263885*
X194285*
X193826Y263426*
Y262510*
X194285Y262051*
X195201*
X195660Y262510*
X192910Y264801D02*
G01Y262968D01*
X191993Y262051*
X191077Y262968*
Y264801*
X166558Y209023D02*
G01X167017Y209481D01*
X167932*
X168391Y209023*
Y207190*
X167932Y206731*
X167017*
X166558Y207190*
Y208106*
X167474*
M02*
