G04 CAM350 V9.5.1 (Build 211) Date:  Sun Feb 09 09:32:50 2025 *
G04 Database: G:\2025-02-01  ºÏÆ´  ºÚÄ¤\2025-02-01-116\1.cam *
G04 Layer 6: GKO *
%FSLAX35Y35*%
%MOIN*%
%SFA1.000B1.000*%

%MIA0B0*%
%IPPOS*%
%ADD64C,0.00039*%
%ADD81C,0.07874*%
%ADD82C,0.03937*%
%LNGKO*%
%LPD*%
G54D81*
X10109Y17406D03*
X297119D03*
Y283298D03*
X10109D03*
Y37091D03*
G54D82*
X29794Y17406D03*
Y283298D03*
X277434D03*
Y17406D03*
X142014Y40211D03*
X30293Y129552D03*
X277841Y40211D03*
X166120Y129552D03*
X30293Y255536D03*
X166120D03*
X142014Y166196D03*
X277841D03*
G54D64*
X26562Y97203D02*
G75*
G03X26562Y77518I17048J-9842D01*
Y97203D02*
G01X47607Y133653D01*
X64654Y143495D02*
G03X47607Y133653I1J-19685D01*
X123791D02*
G03X106744Y143495I-17047J-9843D01*
X123791Y133653D02*
G01X144836Y97203D01*
Y77518D02*
G03X144836Y97203I-17048J9842D01*
Y77518D02*
G01X123791Y41067D01*
X106744Y31225D02*
G03X123791Y41067I-1J19685D01*
X47607D02*
G03X64654Y31225I17047J9843D01*
X47607Y41067D02*
G01X26562Y77518D01*
X107898Y45106D02*
G03X111664Y47622I-1152J5801D01*
Y47622D02*
G01X111858Y47957D01*
X132902Y84407*
X133096Y84743*
Y84743D02*
G03X133096Y89978I-5305J2618D01*
Y89978D02*
G01X132902Y90313D01*
X111858Y126763*
X111664Y127098*
Y127098D02*
G03X107131Y129716I-4922J-3288D01*
Y129716D02*
G01X106744D01*
X64267*
Y129716D02*
G03X59734Y127098I386J-5902D01*
Y127098D02*
G01X59540Y126763D01*
X38496Y90313*
X38302Y89978*
Y89978D02*
G03X38302Y84743I5314J-2618D01*
Y84743D02*
G01X38496Y84407D01*
X59540Y47957*
X59734Y47622*
Y47622D02*
G03X64267Y45004I4922J3288D01*
Y45004D02*
G01X107131D01*
X107898Y45106*
X125506Y40023D02*
G01X125530Y40063D01*
X146575Y76514*
Y76514*
Y76514D02*
G03X146630Y98111I-18787J10846D01*
Y98111D02*
G01X146598Y98166D01*
X146575Y98207*
X125530Y134657*
Y134657*
Y134657D02*
G03X106964Y145502I-18786J-10847D01*
X64654Y145503D02*
G03X45979Y134846I1J-21693D01*
Y134846D02*
G01X45892Y134697D01*
X45868Y134657*
X24823Y98207*
Y98207*
Y98207D02*
G03X24768Y76610I18787J-10846D01*
Y76610D02*
G01X24800Y76554D01*
X24823Y76514*
X45868Y40063*
Y40063*
Y40063*
Y40063D02*
G03X64434Y29218I18786J10847D01*
X106744Y29217D02*
G03X125419Y39874I-1J21693D01*
Y39874D02*
G01X125506Y40023D01*
X106744Y31225D02*
G01X84061D01*
X80124D02*
G01X64654D01*
X64434Y29218D02*
G01X64654Y29217D01*
X80124*
X84061D02*
G01X106744D01*
X84074Y31225D02*
G03X84074Y29217I34J-1004D01*
X80121D02*
G03X80121Y31225I-4J1004D01*
X89186Y145503D02*
G03X89186Y143495I34J-1004D01*
X85234D02*
G03X85234Y145503I-4J1004D01*
X106964Y145502D02*
G01X106744Y145503D01*
X89191*
X85236D02*
G01X64654D01*
Y143495D02*
G01X85236D01*
X89191D02*
G01X106744D01*
X162389Y97203D02*
G03X162389Y77518I17048J-9842D01*
Y97203D02*
G01X183434Y133653D01*
X200481Y143495D02*
G03X183434Y133653I1J-19685D01*
X259618D02*
G03X242571Y143495I-17047J-9843D01*
X259618Y133653D02*
G01X280663Y97203D01*
Y77518D02*
G03X280662Y97203I-17048J9842D01*
X280663Y77518D02*
G01X259618Y41067D01*
X242571Y31225D02*
G03X259617Y41067I-1J19685D01*
X183434D02*
G03X200481Y31225I17047J9843D01*
X183434Y41067D02*
G01X162389Y77518D01*
X243725Y45106D02*
G03X247491Y47622I-1152J5801D01*
Y47622D02*
G01X247685Y47957D01*
X268729Y84407*
X268923Y84743*
Y84743D02*
G03X268923Y89978I-5305J2618D01*
Y89978D02*
G01X268729Y90313D01*
X247685Y126763*
X247491Y127098*
Y127098D02*
G03X242958Y129716I-4922J-3288D01*
Y129716D02*
G01X242571D01*
X200094*
Y129716D02*
G03X195561Y127098I386J-5902D01*
Y127098D02*
G01X195367Y126763D01*
X174323Y90313*
X174129Y89978*
Y89978D02*
G03X174129Y84743I5314J-2618D01*
Y84743D02*
G01X174323Y84407D01*
X195367Y47957*
X195561Y47622*
Y47622D02*
G03X200094Y45004I4922J3288D01*
Y45004D02*
G01X242958D01*
X243725Y45106*
X261333Y40023D02*
G01X261357Y40063D01*
X282402Y76514*
Y76514*
Y76514D02*
G03X282456Y98111I-18787J10846D01*
Y98111D02*
G01X282425Y98166D01*
X282402Y98207*
X261357Y134657*
Y134657*
Y134657D02*
G03X242791Y145502I-18786J-10847D01*
X200481Y145503D02*
G03X181806Y134846I1J-21693D01*
Y134846D02*
G01X181719Y134697D01*
X181695Y134657*
X160650Y98207*
Y98207*
Y98207D02*
G03X160595Y76610I18787J-10846D01*
Y76610D02*
G01X160627Y76554D01*
X160650Y76514*
X181695Y40063*
Y40063*
Y40063*
Y40063D02*
G03X200261Y29218I18786J10847D01*
X242571Y29217D02*
G03X261245Y39874I-1J21693D01*
Y39874D02*
G01X261333Y40023D01*
X242571Y31225D02*
G01X219887D01*
X215950D02*
G01X200481D01*
X200261Y29218D02*
G01X200481Y29217D01*
X215950*
X219887D02*
G01X242571D01*
X219901Y31225D02*
G03X219901Y29217I34J-1004D01*
X215948D02*
G03X215948Y31225I-4J1004D01*
X225013Y145503D02*
G03X225013Y143495I34J-1004D01*
X221060D02*
G03X221060Y145503I-4J1004D01*
X242791Y145502D02*
G01X242571Y145503D01*
X225017*
X221063D02*
G01X200481D01*
Y143495D02*
G01X221063D01*
X225017D02*
G01X242571D01*
X26562Y223187D02*
G03X26562Y203502I17048J-9842D01*
Y223187D02*
G01X47607Y259637D01*
X64654Y269479D02*
G03X47607Y259637I1J-19685D01*
X123791D02*
G03X106744Y269479I-17047J-9843D01*
X123791Y259637D02*
G01X144836Y223187D01*
Y203502D02*
G03X144836Y223187I-17048J9842D01*
Y203502D02*
G01X123791Y167051D01*
X106744Y157209D02*
G03X123791Y167051I-1J19685D01*
X47607D02*
G03X64654Y157209I17047J9843D01*
X47607Y167051D02*
G01X26562Y203502D01*
X107898Y171090D02*
G03X111664Y173606I-1152J5801D01*
Y173606D02*
G01X111858Y173941D01*
X132902Y210391*
X133096Y210727*
Y210727D02*
G03X133096Y215962I-5305J2618D01*
Y215962D02*
G01X132902Y216297D01*
X111858Y252747*
X111664Y253082*
Y253082D02*
G03X107131Y255700I-4922J-3288D01*
Y255700D02*
G01X106744D01*
X64267*
Y255700D02*
G03X59734Y253082I386J-5902D01*
Y253082D02*
G01X59540Y252747D01*
X38496Y216297*
X38302Y215962*
Y215962D02*
G03X38302Y210727I5314J-2618D01*
Y210727D02*
G01X38496Y210391D01*
X59540Y173941*
X59734Y173606*
Y173606D02*
G03X64267Y170988I4922J3288D01*
Y170988D02*
G01X107131D01*
X107898Y171090*
X125506Y166007D02*
G01X125530Y166047D01*
X146575Y202498*
Y202498*
Y202498D02*
G03X146630Y224095I-18787J10846D01*
Y224095D02*
G01X146598Y224150D01*
X146575Y224191*
X125530Y260641*
Y260641*
Y260641D02*
G03X106964Y271486I-18786J-10847D01*
X64654Y271487D02*
G03X45979Y260831I1J-21693D01*
Y260831D02*
G01X45892Y260681D01*
X45868Y260641*
X24823Y224191*
Y224191*
Y224191D02*
G03X24768Y202595I18787J-10846D01*
Y202595D02*
G01X24800Y202539D01*
X24823Y202498*
X45868Y166047*
Y166047*
Y166047*
Y166047D02*
G03X64434Y155202I18786J10847D01*
X106744Y155201D02*
G03X125419Y165858I-1J21693D01*
Y165858D02*
G01X125506Y166007D01*
X106744Y157209D02*
G01X84061D01*
X80124D02*
G01X64654D01*
X64434Y155202D02*
G01X64654Y155201D01*
X80124*
X84061D02*
G01X106744D01*
X84074Y157209D02*
G03X84074Y155201I34J-1004D01*
X80121D02*
G03X80121Y157209I-4J1004D01*
X89186Y271487D02*
G03X89186Y269479I34J-1004D01*
X85234D02*
G03X85234Y271487I-4J1004D01*
X106964Y271486D02*
G01X106744Y271487D01*
X89191*
X85236D02*
G01X64654D01*
Y269479D02*
G01X85236D01*
X89191D02*
G01X106744D01*
X162389Y223187D02*
G03X162389Y203502I17048J-9842D01*
Y223187D02*
G01X183434Y259637D01*
X200481Y269479D02*
G03X183434Y259637I1J-19685D01*
X259618D02*
G03X242571Y269479I-17047J-9843D01*
X259618Y259637D02*
G01X280663Y223187D01*
Y203502D02*
G03X280662Y223187I-17048J9842D01*
X280663Y203502D02*
G01X259618Y167051D01*
X242571Y157209D02*
G03X259617Y167051I-1J19685D01*
X183434D02*
G03X200481Y157209I17047J9843D01*
X183434Y167051D02*
G01X162389Y203502D01*
X243725Y171090D02*
G03X247491Y173606I-1152J5801D01*
Y173606D02*
G01X247685Y173941D01*
X268729Y210391*
X268923Y210727*
Y210727D02*
G03X268923Y215962I-5305J2618D01*
Y215962D02*
G01X268729Y216297D01*
X247685Y252747*
X247491Y253082*
Y253082D02*
G03X242958Y255700I-4922J-3288D01*
Y255700D02*
G01X242571D01*
X200094*
Y255700D02*
G03X195561Y253082I386J-5902D01*
Y253082D02*
G01X195367Y252747D01*
X174323Y216297*
X174129Y215962*
Y215962D02*
G03X174129Y210727I5314J-2618D01*
Y210727D02*
G01X174323Y210391D01*
X195367Y173941*
X195561Y173606*
Y173606D02*
G03X200094Y170988I4922J3288D01*
Y170988D02*
G01X242958D01*
X243725Y171090*
X261333Y166007D02*
G01X261357Y166047D01*
X282402Y202498*
Y202498*
Y202498D02*
G03X282456Y224095I-18787J10846D01*
Y224095D02*
G01X282425Y224150D01*
X282402Y224191*
X261357Y260641*
Y260641*
Y260641D02*
G03X242791Y271486I-18786J-10847D01*
X200481Y271487D02*
G03X181806Y260831I1J-21693D01*
Y260831D02*
G01X181719Y260681D01*
X181695Y260641*
X160650Y224191*
Y224191*
Y224191D02*
G03X160595Y202595I18787J-10846D01*
Y202595D02*
G01X160627Y202539D01*
X160650Y202498*
X181695Y166047*
Y166047*
Y166047*
Y166047D02*
G03X200261Y155202I18786J10847D01*
X242571Y155201D02*
G03X261245Y165858I-1J21693D01*
Y165858D02*
G01X261333Y166007D01*
X242571Y157209D02*
G01X219887D01*
X215950D02*
G01X200481D01*
X200261Y155202D02*
G01X200481Y155201D01*
X215950*
X219887D02*
G01X242571D01*
X219901Y157209D02*
G03X219901Y155201I34J-1004D01*
X215948D02*
G03X215948Y157209I-4J1004D01*
X225013Y271487D02*
G03X225013Y269479I34J-1004D01*
X221060D02*
G03X221060Y271487I-4J1004D01*
X242791Y271486D02*
G01X242571Y271487D01*
X225017*
X221063D02*
G01X200481D01*
Y269479D02*
G01X221063D01*
X225017D02*
G01X242571D01*
X308930Y295109D02*
G01X-1702D01*
Y5595*
X308930*
Y295109*
M02*
