G04 CAM350 V9.5.1 (Build 211) Date:  Sun Feb 09 09:32:50 2025 *
G04 Database: G:\2025-02-01  ºÏÆ´  ºÚÄ¤\2025-02-01-116\1.cam *
G04 Layer 3: GTL *
%FSLAX35Y35*%
%MOIN*%
%SFA1.000B1.000*%

%MIA0B0*%
%IPPOS*%
%AMD15*
4,1,4,0.01667,0.00447,-0.00447,0.01667,-0.01667,-0.00447,0.00447,-0.01667,0.01667,0.00447,0.00000*
%
%AMD16*
4,1,4,0.00300,0.01700,-0.01700,0.00300,-0.00300,-0.01700,0.01700,-0.00300,0.00300,0.01700,0.00000*
%
%AMD17*
4,1,4,0.01882,0.00504,-0.00504,0.01882,-0.01882,-0.00504,0.00504,-0.01882,0.01882,0.00504,0.00000*
%
%AMD18*
4,1,4,0.00504,0.01882,-0.01882,0.00504,-0.00504,-0.01882,0.01882,-0.00504,0.00504,0.01882,0.00000*
%
%AMOCTAGOND29*
4,1,8,0.00492,0.00984,-0.00492,0.00984,-0.00984,0.00492,-0.00984,-0.00492,-0.00492,-0.00984,0.00492,-0.00984,0.00984,-0.00492,0.00984,0.00492,0.00492,0.00984,0.00000*
%
%AMOCTAGOND30*
4,1,8,-0.00606,0.00918,-0.01099,0.00066,-0.00918,-0.00606,-0.00066,-0.01099,0.00606,-0.00918,0.01099,-0.00066,0.00918,0.00606,0.00066,0.01099,-0.00606,0.00918,0.00000*
%
%AMOCTAGOND31*
4,1,8,0.01089,0.00161,0.00524,0.00968,-0.00161,0.01089,-0.00968,0.00524,-0.01089,-0.00161,-0.00524,-0.00968,0.00161,-0.01089,0.00968,-0.00524,0.01089,0.00161,0.00000*
%
%ADD70C,0.00500*%
%ADD71C,0.01575*%
%ADD24C,0.01000*%
%ADD44R,0.02756X0.02756*%
%ADD45D15*%
%ADD46D16*%
%ADD47D17*%
%ADD48D18*%
%ADD49R,0.02441X0.02441*%
%ADD50OCTAGOND29*%
%ADD51OCTAGOND30*%
%ADD52OCTAGOND31*%
%LNGTL*%
%LPD*%
G54D70*
X121314Y44052D03*
G54D44*
X106600Y41963D03*
Y34759D03*
X102269D03*
Y41963D03*
X93244D03*
Y34759D03*
X97575D03*
Y41963D03*
X106431Y132695D03*
Y139900D03*
X102100D03*
Y132695D03*
X93100D03*
Y139900D03*
X97431D03*
Y132695D03*
X88431D03*
Y139900D03*
X84100D03*
Y132695D03*
X75100D03*
Y139900D03*
X79431D03*
Y132695D03*
X70431D03*
Y139900D03*
X66100D03*
Y132695D03*
X70500Y41963D03*
Y34759D03*
X66169D03*
Y41963D03*
X79525Y42064D03*
Y34859D03*
X75194D03*
Y42064D03*
X88550D03*
Y34859D03*
X84219D03*
Y42064D03*
G54D45*
X59186Y41034D03*
X57414Y37966D03*
X114314Y134866D03*
X116086Y137934D03*
G54D46*
X113084Y39851D03*
X115116Y36949D03*
X58716Y135749D03*
X56684Y138651D03*
G54D47*
X116264Y50430D03*
X122504Y46828D03*
X120339Y43077D03*
X114099Y46679D03*
X120765Y58330D03*
X127004Y54728D03*
X124839Y50977D03*
X118599Y54580D03*
X125464Y66430D03*
X131704Y62828D03*
X129539Y59077D03*
X123299Y62679D03*
X130165Y74430D03*
X136404Y70828D03*
X134239Y67077D03*
X127999Y70679D03*
X134736Y82788D03*
X140976Y79185D03*
X138810Y75435D03*
X132571Y79037D03*
X54592Y123354D03*
X48352Y126957D03*
X50518Y130707D03*
X56757Y127105D03*
X52057Y119405D03*
X45818Y123007D03*
X43652Y119257D03*
X49892Y115655D03*
X45292Y107755D03*
X39052Y111357D03*
X41218Y115107D03*
X47457Y111505D03*
X42893Y103693D03*
X36654Y107295D03*
X34489Y103545D03*
X40728Y99942D03*
X36092Y92054D03*
X29852Y95657D03*
X32018Y99407D03*
X38257Y95805D03*
G54D48*
X133193Y95709D03*
X139432Y99311D03*
X141598Y95561D03*
X135358Y91958D03*
X128693Y103809D03*
X134932Y107411D03*
X137098Y103661D03*
X130858Y100058D03*
X123893Y111709D03*
X130132Y115311D03*
X132298Y111561D03*
X126058Y107958D03*
X119128Y119842D03*
X125368Y123445D03*
X127533Y119694D03*
X121293Y116092D03*
X114493Y127909D03*
X120732Y131511D03*
X122898Y127761D03*
X116658Y124158D03*
X36863Y80793D03*
X30623Y77190D03*
X32789Y73440D03*
X39028Y77042D03*
X43728Y69042D03*
X37489Y65440D03*
X35323Y69190D03*
X41563Y72793D03*
X45863Y64893D03*
X39623Y61290D03*
X41789Y57540D03*
X48028Y61142D03*
X52628Y53242D03*
X46389Y49640D03*
X44223Y53390D03*
X50463Y56993D03*
X55198Y49126D03*
X48959Y45524D03*
X51124Y41773D03*
X57363Y45376D03*
G54D49*
X31400Y87700D03*
X27857D03*
X141628Y86100D03*
X145172D03*
G54D50*
X111680Y138955D03*
X119500Y38700D03*
X144500Y90000D03*
X111000Y35400D03*
X110900Y43000D03*
X26700Y92000D03*
X61800Y139500D03*
X28700Y81900D03*
G54D51*
X145000D03*
G54D52*
X138200Y86444D03*
G54D71*
X28700Y81900D03*
X56684Y138651D03*
X138200Y86444D03*
X144500Y90000D03*
X113000Y132400D03*
X59186Y41034D03*
X119500Y38700D03*
X110900Y43000D03*
X56757Y127105D03*
X52057Y119405D03*
X47536Y111493D03*
X42893Y103693D03*
X38257Y95805D03*
X37489Y65440D03*
X36863Y80793D03*
X41563Y72793D03*
X45863Y64893D03*
X50463Y56993D03*
X55198Y49126D03*
X66169Y41963D03*
X75194Y42064D03*
X84219D03*
X93244Y41963D03*
X102269D03*
X114099Y46679D03*
X118599Y54580D03*
X123299Y62679D03*
X127999Y70679D03*
X132799Y78579D03*
X135358Y91958D03*
X130858Y100058D03*
X126058Y107958D03*
X121293Y116092D03*
X116658Y124158D03*
X106431Y132695D03*
X97431D03*
X88431D03*
X79486Y132618D03*
X70431Y132695D03*
X62500Y135200D03*
X25712Y87500D03*
X31863Y85540D03*
X134932Y107411D03*
X139432Y99311D03*
X120732Y131511D03*
X125368Y123445D03*
X39052Y111357D03*
X43652Y119257D03*
X116086Y137934D03*
X57414Y37966D03*
X106600Y34759D03*
X97575D03*
X88550Y34859D03*
X79525D03*
X70500Y34759D03*
X51124Y41773D03*
X46389Y49640D03*
X41789Y57540D03*
X32789Y73440D03*
X29852Y95657D03*
X34489Y103545D03*
X48352Y126957D03*
X66100Y139900D03*
X75100D03*
X84100D03*
X93100D03*
X102100D03*
X130132Y115311D03*
X141204Y78728D03*
X136404Y70828D03*
X131704Y62828D03*
X127004Y54728D03*
X122504Y46828D03*
G54D70*
X257141Y44052D03*
G54D44*
X242427Y41963D03*
Y34759D03*
X238096D03*
Y41963D03*
X229071D03*
Y34759D03*
X233402D03*
Y41963D03*
X242258Y132695D03*
Y139900D03*
X237927D03*
Y132695D03*
X228927D03*
Y139900D03*
X233258D03*
Y132695D03*
X224258D03*
Y139900D03*
X219927D03*
Y132695D03*
X210927D03*
Y139900D03*
X215258D03*
Y132695D03*
X206258D03*
Y139900D03*
X201927D03*
Y132695D03*
X206327Y41963D03*
Y34759D03*
X201996D03*
Y41963D03*
X215352Y42064D03*
Y34859D03*
X211021D03*
Y42064D03*
X224377D03*
Y34859D03*
X220046D03*
Y42064D03*
G54D45*
X195013Y41034D03*
X193241Y37966D03*
X250141Y134866D03*
X251913Y137934D03*
G54D46*
X248911Y39851D03*
X250943Y36949D03*
X194543Y135749D03*
X192511Y138651D03*
G54D47*
X252091Y50430D03*
X258331Y46828D03*
X256166Y43077D03*
X249926Y46679D03*
X256592Y58330D03*
X262831Y54728D03*
X260666Y50977D03*
X254426Y54580D03*
X261291Y66430D03*
X267531Y62828D03*
X265366Y59077D03*
X259126Y62679D03*
X265992Y74430D03*
X272231Y70828D03*
X270066Y67077D03*
X263826Y70679D03*
X270563Y82788D03*
X276803Y79185D03*
X274637Y75435D03*
X268398Y79037D03*
X190419Y123354D03*
X184179Y126957D03*
X186345Y130707D03*
X192584Y127105D03*
X187884Y119405D03*
X181645Y123007D03*
X179479Y119257D03*
X185719Y115655D03*
X181119Y107755D03*
X174879Y111357D03*
X177045Y115107D03*
X183284Y111505D03*
X178720Y103693D03*
X172481Y107295D03*
X170316Y103545D03*
X176555Y99942D03*
X171919Y92054D03*
X165679Y95657D03*
X167845Y99407D03*
X174084Y95805D03*
G54D48*
X269020Y95709D03*
X275259Y99311D03*
X277425Y95561D03*
X271185Y91958D03*
X264520Y103809D03*
X270759Y107411D03*
X272925Y103661D03*
X266685Y100058D03*
X259720Y111709D03*
X265959Y115311D03*
X268125Y111561D03*
X261885Y107958D03*
X254955Y119842D03*
X261195Y123445D03*
X263360Y119694D03*
X257120Y116092D03*
X250320Y127909D03*
X256559Y131511D03*
X258725Y127761D03*
X252485Y124158D03*
X172690Y80793D03*
X166450Y77190D03*
X168616Y73440D03*
X174855Y77042D03*
X179555Y69042D03*
X173316Y65440D03*
X171150Y69190D03*
X177390Y72793D03*
X181690Y64893D03*
X175450Y61290D03*
X177616Y57540D03*
X183855Y61142D03*
X188455Y53242D03*
X182216Y49640D03*
X180050Y53390D03*
X186290Y56993D03*
X191025Y49126D03*
X184786Y45524D03*
X186951Y41773D03*
X193190Y45376D03*
G54D49*
X167227Y87700D03*
X163684D03*
X277455Y86100D03*
X280999D03*
G54D50*
X247507Y138955D03*
X255327Y38700D03*
X280327Y90000D03*
X246827Y35400D03*
X246727Y43000D03*
X162527Y92000D03*
X197627Y139500D03*
X164527Y81900D03*
G54D51*
X280827D03*
G54D52*
X274027Y86444D03*
G54D71*
X164527Y81900D03*
X192511Y138651D03*
X274027Y86444D03*
X280327Y90000D03*
X248827Y132400D03*
X195013Y41034D03*
X255327Y38700D03*
X246727Y43000D03*
X192584Y127105D03*
X187884Y119405D03*
X183363Y111493D03*
X178720Y103693D03*
X174084Y95805D03*
X173316Y65440D03*
X172690Y80793D03*
X177390Y72793D03*
X181690Y64893D03*
X186290Y56993D03*
X191025Y49126D03*
X201996Y41963D03*
X211021Y42064D03*
X220046D03*
X229071Y41963D03*
X238096D03*
X249926Y46679D03*
X254426Y54580D03*
X259126Y62679D03*
X263826Y70679D03*
X268626Y78579D03*
X271185Y91958D03*
X266685Y100058D03*
X261885Y107958D03*
X257120Y116092D03*
X252485Y124158D03*
X242258Y132695D03*
X233258D03*
X224258D03*
X215313Y132618D03*
X206258Y132695D03*
X198327Y135200D03*
X161539Y87500D03*
X167690Y85540D03*
X270759Y107411D03*
X275259Y99311D03*
X256559Y131511D03*
X261195Y123445D03*
X174879Y111357D03*
X179479Y119257D03*
X251913Y137934D03*
X193241Y37966D03*
X242427Y34759D03*
X233402D03*
X224377Y34859D03*
X215352D03*
X206327Y34759D03*
X186951Y41773D03*
X182216Y49640D03*
X177616Y57540D03*
X168616Y73440D03*
X165679Y95657D03*
X170316Y103545D03*
X184179Y126957D03*
X201927Y139900D03*
X210927D03*
X219927D03*
X228927D03*
X237927D03*
X265959Y115311D03*
X277031Y78728D03*
X272231Y70828D03*
X267531Y62828D03*
X262831Y54728D03*
X258331Y46828D03*
G54D70*
X121314Y170036D03*
G54D44*
X106600Y167947D03*
Y160743D03*
X102269D03*
Y167947D03*
X93244D03*
Y160743D03*
X97575D03*
Y167947D03*
X106431Y258679D03*
Y265884D03*
X102100D03*
Y258679D03*
X93100D03*
Y265884D03*
X97431D03*
Y258679D03*
X88431D03*
Y265884D03*
X84100D03*
Y258679D03*
X75100D03*
Y265884D03*
X79431D03*
Y258679D03*
X70431D03*
Y265884D03*
X66100D03*
Y258679D03*
X70500Y167947D03*
Y160743D03*
X66169D03*
Y167947D03*
X79525Y168048D03*
Y160843D03*
X75194D03*
Y168048D03*
X88550D03*
Y160843D03*
X84219D03*
Y168048D03*
G54D45*
X59186Y167018D03*
X57414Y163950D03*
X114314Y260850D03*
X116086Y263918D03*
G54D46*
X113084Y165835D03*
X115116Y162933D03*
X58716Y261733D03*
X56684Y264635D03*
G54D47*
X116264Y176414D03*
X122504Y172812D03*
X120339Y169061D03*
X114099Y172663D03*
X120765Y184314D03*
X127004Y180712D03*
X124839Y176961D03*
X118599Y180564D03*
X125464Y192414D03*
X131704Y188812D03*
X129539Y185061D03*
X123299Y188663D03*
X130165Y200414D03*
X136404Y196812D03*
X134239Y193061D03*
X127999Y196663D03*
X134736Y208772D03*
X140976Y205169D03*
X138810Y201419D03*
X132571Y205021D03*
X54592Y249338D03*
X48352Y252941D03*
X50518Y256691D03*
X56757Y253089D03*
X52057Y245389D03*
X45818Y248991D03*
X43652Y245241D03*
X49892Y241639D03*
X45292Y233739D03*
X39052Y237341D03*
X41218Y241091D03*
X47457Y237489D03*
X42893Y229677D03*
X36654Y233279D03*
X34489Y229529D03*
X40728Y225926D03*
X36092Y218038D03*
X29852Y221641D03*
X32018Y225391D03*
X38257Y221789D03*
G54D48*
X133193Y221693D03*
X139432Y225295D03*
X141598Y221545D03*
X135358Y217942D03*
X128693Y229793D03*
X134932Y233395D03*
X137098Y229645D03*
X130858Y226042D03*
X123893Y237693D03*
X130132Y241295D03*
X132298Y237545D03*
X126058Y233942D03*
X119128Y245826D03*
X125368Y249429D03*
X127533Y245678D03*
X121293Y242076D03*
X114493Y253893D03*
X120732Y257495D03*
X122898Y253745D03*
X116658Y250142D03*
X36863Y206777D03*
X30623Y203174D03*
X32789Y199424D03*
X39028Y203026D03*
X43728Y195026D03*
X37489Y191424D03*
X35323Y195174D03*
X41563Y198777D03*
X45863Y190877D03*
X39623Y187274D03*
X41789Y183524D03*
X48028Y187126D03*
X52628Y179226D03*
X46389Y175624D03*
X44223Y179374D03*
X50463Y182977D03*
X55198Y175110D03*
X48959Y171508D03*
X51124Y167757D03*
X57363Y171360D03*
G54D49*
X31400Y213684D03*
X27857D03*
X141628Y212084D03*
X145172D03*
G54D50*
X111680Y264939D03*
X119500Y164684D03*
X144500Y215984D03*
X111000Y161384D03*
X110900Y168984D03*
X26700Y217984D03*
X61800Y265484D03*
X28700Y207884D03*
G54D51*
X145000D03*
G54D52*
X138200Y212428D03*
G54D71*
X28700Y207884D03*
X56684Y264635D03*
X138200Y212428D03*
X144500Y215984D03*
X113000Y258384D03*
X59186Y167018D03*
X119500Y164684D03*
X110900Y168984D03*
X56757Y253089D03*
X52057Y245389D03*
X47536Y237477D03*
X42893Y229677D03*
X38257Y221789D03*
X37489Y191424D03*
X36863Y206777D03*
X41563Y198777D03*
X45863Y190877D03*
X50463Y182977D03*
X55198Y175110D03*
X66169Y167947D03*
X75194Y168048D03*
X84219D03*
X93244Y167947D03*
X102269D03*
X114099Y172663D03*
X118599Y180564D03*
X123299Y188663D03*
X127999Y196663D03*
X132799Y204563D03*
X135358Y217942D03*
X130858Y226042D03*
X126058Y233942D03*
X121293Y242076D03*
X116658Y250142D03*
X106431Y258679D03*
X97431D03*
X88431D03*
X79486Y258602D03*
X70431Y258679D03*
X62500Y261184D03*
X25712Y213484D03*
X31863Y211524D03*
X134932Y233395D03*
X139432Y225295D03*
X120732Y257495D03*
X125368Y249429D03*
X39052Y237341D03*
X43652Y245241D03*
X116086Y263918D03*
X57414Y163950D03*
X106600Y160743D03*
X97575D03*
X88550Y160843D03*
X79525D03*
X70500Y160743D03*
X51124Y167757D03*
X46389Y175624D03*
X41789Y183524D03*
X32789Y199424D03*
X29852Y221641D03*
X34489Y229529D03*
X48352Y252941D03*
X66100Y265884D03*
X75100D03*
X84100D03*
X93100D03*
X102100D03*
X130132Y241295D03*
X141204Y204712D03*
X136404Y196812D03*
X131704Y188812D03*
X127004Y180712D03*
X122504Y172812D03*
G54D70*
X257141Y170036D03*
G54D44*
X242427Y167947D03*
Y160743D03*
X238096D03*
Y167947D03*
X229071D03*
Y160743D03*
X233402D03*
Y167947D03*
X242258Y258679D03*
Y265884D03*
X237927D03*
Y258679D03*
X228927D03*
Y265884D03*
X233258D03*
Y258679D03*
X224258D03*
Y265884D03*
X219927D03*
Y258679D03*
X210927D03*
Y265884D03*
X215258D03*
Y258679D03*
X206258D03*
Y265884D03*
X201927D03*
Y258679D03*
X206327Y167947D03*
Y160743D03*
X201996D03*
Y167947D03*
X215352Y168048D03*
Y160843D03*
X211021D03*
Y168048D03*
X224377D03*
Y160843D03*
X220046D03*
Y168048D03*
G54D45*
X195013Y167018D03*
X193241Y163950D03*
X250141Y260850D03*
X251913Y263918D03*
G54D46*
X248911Y165835D03*
X250943Y162933D03*
X194543Y261733D03*
X192511Y264635D03*
G54D47*
X252091Y176414D03*
X258331Y172812D03*
X256166Y169061D03*
X249926Y172663D03*
X256592Y184314D03*
X262831Y180712D03*
X260666Y176961D03*
X254426Y180564D03*
X261291Y192414D03*
X267531Y188812D03*
X265366Y185061D03*
X259126Y188663D03*
X265992Y200414D03*
X272231Y196812D03*
X270066Y193061D03*
X263826Y196663D03*
X270563Y208772D03*
X276803Y205169D03*
X274637Y201419D03*
X268398Y205021D03*
X190419Y249338D03*
X184179Y252941D03*
X186345Y256691D03*
X192584Y253089D03*
X187884Y245389D03*
X181645Y248991D03*
X179479Y245241D03*
X185719Y241639D03*
X181119Y233739D03*
X174879Y237341D03*
X177045Y241091D03*
X183284Y237489D03*
X178720Y229677D03*
X172481Y233279D03*
X170316Y229529D03*
X176555Y225926D03*
X171919Y218038D03*
X165679Y221641D03*
X167845Y225391D03*
X174084Y221789D03*
G54D48*
X269020Y221693D03*
X275259Y225295D03*
X277425Y221545D03*
X271185Y217942D03*
X264520Y229793D03*
X270759Y233395D03*
X272925Y229645D03*
X266685Y226042D03*
X259720Y237693D03*
X265959Y241295D03*
X268125Y237545D03*
X261885Y233942D03*
X254955Y245826D03*
X261195Y249429D03*
X263360Y245678D03*
X257120Y242076D03*
X250320Y253893D03*
X256559Y257495D03*
X258725Y253745D03*
X252485Y250142D03*
X172690Y206777D03*
X166450Y203174D03*
X168616Y199424D03*
X174855Y203026D03*
X179555Y195026D03*
X173316Y191424D03*
X171150Y195174D03*
X177390Y198777D03*
X181690Y190877D03*
X175450Y187274D03*
X177616Y183524D03*
X183855Y187126D03*
X188455Y179226D03*
X182216Y175624D03*
X180050Y179374D03*
X186290Y182977D03*
X191025Y175110D03*
X184786Y171508D03*
X186951Y167757D03*
X193190Y171360D03*
G54D49*
X167227Y213684D03*
X163684D03*
X277455Y212084D03*
X280999D03*
G54D50*
X247507Y264939D03*
X255327Y164684D03*
X280327Y215984D03*
X246827Y161384D03*
X246727Y168984D03*
X162527Y217984D03*
X197627Y265484D03*
X164527Y207884D03*
G54D51*
X280827D03*
G54D52*
X274027Y212428D03*
G54D71*
X164527Y207884D03*
X192511Y264635D03*
X274027Y212428D03*
X280327Y215984D03*
X248827Y258384D03*
X195013Y167018D03*
X255327Y164684D03*
X246727Y168984D03*
X192584Y253089D03*
X187884Y245389D03*
X183363Y237477D03*
X178720Y229677D03*
X174084Y221789D03*
X173316Y191424D03*
X172690Y206777D03*
X177390Y198777D03*
X181690Y190877D03*
X186290Y182977D03*
X191025Y175110D03*
X201996Y167947D03*
X211021Y168048D03*
X220046D03*
X229071Y167947D03*
X238096D03*
X249926Y172663D03*
X254426Y180564D03*
X259126Y188663D03*
X263826Y196663D03*
X268626Y204563D03*
X271185Y217942D03*
X266685Y226042D03*
X261885Y233942D03*
X257120Y242076D03*
X252485Y250142D03*
X242258Y258679D03*
X233258D03*
X224258D03*
X215313Y258602D03*
X206258Y258679D03*
X198327Y261184D03*
X161539Y213484D03*
X167690Y211524D03*
X270759Y233395D03*
X275259Y225295D03*
X256559Y257495D03*
X261195Y249429D03*
X174879Y237341D03*
X179479Y245241D03*
X251913Y263918D03*
X193241Y163950D03*
X242427Y160743D03*
X233402D03*
X224377Y160843D03*
X215352D03*
X206327Y160743D03*
X186951Y167757D03*
X182216Y175624D03*
X177616Y183524D03*
X168616Y199424D03*
X165679Y221641D03*
X170316Y229529D03*
X184179Y252941D03*
X201927Y265884D03*
X210927D03*
X219927D03*
X228927D03*
X237927D03*
X265959Y241295D03*
X277031Y204712D03*
X272231Y196812D03*
X267531Y188812D03*
X262831Y180712D03*
X258331Y172812D03*
G54D24*
X112094Y138601D02*
G01X113064Y138106D01*
X113325Y138059*
X113978Y138029D02*
G01X113941Y138031D01*
X61800Y136890D02*
G01X61982Y135975D01*
X62500Y135200*
X27393Y91707D02*
G01X27184Y91867D01*
X30557Y89164D02*
G01X30050Y90062D01*
X29083Y90421*
X28391Y90709D02*
G01X29083Y90421D01*
X138200Y86444D02*
G01X139032Y86100D01*
X113325Y138059D02*
G01X113941Y138031D01*
X111680Y138955D02*
G01X112094Y138601D01*
X113978Y138029D02*
G01X115254Y137934D01*
X116086*
X62344Y135200D02*
G01X62500D01*
X61800Y136890D02*
G01Y139500D01*
X26700Y92000D02*
G01X27184Y91867D01*
X30557Y89164D02*
G01X30680Y88420D01*
X27393Y91707D02*
G01X28391Y90709D01*
X30680Y88420D02*
G01X31400Y87700D01*
X138500Y86900D02*
G01X138578Y86822D01*
X139032Y86100D02*
G01X141628D01*
X135194Y87694D02*
G01X137196Y89696D01*
X138162Y90254D02*
G01X138741Y90833D01*
Y92703*
X137196Y89696D02*
G01X138162Y90254D01*
X135194Y82559D02*
G01Y87694D01*
X138741Y92703D02*
G01X141598Y95561D01*
X144500Y90000D02*
G01X144785Y89715D01*
Y86487D02*
G01Y89715D01*
Y86487D02*
G01X145172Y86100D01*
X106600Y41963D02*
G01X111000Y37563D01*
Y35400D02*
G01Y37563D01*
X115116Y36949D02*
G01X117749D01*
X119500Y38700*
X110900Y42801D02*
G01Y43000D01*
X113084Y39851D02*
G01Y40617D01*
X110900Y42801D02*
G01X113084Y40617D01*
X114314Y133938D02*
G01Y134866D01*
X113110Y132734D02*
G01X114314Y133938D01*
X113110Y132510D02*
G01Y132734D01*
X113000Y132400D02*
G01X113110Y132510D01*
X110400Y131145D02*
G01Y135931D01*
Y131145D02*
G01X113636Y127909D01*
X114493*
X59794Y45298D02*
G01X63291Y41800D01*
Y39964D02*
G01X63500Y39755D01*
X63291Y39964D02*
G01Y41800D01*
X57441Y45298D02*
G01X59794D01*
X57363Y45376D02*
G01X57441Y45298D01*
X63500Y37428D02*
G01Y39755D01*
X39623Y61290D02*
G01X41947Y63614D01*
Y66315*
X43728Y68097*
Y69042*
X35323Y70275D02*
G01X36774Y71726D01*
Y74788D02*
G01X39028Y77042D01*
X35323Y69190D02*
G01Y70275D01*
X36774Y71726D02*
G01Y74788D01*
X61796Y135749D02*
G01X62344Y135200D01*
X58716Y135749D02*
G01X61796D01*
X59994Y132695D02*
G01X66100D01*
X58006Y130707D02*
G01X59994Y132695D01*
X106431Y139900D02*
G01X110400Y135931D01*
X50518Y130707D02*
G01X58006D01*
X25812Y87600D02*
G01X27757D01*
X25712Y87500D02*
G01X25812Y87600D01*
X27757D02*
G01X27857Y87700D01*
X32860Y81760D02*
G01X36092Y84992D01*
Y92054*
X32860Y79461D02*
G01Y81760D01*
X30623Y77190D02*
G01Y77224D01*
X32860Y79461*
X31753Y85650D02*
G01X31863Y85540D01*
X31753Y85650D02*
G01Y87347D01*
X31400Y87700D02*
G01X31753Y87347D01*
X63500Y37428D02*
G01X66169Y34759D01*
X133193Y95709D02*
G01X135447Y97963D01*
X137098Y102576D02*
G01Y103661D01*
X135447Y100925D02*
G01X137098Y102576D01*
X135447Y97963D02*
G01Y100925D01*
X132298Y110476D02*
G01Y111561D01*
X130947Y109125D02*
G01X132298Y110476D01*
X127533Y118609D02*
G01Y119694D01*
X126147Y117223D02*
G01X127533Y118609D01*
X121013Y125137D02*
G01X122898Y127022D01*
Y127761*
X121013Y122466D02*
G01Y125137D01*
X119128Y119842D02*
G01Y120581D01*
X121013Y122466*
X98453Y40903D02*
G01X100739Y38617D01*
X100922*
X102269Y37269*
Y34759D02*
G01Y37269D01*
X97575Y41963D02*
G01X98453Y41085D01*
Y40903D02*
G01Y41085D01*
X89428Y40903D02*
G01Y41186D01*
X92080Y38800D02*
G01X93244Y37637D01*
Y34759D02*
G01Y37637D01*
X88550Y42064D02*
G01X89428Y41186D01*
Y40903D02*
G01X91530Y38800D01*
X92080*
X79525Y42064D02*
G01X80403Y41186D01*
X82689Y38717D02*
G01X82872D01*
X84219Y34859D02*
G01Y37369D01*
X80403Y41003D02*
G01Y41186D01*
Y41003D02*
G01X82689Y38717D01*
X82872D02*
G01X84219Y37369D01*
X75194Y34859D02*
G01Y37269D01*
X70500Y41963D02*
G01X71378Y41085D01*
Y41003D02*
G01Y41085D01*
Y41003D02*
G01X73714Y38667D01*
X73797*
X75194Y37269*
X51213Y50742D02*
G01X52628Y52157D01*
X51213Y47778D02*
G01Y50742D01*
X48959Y45524D02*
G01X51213Y47778D01*
X52628Y52157D02*
G01Y53242D01*
X44223Y54475D02*
G01X45774Y56026D01*
X44223Y53390D02*
G01Y54475D01*
X45774Y58888D02*
G01X48028Y61142D01*
X45774Y56026D02*
G01Y58888D01*
X32018Y99407D02*
G01X32285Y99675D01*
X39961Y100675D02*
G01X40228Y100942D01*
X32285Y99675D02*
G01X40461D01*
X36884Y107525D02*
G01X45062D01*
X36654Y107295D02*
G01X36884Y107525D01*
X44562Y108525D02*
G01X44792Y108755D01*
X41491Y115381D02*
G01X49618D01*
X40718Y116107D02*
G01X40991Y116381D01*
X49618Y115381D02*
G01X49892Y115655D01*
X53918Y124181D02*
G01X54092Y124355D01*
X45818Y123007D02*
G01X45991Y123181D01*
X54418*
X74222Y133573D02*
G01Y133781D01*
X71974Y136030D02*
G01X74222Y133781D01*
X70431Y137365D02*
G01Y139900D01*
X74222Y133573D02*
G01X75100Y132695D01*
X71766Y136030D02*
G01X71974D01*
X70431Y137365D02*
G01X71766Y136030D01*
X83222Y133573D02*
G01Y133781D01*
X79431Y137364D02*
G01Y139900D01*
X83222Y133573D02*
G01X84100Y132695D01*
X80974Y136030D02*
G01X83222Y133781D01*
X80766Y136030D02*
G01X80974D01*
X79431Y137364D02*
G01X80766Y136030D01*
X92222Y133573D02*
G01X93100Y132695D01*
X88431Y137365D02*
G01X89766Y136030D01*
X88431Y137365D02*
G01Y139900D01*
X92222Y133573D02*
G01Y133781D01*
X89974Y136030D02*
G01X92222Y133781D01*
X89766Y136030D02*
G01X89974D01*
X101222Y133573D02*
G01X102100Y132695D01*
X98974Y136030D02*
G01X101222Y133781D01*
X97431Y137365D02*
G01X98766Y136030D01*
X97431Y137365D02*
G01Y139900D01*
X101222Y133573D02*
G01Y133781D01*
X98766Y136030D02*
G01X98974D01*
X123893Y111709D02*
G01X126147Y113963D01*
Y117223*
X130947Y106063D02*
G01Y109125D01*
X128693Y103809D02*
G01X130947Y106063D01*
X130438Y74704D02*
G01X138765D01*
X139039Y74977*
X127197Y67077D02*
G01X134239D01*
X125464Y66430D02*
G01X126549D01*
X127197Y67077*
X122597Y59077D02*
G01X129539D01*
X120765Y58330D02*
G01X121850D01*
X122597Y59077*
X116264Y50430D02*
G01X116538Y50704D01*
X124565*
X124839Y50977*
G54D70*
X144763Y80127D02*
G01X144800Y80316D01*
X144763Y80126D02*
G01Y80127D01*
X143767Y78135D02*
G01X143765Y78132D01*
X126413Y48446D02*
G01X126395Y48417D01*
X125636Y47103D02*
G01X125589Y46993D01*
X125469Y46707D02*
G01X125589Y46993D01*
X127895Y50647D02*
G01X127914Y50676D01*
X122386Y43861D02*
G01X123333Y43738D01*
X124091Y44320*
X121914Y44131D02*
G01X121314Y44052D01*
X144356Y79155D02*
G01X144384Y79211D01*
X144763Y80126D02*
G01Y80127D01*
X144384Y79211D02*
G01X144763Y80126D01*
X143767Y78135D02*
G01X144356Y79155D01*
X135217Y63326D02*
G01X143765Y78132D01*
X125636Y47103D02*
G01X126395Y48417D01*
X124091Y44320D02*
G01X125469Y46707D01*
X127914Y50676D02*
G01X135217Y63326D01*
X126413Y48446D02*
G01X127895Y50647D01*
X121914Y44131D02*
G01X122386Y43861D01*
X120339Y43077D02*
G01X121314Y44052D01*
X144800Y80316D02*
G01Y81800D01*
G54D24*
X247921Y138601D02*
G01X248891Y138106D01*
X249152Y138059*
X249805Y138029D02*
G01X249768Y138031D01*
X197627Y136890D02*
G01X197809Y135975D01*
X198327Y135200*
X163220Y91707D02*
G01X163011Y91867D01*
X166384Y89164D02*
G01X165877Y90062D01*
X164910Y90421*
X164218Y90709D02*
G01X164910Y90421D01*
X274027Y86444D02*
G01X274859Y86100D01*
X249152Y138059D02*
G01X249768Y138031D01*
X247507Y138955D02*
G01X247921Y138601D01*
X249805Y138029D02*
G01X251081Y137934D01*
X251913*
X198171Y135200D02*
G01X198327D01*
X197627Y136890D02*
G01Y139500D01*
X162527Y92000D02*
G01X163011Y91867D01*
X166384Y89164D02*
G01X166507Y88420D01*
X163220Y91707D02*
G01X164218Y90709D01*
X166507Y88420D02*
G01X167227Y87700D01*
X274327Y86900D02*
G01X274405Y86822D01*
X274859Y86100D02*
G01X277455D01*
X271021Y87694D02*
G01X273023Y89696D01*
X273989Y90254D02*
G01X274568Y90833D01*
Y92703*
X273023Y89696D02*
G01X273989Y90254D01*
X271021Y82559D02*
G01Y87694D01*
X274568Y92703D02*
G01X277425Y95561D01*
X280327Y90000D02*
G01X280612Y89715D01*
Y86487D02*
G01Y89715D01*
Y86487D02*
G01X280999Y86100D01*
X242427Y41963D02*
G01X246827Y37563D01*
Y35400D02*
G01Y37563D01*
X250943Y36949D02*
G01X253576D01*
X255327Y38700*
X246727Y42801D02*
G01Y43000D01*
X248911Y39851D02*
G01Y40617D01*
X246727Y42801D02*
G01X248911Y40617D01*
X250141Y133938D02*
G01Y134866D01*
X248937Y132734D02*
G01X250141Y133938D01*
X248937Y132510D02*
G01Y132734D01*
X248827Y132400D02*
G01X248937Y132510D01*
X246227Y131145D02*
G01Y135931D01*
Y131145D02*
G01X249463Y127909D01*
X250320*
X195621Y45298D02*
G01X199118Y41800D01*
Y39964D02*
G01X199327Y39755D01*
X199118Y39964D02*
G01Y41800D01*
X193268Y45298D02*
G01X195621D01*
X193190Y45376D02*
G01X193268Y45298D01*
X199327Y37428D02*
G01Y39755D01*
X175450Y61290D02*
G01X177774Y63614D01*
Y66315*
X179555Y68097*
Y69042*
X171150Y70275D02*
G01X172601Y71726D01*
Y74788D02*
G01X174855Y77042D01*
X171150Y69190D02*
G01Y70275D01*
X172601Y71726D02*
G01Y74788D01*
X197623Y135749D02*
G01X198171Y135200D01*
X194543Y135749D02*
G01X197623D01*
X195821Y132695D02*
G01X201927D01*
X193833Y130707D02*
G01X195821Y132695D01*
X242258Y139900D02*
G01X246227Y135931D01*
X186345Y130707D02*
G01X193833D01*
X161639Y87600D02*
G01X163584D01*
X161539Y87500D02*
G01X161639Y87600D01*
X163584D02*
G01X163684Y87700D01*
X168687Y81760D02*
G01X171919Y84992D01*
Y92054*
X168687Y79461D02*
G01Y81760D01*
X166450Y77190D02*
G01Y77224D01*
X168687Y79461*
X167580Y85650D02*
G01X167690Y85540D01*
X167580Y85650D02*
G01Y87347D01*
X167227Y87700D02*
G01X167580Y87347D01*
X199327Y37428D02*
G01X201996Y34759D01*
X269020Y95709D02*
G01X271274Y97963D01*
X272925Y102576D02*
G01Y103661D01*
X271274Y100925D02*
G01X272925Y102576D01*
X271274Y97963D02*
G01Y100925D01*
X268125Y110476D02*
G01Y111561D01*
X266774Y109125D02*
G01X268125Y110476D01*
X263360Y118609D02*
G01Y119694D01*
X261974Y117223D02*
G01X263360Y118609D01*
X256840Y125137D02*
G01X258725Y127022D01*
Y127761*
X256840Y122466D02*
G01Y125137D01*
X254955Y119842D02*
G01Y120581D01*
X256840Y122466*
X234280Y40903D02*
G01X236566Y38617D01*
X236749*
X238096Y37269*
Y34759D02*
G01Y37269D01*
X233402Y41963D02*
G01X234280Y41085D01*
Y40903D02*
G01Y41085D01*
X225255Y40903D02*
G01Y41186D01*
X227907Y38800D02*
G01X229071Y37637D01*
Y34759D02*
G01Y37637D01*
X224377Y42064D02*
G01X225255Y41186D01*
Y40903D02*
G01X227357Y38800D01*
X227907*
X215352Y42064D02*
G01X216230Y41186D01*
X218516Y38717D02*
G01X218699D01*
X220046Y34859D02*
G01Y37369D01*
X216230Y41003D02*
G01Y41186D01*
Y41003D02*
G01X218516Y38717D01*
X218699D02*
G01X220046Y37369D01*
X211021Y34859D02*
G01Y37269D01*
X206327Y41963D02*
G01X207205Y41085D01*
Y41003D02*
G01Y41085D01*
Y41003D02*
G01X209541Y38667D01*
X209624*
X211021Y37269*
X187040Y50742D02*
G01X188455Y52157D01*
X187040Y47778D02*
G01Y50742D01*
X184786Y45524D02*
G01X187040Y47778D01*
X188455Y52157D02*
G01Y53242D01*
X180050Y54475D02*
G01X181601Y56026D01*
X180050Y53390D02*
G01Y54475D01*
X181601Y58888D02*
G01X183855Y61142D01*
X181601Y56026D02*
G01Y58888D01*
X167845Y99407D02*
G01X168112Y99675D01*
X175788Y100675D02*
G01X176055Y100942D01*
X168112Y99675D02*
G01X176288D01*
X172711Y107525D02*
G01X180889D01*
X172481Y107295D02*
G01X172711Y107525D01*
X180389Y108525D02*
G01X180619Y108755D01*
X177318Y115381D02*
G01X185445D01*
X176545Y116107D02*
G01X176818Y116381D01*
X185445Y115381D02*
G01X185719Y115655D01*
X189745Y124181D02*
G01X189919Y124355D01*
X181645Y123007D02*
G01X181818Y123181D01*
X190245*
X210049Y133573D02*
G01Y133781D01*
X207801Y136030D02*
G01X210049Y133781D01*
X206258Y137365D02*
G01Y139900D01*
X210049Y133573D02*
G01X210927Y132695D01*
X207593Y136030D02*
G01X207801D01*
X206258Y137365D02*
G01X207593Y136030D01*
X219049Y133573D02*
G01Y133781D01*
X215258Y137364D02*
G01Y139900D01*
X219049Y133573D02*
G01X219927Y132695D01*
X216801Y136030D02*
G01X219049Y133781D01*
X216593Y136030D02*
G01X216801D01*
X215258Y137364D02*
G01X216593Y136030D01*
X228049Y133573D02*
G01X228927Y132695D01*
X224258Y137365D02*
G01X225593Y136030D01*
X224258Y137365D02*
G01Y139900D01*
X228049Y133573D02*
G01Y133781D01*
X225801Y136030D02*
G01X228049Y133781D01*
X225593Y136030D02*
G01X225801D01*
X237049Y133573D02*
G01X237927Y132695D01*
X234801Y136030D02*
G01X237049Y133781D01*
X233258Y137365D02*
G01X234593Y136030D01*
X233258Y137365D02*
G01Y139900D01*
X237049Y133573D02*
G01Y133781D01*
X234593Y136030D02*
G01X234801D01*
X259720Y111709D02*
G01X261974Y113963D01*
Y117223*
X266774Y106063D02*
G01Y109125D01*
X264520Y103809D02*
G01X266774Y106063D01*
X266265Y74704D02*
G01X274592D01*
X274866Y74977*
X263024Y67077D02*
G01X270066D01*
X261291Y66430D02*
G01X262376D01*
X263024Y67077*
X258424Y59077D02*
G01X265366D01*
X256592Y58330D02*
G01X257677D01*
X258424Y59077*
X252091Y50430D02*
G01X252365Y50704D01*
X260392*
X260666Y50977*
G54D70*
X280590Y80127D02*
G01X280627Y80316D01*
X280590Y80126D02*
G01Y80127D01*
X279594Y78135D02*
G01X279592Y78132D01*
X262240Y48446D02*
G01X262222Y48417D01*
X261463Y47103D02*
G01X261416Y46993D01*
X261296Y46707D02*
G01X261416Y46993D01*
X263722Y50647D02*
G01X263741Y50676D01*
X258213Y43861D02*
G01X259160Y43738D01*
X259918Y44320*
X257741Y44131D02*
G01X257141Y44052D01*
X280183Y79155D02*
G01X280211Y79211D01*
X280590Y80126D02*
G01Y80127D01*
X280211Y79211D02*
G01X280590Y80126D01*
X279594Y78135D02*
G01X280183Y79155D01*
X271044Y63326D02*
G01X279592Y78132D01*
X261463Y47103D02*
G01X262222Y48417D01*
X259918Y44320D02*
G01X261296Y46707D01*
X263741Y50676D02*
G01X271044Y63326D01*
X262240Y48446D02*
G01X263722Y50647D01*
X257741Y44131D02*
G01X258213Y43861D01*
X256166Y43077D02*
G01X257141Y44052D01*
X280627Y80316D02*
G01Y81800D01*
G54D24*
X112094Y264585D02*
G01X113064Y264090D01*
X113325Y264043*
X113978Y264013D02*
G01X113941Y264015D01*
X61800Y262874D02*
G01X61982Y261959D01*
X62500Y261184*
X27393Y217691D02*
G01X27184Y217851D01*
X30557Y215148D02*
G01X30050Y216046D01*
X29083Y216405*
X28391Y216693D02*
G01X29083Y216405D01*
X138200Y212428D02*
G01X139032Y212084D01*
X113325Y264043D02*
G01X113941Y264015D01*
X111680Y264939D02*
G01X112094Y264585D01*
X113978Y264013D02*
G01X115254Y263918D01*
X116086*
X62344Y261184D02*
G01X62500D01*
X61800Y262874D02*
G01Y265484D01*
X26700Y217984D02*
G01X27184Y217851D01*
X30557Y215148D02*
G01X30680Y214404D01*
X27393Y217691D02*
G01X28391Y216693D01*
X30680Y214404D02*
G01X31400Y213684D01*
X138500Y212884D02*
G01X138578Y212806D01*
X139032Y212084D02*
G01X141628D01*
X135194Y213678D02*
G01X137196Y215680D01*
X138162Y216238D02*
G01X138741Y216817D01*
Y218687*
X137196Y215680D02*
G01X138162Y216238D01*
X135194Y208543D02*
G01Y213678D01*
X138741Y218687D02*
G01X141598Y221545D01*
X144500Y215984D02*
G01X144785Y215699D01*
Y212471D02*
G01Y215699D01*
Y212471D02*
G01X145172Y212084D01*
X106600Y167947D02*
G01X111000Y163547D01*
Y161384D02*
G01Y163547D01*
X115116Y162933D02*
G01X117749D01*
X119500Y164684*
X110900Y168785D02*
G01Y168984D01*
X113084Y165835D02*
G01Y166601D01*
X110900Y168785D02*
G01X113084Y166601D01*
X114314Y259922D02*
G01Y260850D01*
X113110Y258718D02*
G01X114314Y259922D01*
X113110Y258494D02*
G01Y258718D01*
X113000Y258384D02*
G01X113110Y258494D01*
X110400Y257129D02*
G01Y261915D01*
Y257129D02*
G01X113636Y253893D01*
X114493*
X59794Y171282D02*
G01X63291Y167784D01*
Y165948D02*
G01X63500Y165739D01*
X63291Y165948D02*
G01Y167784D01*
X57441Y171282D02*
G01X59794D01*
X57363Y171360D02*
G01X57441Y171282D01*
X63500Y163412D02*
G01Y165739D01*
X39623Y187274D02*
G01X41947Y189598D01*
Y192299*
X43728Y194081*
Y195026*
X35323Y196259D02*
G01X36774Y197710D01*
Y200772D02*
G01X39028Y203026D01*
X35323Y195174D02*
G01Y196259D01*
X36774Y197710D02*
G01Y200772D01*
X61796Y261733D02*
G01X62344Y261184D01*
X58716Y261733D02*
G01X61796D01*
X59994Y258679D02*
G01X66100D01*
X58006Y256691D02*
G01X59994Y258679D01*
X106431Y265884D02*
G01X110400Y261915D01*
X50518Y256691D02*
G01X58006D01*
X25812Y213584D02*
G01X27757D01*
X25712Y213484D02*
G01X25812Y213584D01*
X27757D02*
G01X27857Y213684D01*
X32860Y207744D02*
G01X36092Y210976D01*
Y218038*
X32860Y205445D02*
G01Y207744D01*
X30623Y203174D02*
G01Y203208D01*
X32860Y205445*
X31753Y211634D02*
G01X31863Y211524D01*
X31753Y211634D02*
G01Y213331D01*
X31400Y213684D02*
G01X31753Y213331D01*
X63500Y163412D02*
G01X66169Y160743D01*
X133193Y221693D02*
G01X135447Y223947D01*
X137098Y228560D02*
G01Y229645D01*
X135447Y226909D02*
G01X137098Y228560D01*
X135447Y223947D02*
G01Y226909D01*
X132298Y236460D02*
G01Y237545D01*
X130947Y235109D02*
G01X132298Y236460D01*
X127533Y244593D02*
G01Y245678D01*
X126147Y243207D02*
G01X127533Y244593D01*
X121013Y251121D02*
G01X122898Y253006D01*
Y253745*
X121013Y248450D02*
G01Y251121D01*
X119128Y245826D02*
G01Y246565D01*
X121013Y248450*
X98453Y166887D02*
G01X100739Y164601D01*
X100922*
X102269Y163253*
Y160743D02*
G01Y163253D01*
X97575Y167947D02*
G01X98453Y167069D01*
Y166887D02*
G01Y167069D01*
X89428Y166887D02*
G01Y167170D01*
X92080Y164784D02*
G01X93244Y163621D01*
Y160743D02*
G01Y163621D01*
X88550Y168048D02*
G01X89428Y167170D01*
Y166887D02*
G01X91530Y164784D01*
X92080*
X79525Y168048D02*
G01X80403Y167170D01*
X82689Y164701D02*
G01X82872D01*
X84219Y160843D02*
G01Y163353D01*
X80403Y166987D02*
G01Y167170D01*
Y166987D02*
G01X82689Y164701D01*
X82872D02*
G01X84219Y163353D01*
X75194Y160843D02*
G01Y163253D01*
X70500Y167947D02*
G01X71378Y167069D01*
Y166987D02*
G01Y167069D01*
Y166987D02*
G01X73714Y164651D01*
X73797*
X75194Y163253*
X51213Y176726D02*
G01X52628Y178141D01*
X51213Y173762D02*
G01Y176726D01*
X48959Y171508D02*
G01X51213Y173762D01*
X52628Y178141D02*
G01Y179226D01*
X44223Y180459D02*
G01X45774Y182010D01*
X44223Y179374D02*
G01Y180459D01*
X45774Y184872D02*
G01X48028Y187126D01*
X45774Y182010D02*
G01Y184872D01*
X32018Y225391D02*
G01X32285Y225659D01*
X39961Y226659D02*
G01X40228Y226926D01*
X32285Y225659D02*
G01X40461D01*
X36884Y233509D02*
G01X45062D01*
X36654Y233279D02*
G01X36884Y233509D01*
X44562Y234509D02*
G01X44792Y234739D01*
X41491Y241365D02*
G01X49618D01*
X40718Y242091D02*
G01X40991Y242365D01*
X49618Y241365D02*
G01X49892Y241639D01*
X53918Y250165D02*
G01X54092Y250339D01*
X45818Y248991D02*
G01X45991Y249165D01*
X54418*
X74222Y259557D02*
G01Y259765D01*
X71974Y262014D02*
G01X74222Y259765D01*
X70431Y263349D02*
G01Y265884D01*
X74222Y259557D02*
G01X75100Y258679D01*
X71766Y262014D02*
G01X71974D01*
X70431Y263349D02*
G01X71766Y262014D01*
X83222Y259557D02*
G01Y259765D01*
X79431Y263348D02*
G01Y265884D01*
X83222Y259557D02*
G01X84100Y258679D01*
X80974Y262014D02*
G01X83222Y259765D01*
X80766Y262014D02*
G01X80974D01*
X79431Y263348D02*
G01X80766Y262014D01*
X92222Y259557D02*
G01X93100Y258679D01*
X88431Y263349D02*
G01X89766Y262014D01*
X88431Y263349D02*
G01Y265884D01*
X92222Y259557D02*
G01Y259765D01*
X89974Y262014D02*
G01X92222Y259765D01*
X89766Y262014D02*
G01X89974D01*
X101222Y259557D02*
G01X102100Y258679D01*
X98974Y262014D02*
G01X101222Y259765D01*
X97431Y263349D02*
G01X98766Y262014D01*
X97431Y263349D02*
G01Y265884D01*
X101222Y259557D02*
G01Y259765D01*
X98766Y262014D02*
G01X98974D01*
X123893Y237693D02*
G01X126147Y239947D01*
Y243207*
X130947Y232047D02*
G01Y235109D01*
X128693Y229793D02*
G01X130947Y232047D01*
X130438Y200688D02*
G01X138765D01*
X139039Y200961*
X127197Y193061D02*
G01X134239D01*
X125464Y192414D02*
G01X126549D01*
X127197Y193061*
X122597Y185061D02*
G01X129539D01*
X120765Y184314D02*
G01X121850D01*
X122597Y185061*
X116264Y176414D02*
G01X116538Y176688D01*
X124565*
X124839Y176961*
G54D70*
X144763Y206111D02*
G01X144800Y206300D01*
X144763Y206110D02*
G01Y206111D01*
X143767Y204119D02*
G01X143765Y204116D01*
X126413Y174430D02*
G01X126395Y174401D01*
X125636Y173087D02*
G01X125589Y172977D01*
X125469Y172691D02*
G01X125589Y172977D01*
X127895Y176631D02*
G01X127914Y176660D01*
X122386Y169845D02*
G01X123333Y169722D01*
X124091Y170304*
X121914Y170115D02*
G01X121314Y170036D01*
X144356Y205139D02*
G01X144384Y205195D01*
X144763Y206110D02*
G01Y206111D01*
X144384Y205195D02*
G01X144763Y206110D01*
X143767Y204119D02*
G01X144356Y205139D01*
X135217Y189310D02*
G01X143765Y204116D01*
X125636Y173087D02*
G01X126395Y174401D01*
X124091Y170304D02*
G01X125469Y172691D01*
X127914Y176660D02*
G01X135217Y189310D01*
X126413Y174430D02*
G01X127895Y176631D01*
X121914Y170115D02*
G01X122386Y169845D01*
X120339Y169061D02*
G01X121314Y170036D01*
X144800Y206300D02*
G01Y207784D01*
G54D24*
X247921Y264585D02*
G01X248891Y264090D01*
X249152Y264043*
X249805Y264013D02*
G01X249768Y264015D01*
X197627Y262874D02*
G01X197809Y261959D01*
X198327Y261184*
X163220Y217691D02*
G01X163011Y217851D01*
X166384Y215148D02*
G01X165877Y216046D01*
X164910Y216405*
X164218Y216693D02*
G01X164910Y216405D01*
X274027Y212428D02*
G01X274859Y212084D01*
X249152Y264043D02*
G01X249768Y264015D01*
X247507Y264939D02*
G01X247921Y264585D01*
X249805Y264013D02*
G01X251081Y263918D01*
X251913*
X198171Y261184D02*
G01X198327D01*
X197627Y262874D02*
G01Y265484D01*
X162527Y217984D02*
G01X163011Y217851D01*
X166384Y215148D02*
G01X166507Y214404D01*
X163220Y217691D02*
G01X164218Y216693D01*
X166507Y214404D02*
G01X167227Y213684D01*
X274327Y212884D02*
G01X274405Y212806D01*
X274859Y212084D02*
G01X277455D01*
X271021Y213678D02*
G01X273023Y215680D01*
X273989Y216238D02*
G01X274568Y216817D01*
Y218687*
X273023Y215680D02*
G01X273989Y216238D01*
X271021Y208543D02*
G01Y213678D01*
X274568Y218687D02*
G01X277425Y221545D01*
X280327Y215984D02*
G01X280612Y215699D01*
Y212471D02*
G01Y215699D01*
Y212471D02*
G01X280999Y212084D01*
X242427Y167947D02*
G01X246827Y163547D01*
Y161384D02*
G01Y163547D01*
X250943Y162933D02*
G01X253576D01*
X255327Y164684*
X246727Y168785D02*
G01Y168984D01*
X248911Y165835D02*
G01Y166601D01*
X246727Y168785D02*
G01X248911Y166601D01*
X250141Y259922D02*
G01Y260850D01*
X248937Y258718D02*
G01X250141Y259922D01*
X248937Y258494D02*
G01Y258718D01*
X248827Y258384D02*
G01X248937Y258494D01*
X246227Y257129D02*
G01Y261915D01*
Y257129D02*
G01X249463Y253893D01*
X250320*
X195621Y171282D02*
G01X199118Y167784D01*
Y165948D02*
G01X199327Y165739D01*
X199118Y165948D02*
G01Y167784D01*
X193268Y171282D02*
G01X195621D01*
X193190Y171360D02*
G01X193268Y171282D01*
X199327Y163412D02*
G01Y165739D01*
X175450Y187274D02*
G01X177774Y189598D01*
Y192299*
X179555Y194081*
Y195026*
X171150Y196259D02*
G01X172601Y197710D01*
Y200772D02*
G01X174855Y203026D01*
X171150Y195174D02*
G01Y196259D01*
X172601Y197710D02*
G01Y200772D01*
X197623Y261733D02*
G01X198171Y261184D01*
X194543Y261733D02*
G01X197623D01*
X195821Y258679D02*
G01X201927D01*
X193833Y256691D02*
G01X195821Y258679D01*
X242258Y265884D02*
G01X246227Y261915D01*
X186345Y256691D02*
G01X193833D01*
X161639Y213584D02*
G01X163584D01*
X161539Y213484D02*
G01X161639Y213584D01*
X163584D02*
G01X163684Y213684D01*
X168687Y207744D02*
G01X171919Y210976D01*
Y218038*
X168687Y205445D02*
G01Y207744D01*
X166450Y203174D02*
G01Y203208D01*
X168687Y205445*
X167580Y211634D02*
G01X167690Y211524D01*
X167580Y211634D02*
G01Y213331D01*
X167227Y213684D02*
G01X167580Y213331D01*
X199327Y163412D02*
G01X201996Y160743D01*
X269020Y221693D02*
G01X271274Y223947D01*
X272925Y228560D02*
G01Y229645D01*
X271274Y226909D02*
G01X272925Y228560D01*
X271274Y223947D02*
G01Y226909D01*
X268125Y236460D02*
G01Y237545D01*
X266774Y235109D02*
G01X268125Y236460D01*
X263360Y244593D02*
G01Y245678D01*
X261974Y243207D02*
G01X263360Y244593D01*
X256840Y251121D02*
G01X258725Y253006D01*
Y253745*
X256840Y248450D02*
G01Y251121D01*
X254955Y245826D02*
G01Y246565D01*
X256840Y248450*
X234280Y166887D02*
G01X236566Y164601D01*
X236749*
X238096Y163253*
Y160743D02*
G01Y163253D01*
X233402Y167947D02*
G01X234280Y167069D01*
Y166887D02*
G01Y167069D01*
X225255Y166887D02*
G01Y167170D01*
X227907Y164784D02*
G01X229071Y163621D01*
Y160743D02*
G01Y163621D01*
X224377Y168048D02*
G01X225255Y167170D01*
Y166887D02*
G01X227357Y164784D01*
X227907*
X215352Y168048D02*
G01X216230Y167170D01*
X218516Y164701D02*
G01X218699D01*
X220046Y160843D02*
G01Y163353D01*
X216230Y166987D02*
G01Y167170D01*
Y166987D02*
G01X218516Y164701D01*
X218699D02*
G01X220046Y163353D01*
X211021Y160843D02*
G01Y163253D01*
X206327Y167947D02*
G01X207205Y167069D01*
Y166987D02*
G01Y167069D01*
Y166987D02*
G01X209541Y164651D01*
X209624*
X211021Y163253*
X187040Y176726D02*
G01X188455Y178141D01*
X187040Y173762D02*
G01Y176726D01*
X184786Y171508D02*
G01X187040Y173762D01*
X188455Y178141D02*
G01Y179226D01*
X180050Y180459D02*
G01X181601Y182010D01*
X180050Y179374D02*
G01Y180459D01*
X181601Y184872D02*
G01X183855Y187126D01*
X181601Y182010D02*
G01Y184872D01*
X167845Y225391D02*
G01X168112Y225659D01*
X175788Y226659D02*
G01X176055Y226926D01*
X168112Y225659D02*
G01X176288D01*
X172711Y233509D02*
G01X180889D01*
X172481Y233279D02*
G01X172711Y233509D01*
X180389Y234509D02*
G01X180619Y234739D01*
X177318Y241365D02*
G01X185445D01*
X176545Y242091D02*
G01X176818Y242365D01*
X185445Y241365D02*
G01X185719Y241639D01*
X189745Y250165D02*
G01X189919Y250339D01*
X181645Y248991D02*
G01X181818Y249165D01*
X190245*
X210049Y259557D02*
G01Y259765D01*
X207801Y262014D02*
G01X210049Y259765D01*
X206258Y263349D02*
G01Y265884D01*
X210049Y259557D02*
G01X210927Y258679D01*
X207593Y262014D02*
G01X207801D01*
X206258Y263349D02*
G01X207593Y262014D01*
X219049Y259557D02*
G01Y259765D01*
X215258Y263348D02*
G01Y265884D01*
X219049Y259557D02*
G01X219927Y258679D01*
X216801Y262014D02*
G01X219049Y259765D01*
X216593Y262014D02*
G01X216801D01*
X215258Y263348D02*
G01X216593Y262014D01*
X228049Y259557D02*
G01X228927Y258679D01*
X224258Y263349D02*
G01X225593Y262014D01*
X224258Y263349D02*
G01Y265884D01*
X228049Y259557D02*
G01Y259765D01*
X225801Y262014D02*
G01X228049Y259765D01*
X225593Y262014D02*
G01X225801D01*
X237049Y259557D02*
G01X237927Y258679D01*
X234801Y262014D02*
G01X237049Y259765D01*
X233258Y263349D02*
G01X234593Y262014D01*
X233258Y263349D02*
G01Y265884D01*
X237049Y259557D02*
G01Y259765D01*
X234593Y262014D02*
G01X234801D01*
X259720Y237693D02*
G01X261974Y239947D01*
Y243207*
X266774Y232047D02*
G01Y235109D01*
X264520Y229793D02*
G01X266774Y232047D01*
X266265Y200688D02*
G01X274592D01*
X274866Y200961*
X263024Y193061D02*
G01X270066D01*
X261291Y192414D02*
G01X262376D01*
X263024Y193061*
X258424Y185061D02*
G01X265366D01*
X256592Y184314D02*
G01X257677D01*
X258424Y185061*
X252091Y176414D02*
G01X252365Y176688D01*
X260392*
X260666Y176961*
G54D70*
X280590Y206111D02*
G01X280627Y206300D01*
X280590Y206110D02*
G01Y206111D01*
X279594Y204119D02*
G01X279592Y204116D01*
X262240Y174430D02*
G01X262222Y174401D01*
X261463Y173087D02*
G01X261416Y172977D01*
X261296Y172691D02*
G01X261416Y172977D01*
X263722Y176631D02*
G01X263741Y176660D01*
X258213Y169845D02*
G01X259160Y169722D01*
X259918Y170304*
X257741Y170115D02*
G01X257141Y170036D01*
X280183Y205139D02*
G01X280211Y205195D01*
X280590Y206110D02*
G01Y206111D01*
X280211Y205195D02*
G01X280590Y206110D01*
X279594Y204119D02*
G01X280183Y205139D01*
X271044Y189310D02*
G01X279592Y204116D01*
X261463Y173087D02*
G01X262222Y174401D01*
X259918Y170304D02*
G01X261296Y172691D01*
X263741Y176660D02*
G01X271044Y189310D01*
X262240Y174430D02*
G01X263722Y176631D01*
X257741Y170115D02*
G01X258213Y169845D01*
X256166Y169061D02*
G01X257141Y170036D01*
X280627Y206300D02*
G01Y207784D01*
M02*
