G04 CAM350 V9.5.1 (Build 211) Date:  Sun Feb 09 09:32:50 2025 *
G04 Database: G:\2025-02-01  ºÏÆ´  ºÚÄ¤\2025-02-01-116\1.cam *
G04 Layer 1: GTO *
%FSLAX35Y35*%
%MOIN*%
%SFA1.000B1.000*%

%MIA0B0*%
%IPPOS*%
%ADD53C,0.00300*%
%ADD79C,0.00787*%
%ADD80C,0.00433*%
%LNGTO*%
%LPD*%
G54D53*
X100879Y32143D02*
G01X100776Y32217D01*
X121909Y40565D02*
G01X121794Y40513D01*
X126409Y48465D02*
G01X126294Y48413D01*
X131109Y56565D02*
G01X130994Y56513D01*
X135809Y64565D02*
G01X135694Y64513D01*
X140381Y72923D02*
G01X140266Y72871D01*
X144558Y95664D02*
G01X144545Y95539D01*
X140058Y103764D02*
G01X140045Y103639D01*
X135258Y111664D02*
G01X135246Y111539D01*
X130494Y119798D02*
G01X130481Y119672D01*
X125858Y127864D02*
G01X125846Y127739D01*
X91853Y32143D02*
G01X91751Y32217D01*
X107821Y142516D02*
G01X107924Y142442D01*
X98821Y142516D02*
G01X98924Y142442D01*
X89821Y142516D02*
G01X89924Y142442D01*
X80821Y142516D02*
G01X80924Y142442D01*
X71821Y142516D02*
G01X71924Y142442D01*
X48948Y133220D02*
G01X49063Y133271D01*
X44248Y125520D02*
G01X44363Y125571D01*
X39648Y117620D02*
G01X39763Y117671D01*
X35084Y109807D02*
G01X35199Y109859D01*
X30448Y101919D02*
G01X30563Y101971D01*
X27663Y77087D02*
G01X27676Y77212D01*
X32363Y69087D02*
G01X32375Y69212D01*
X36663Y61187D02*
G01X36676Y61312D01*
X41263Y53287D02*
G01X41275Y53412D01*
X45998Y45420D02*
G01X46011Y45546D01*
X64779Y32143D02*
G01X64676Y32217D01*
X73804Y32243D02*
G01X73701Y32317D01*
X82828Y32243D02*
G01X82726Y32317D01*
G54D79*
X100485Y37261D02*
G01X107965D01*
X117279Y42783D02*
G01X121019Y49261D01*
X121779Y50683D02*
G01X125520Y57161D01*
X126479Y58783D02*
G01X130219Y65261D01*
X131179Y66783D02*
G01X134920Y73261D01*
X135751Y75141D02*
G01X139491Y81619D01*
X136583Y99242D02*
G01X140323Y92764D01*
X132082Y107342D02*
G01X135823Y100864D01*
X127283Y115242D02*
G01X131023Y108764D01*
X122518Y123376D02*
G01X126258Y116898D01*
X117883Y131442D02*
G01X121623Y124964D01*
X91460Y37261D02*
G01X98940D01*
X100735Y137398D02*
G01X108215D01*
X91735D02*
G01X99215D01*
X82735D02*
G01X90215D01*
X73735D02*
G01X81215D01*
X64735D02*
G01X72215D01*
X49837Y124523D02*
G01X53577Y131001D01*
X45137Y116823D02*
G01X48877Y123301D01*
X40537Y108923D02*
G01X44277Y115401D01*
X35973Y101111D02*
G01X39713Y107589D01*
X31337Y93223D02*
G01X35077Y99701D01*
X31898Y79987D02*
G01X35638Y73509D01*
X36598Y71987D02*
G01X40339Y65509D01*
X40898Y64087D02*
G01X44638Y57609D01*
X45498Y56187D02*
G01X49238Y49709D01*
X50234Y48320D02*
G01X53974Y41842D01*
X64385Y37261D02*
G01X71865D01*
X73410Y37361D02*
G01X80890D01*
X82435D02*
G01X89915D01*
G54D80*
X56595Y40484D02*
G01X57579Y42189D01*
X60005Y38516D02*
G01X60989Y40220D01*
X111358Y38883D02*
G01X112487Y37271D01*
X114583Y41142D02*
G01X115712Y39529D01*
X29628Y89669D02*
G01X31597D01*
X29628Y85732D02*
G01X31597D01*
X59312Y138329D02*
G01X60442Y136717D01*
X56087Y136071D02*
G01X57217Y134458D01*
X115920Y133711D02*
G01X116905Y135416D01*
X112511Y135679D02*
G01X113495Y137384D01*
X141431Y84131D02*
G01X143400D01*
X141431Y88068D02*
G01X143400D01*
G54D53*
X236706Y32143D02*
G01X236603Y32217D01*
X257736Y40565D02*
G01X257621Y40513D01*
X262236Y48465D02*
G01X262121Y48413D01*
X266936Y56565D02*
G01X266821Y56513D01*
X271636Y64565D02*
G01X271521Y64513D01*
X276208Y72923D02*
G01X276093Y72871D01*
X280385Y95664D02*
G01X280372Y95539D01*
X275885Y103764D02*
G01X275872Y103639D01*
X271085Y111664D02*
G01X271073Y111539D01*
X266321Y119798D02*
G01X266308Y119672D01*
X261685Y127864D02*
G01X261673Y127739D01*
X227680Y32143D02*
G01X227578Y32217D01*
X243648Y142516D02*
G01X243751Y142442D01*
X234648Y142516D02*
G01X234751Y142442D01*
X225648Y142516D02*
G01X225751Y142442D01*
X216648Y142516D02*
G01X216751Y142442D01*
X207648Y142516D02*
G01X207751Y142442D01*
X184775Y133220D02*
G01X184890Y133271D01*
X180075Y125520D02*
G01X180190Y125571D01*
X175475Y117620D02*
G01X175590Y117671D01*
X170911Y109807D02*
G01X171026Y109859D01*
X166275Y101919D02*
G01X166390Y101971D01*
X163490Y77087D02*
G01X163503Y77212D01*
X168190Y69087D02*
G01X168202Y69212D01*
X172490Y61187D02*
G01X172503Y61312D01*
X177090Y53287D02*
G01X177102Y53412D01*
X181825Y45420D02*
G01X181838Y45546D01*
X200606Y32143D02*
G01X200503Y32217D01*
X209631Y32243D02*
G01X209528Y32317D01*
X218655Y32243D02*
G01X218553Y32317D01*
G54D79*
X236312Y37261D02*
G01X243792D01*
X253106Y42783D02*
G01X256846Y49261D01*
X257606Y50683D02*
G01X261347Y57161D01*
X262306Y58783D02*
G01X266046Y65261D01*
X267006Y66783D02*
G01X270747Y73261D01*
X271578Y75141D02*
G01X275318Y81619D01*
X272410Y99242D02*
G01X276150Y92764D01*
X267909Y107342D02*
G01X271650Y100864D01*
X263110Y115242D02*
G01X266850Y108764D01*
X258345Y123376D02*
G01X262085Y116898D01*
X253710Y131442D02*
G01X257450Y124964D01*
X227287Y37261D02*
G01X234767D01*
X236562Y137398D02*
G01X244042D01*
X227562D02*
G01X235042D01*
X218562D02*
G01X226042D01*
X209562D02*
G01X217042D01*
X200562D02*
G01X208042D01*
X185664Y124523D02*
G01X189404Y131001D01*
X180964Y116823D02*
G01X184704Y123301D01*
X176364Y108923D02*
G01X180104Y115401D01*
X171800Y101111D02*
G01X175540Y107589D01*
X167164Y93223D02*
G01X170904Y99701D01*
X167725Y79987D02*
G01X171465Y73509D01*
X172425Y71987D02*
G01X176166Y65509D01*
X176725Y64087D02*
G01X180465Y57609D01*
X181325Y56187D02*
G01X185065Y49709D01*
X186061Y48320D02*
G01X189801Y41842D01*
X200212Y37261D02*
G01X207692D01*
X209237Y37361D02*
G01X216717D01*
X218262D02*
G01X225742D01*
G54D80*
X192422Y40484D02*
G01X193406Y42189D01*
X195832Y38516D02*
G01X196816Y40220D01*
X247185Y38883D02*
G01X248314Y37271D01*
X250410Y41142D02*
G01X251539Y39529D01*
X165455Y89669D02*
G01X167424D01*
X165455Y85732D02*
G01X167424D01*
X195139Y138329D02*
G01X196269Y136717D01*
X191914Y136071D02*
G01X193044Y134458D01*
X251747Y133711D02*
G01X252732Y135416D01*
X248338Y135679D02*
G01X249322Y137384D01*
X277258Y84131D02*
G01X279227D01*
X277258Y88068D02*
G01X279227D01*
G54D53*
X100879Y158127D02*
G01X100776Y158201D01*
X121909Y166549D02*
G01X121794Y166497D01*
X126409Y174449D02*
G01X126294Y174397D01*
X131109Y182549D02*
G01X130994Y182497D01*
X135809Y190549D02*
G01X135694Y190497D01*
X140381Y198907D02*
G01X140266Y198855D01*
X144558Y221648D02*
G01X144545Y221523D01*
X140058Y229748D02*
G01X140045Y229623D01*
X135258Y237648D02*
G01X135246Y237523D01*
X130494Y245782D02*
G01X130481Y245656D01*
X125858Y253848D02*
G01X125846Y253723D01*
X91853Y158127D02*
G01X91751Y158201D01*
X107821Y268500D02*
G01X107924Y268426D01*
X98821Y268500D02*
G01X98924Y268426D01*
X89821Y268500D02*
G01X89924Y268426D01*
X80821Y268500D02*
G01X80924Y268426D01*
X71821Y268500D02*
G01X71924Y268426D01*
X48948Y259204D02*
G01X49063Y259255D01*
X44248Y251504D02*
G01X44363Y251555D01*
X39648Y243604D02*
G01X39763Y243655D01*
X35084Y235791D02*
G01X35199Y235843D01*
X30448Y227903D02*
G01X30563Y227955D01*
X27663Y203071D02*
G01X27676Y203196D01*
X32363Y195071D02*
G01X32375Y195196D01*
X36663Y187171D02*
G01X36676Y187296D01*
X41263Y179271D02*
G01X41275Y179396D01*
X45998Y171404D02*
G01X46011Y171530D01*
X64779Y158127D02*
G01X64676Y158201D01*
X73804Y158227D02*
G01X73701Y158301D01*
X82828Y158227D02*
G01X82726Y158301D01*
G54D79*
X100485Y163245D02*
G01X107965D01*
X117279Y168767D02*
G01X121019Y175245D01*
X121779Y176667D02*
G01X125520Y183145D01*
X126479Y184767D02*
G01X130219Y191245D01*
X131179Y192767D02*
G01X134920Y199245D01*
X135751Y201125D02*
G01X139491Y207603D01*
X136583Y225226D02*
G01X140323Y218748D01*
X132082Y233326D02*
G01X135823Y226848D01*
X127283Y241226D02*
G01X131023Y234748D01*
X122518Y249360D02*
G01X126258Y242882D01*
X117883Y257426D02*
G01X121623Y250948D01*
X91460Y163245D02*
G01X98940D01*
X100735Y263382D02*
G01X108215D01*
X91735D02*
G01X99215D01*
X82735D02*
G01X90215D01*
X73735D02*
G01X81215D01*
X64735D02*
G01X72215D01*
X49837Y250507D02*
G01X53577Y256985D01*
X45137Y242807D02*
G01X48877Y249285D01*
X40537Y234907D02*
G01X44277Y241385D01*
X35973Y227095D02*
G01X39713Y233573D01*
X31337Y219207D02*
G01X35077Y225685D01*
X31898Y205971D02*
G01X35638Y199493D01*
X36598Y197971D02*
G01X40339Y191493D01*
X40898Y190071D02*
G01X44638Y183593D01*
X45498Y182171D02*
G01X49238Y175693D01*
X50234Y174304D02*
G01X53974Y167826D01*
X64385Y163245D02*
G01X71865D01*
X73410Y163345D02*
G01X80890D01*
X82435D02*
G01X89915D01*
G54D80*
X56595Y166468D02*
G01X57579Y168173D01*
X60005Y164500D02*
G01X60989Y166204D01*
X111358Y164867D02*
G01X112487Y163255D01*
X114583Y167126D02*
G01X115712Y165513D01*
X29628Y215653D02*
G01X31597D01*
X29628Y211716D02*
G01X31597D01*
X59312Y264313D02*
G01X60442Y262701D01*
X56087Y262055D02*
G01X57217Y260442D01*
X115920Y259695D02*
G01X116905Y261400D01*
X112511Y261663D02*
G01X113495Y263368D01*
X141431Y210115D02*
G01X143400D01*
X141431Y214052D02*
G01X143400D01*
G54D53*
X236706Y158127D02*
G01X236603Y158201D01*
X257736Y166549D02*
G01X257621Y166497D01*
X262236Y174449D02*
G01X262121Y174397D01*
X266936Y182549D02*
G01X266821Y182497D01*
X271636Y190549D02*
G01X271521Y190497D01*
X276208Y198907D02*
G01X276093Y198855D01*
X280385Y221648D02*
G01X280372Y221523D01*
X275885Y229748D02*
G01X275872Y229623D01*
X271085Y237648D02*
G01X271073Y237523D01*
X266321Y245782D02*
G01X266308Y245656D01*
X261685Y253848D02*
G01X261673Y253723D01*
X227680Y158127D02*
G01X227578Y158201D01*
X243648Y268500D02*
G01X243751Y268426D01*
X234648Y268500D02*
G01X234751Y268426D01*
X225648Y268500D02*
G01X225751Y268426D01*
X216648Y268500D02*
G01X216751Y268426D01*
X207648Y268500D02*
G01X207751Y268426D01*
X184775Y259204D02*
G01X184890Y259255D01*
X180075Y251504D02*
G01X180190Y251555D01*
X175475Y243604D02*
G01X175590Y243655D01*
X170911Y235791D02*
G01X171026Y235843D01*
X166275Y227903D02*
G01X166390Y227955D01*
X163490Y203071D02*
G01X163503Y203196D01*
X168190Y195071D02*
G01X168202Y195196D01*
X172490Y187171D02*
G01X172503Y187296D01*
X177090Y179271D02*
G01X177102Y179396D01*
X181825Y171404D02*
G01X181838Y171530D01*
X200606Y158127D02*
G01X200503Y158201D01*
X209631Y158227D02*
G01X209528Y158301D01*
X218655Y158227D02*
G01X218553Y158301D01*
G54D79*
X236312Y163245D02*
G01X243792D01*
X253106Y168767D02*
G01X256846Y175245D01*
X257606Y176667D02*
G01X261347Y183145D01*
X262306Y184767D02*
G01X266046Y191245D01*
X267006Y192767D02*
G01X270747Y199245D01*
X271578Y201125D02*
G01X275318Y207603D01*
X272410Y225226D02*
G01X276150Y218748D01*
X267909Y233326D02*
G01X271650Y226848D01*
X263110Y241226D02*
G01X266850Y234748D01*
X258345Y249360D02*
G01X262085Y242882D01*
X253710Y257426D02*
G01X257450Y250948D01*
X227287Y163245D02*
G01X234767D01*
X236562Y263382D02*
G01X244042D01*
X227562D02*
G01X235042D01*
X218562D02*
G01X226042D01*
X209562D02*
G01X217042D01*
X200562D02*
G01X208042D01*
X185664Y250507D02*
G01X189404Y256985D01*
X180964Y242807D02*
G01X184704Y249285D01*
X176364Y234907D02*
G01X180104Y241385D01*
X171800Y227095D02*
G01X175540Y233573D01*
X167164Y219207D02*
G01X170904Y225685D01*
X167725Y205971D02*
G01X171465Y199493D01*
X172425Y197971D02*
G01X176166Y191493D01*
X176725Y190071D02*
G01X180465Y183593D01*
X181325Y182171D02*
G01X185065Y175693D01*
X186061Y174304D02*
G01X189801Y167826D01*
X200212Y163245D02*
G01X207692D01*
X209237Y163345D02*
G01X216717D01*
X218262D02*
G01X225742D01*
G54D80*
X192422Y166468D02*
G01X193406Y168173D01*
X195832Y164500D02*
G01X196816Y166204D01*
X247185Y164867D02*
G01X248314Y163255D01*
X250410Y167126D02*
G01X251539Y165513D01*
X165455Y215653D02*
G01X167424D01*
X165455Y211716D02*
G01X167424D01*
X195139Y264313D02*
G01X196269Y262701D01*
X191914Y262055D02*
G01X193044Y260442D01*
X251747Y259695D02*
G01X252732Y261400D01*
X248338Y261663D02*
G01X249322Y263368D01*
X277258Y210115D02*
G01X279227D01*
X277258Y214052D02*
G01X279227D01*
M02*
