M48
METRIC,LZ
VER,1
FMAT,2
T01C0.2032F0B423S0H2000
DETECT,ON
ATC,ON
%
T01
X012985Y01061
X015033Y010423
X014583Y009643
X016807Y010659
X019099Y010684
X021392
X023684Y010659
X025976
X028169Y010922
X028981Y011856
X031116Y011894
X030353Y00983
X030124Y013863
X032259Y013901
X031318Y01592
X033453Y015958
X032512Y017952
X034647Y01799
X033731Y019959
X035866Y019997
X035103Y021957
X034381Y023357
X036703Y02286
X035416Y025225
X033238Y025415
X034273Y027282
X032019Y027421
X033054Y029289
X030808Y029487
X031843Y031355
X029631Y031536
X030666Y033404
X028702Y03363
X027033Y033705
X024747
X022461
X020189Y033685
X017889Y033705
X015875Y034341
X016789Y035535
X019075
X021361
X023647
X025933
X029486Y035035
X014398Y035217
X014416Y032285
X012281Y032247
X013222Y030329
X011088Y030291
X012074Y028319
X009919Y028285
X010895Y026338
X00876Y0263
X009717Y024334
X009363Y020521
X008328Y018654
X010557Y018489
X009522Y016622
X011649Y016483
X010614Y014615
X012818Y014476
X011783Y012609
X01402Y012478
X017907Y008829
X020199Y008854
X022492
X024784Y008829
X027076
X00729Y020803
X008093Y021727
X006531Y022225
X007582Y024297
X047485Y01061
X049533Y010423
X049083Y009643
X051307Y010659
X053599Y010684
X055892
X058184Y010659
X060476
X062669Y010922
X063481Y011856
X065616Y011894
X064853Y00983
X064624Y013863
X066759Y013901
X065818Y01592
X067953Y015958
X067012Y017952
X069147Y01799
X068231Y019959
X070366Y019997
X069603Y021957
X068881Y023357
X071203Y02286
X069916Y025225
X067738Y025415
X068773Y027282
X066519Y027421
X067554Y029289
X065308Y029487
X066343Y031355
X064131Y031536
X065166Y033404
X063202Y03363
X061533Y033705
X059247
X056961
X054689Y033685
X052389Y033705
X050375Y034341
X051289Y035535
X053575
X055861
X058147
X060433
X063986Y035035
X048898Y035217
X048916Y032285
X046781Y032247
X047722Y030329
X045588Y030291
X046574Y028319
X044419Y028285
X045395Y026338
X04326Y0263
X044217Y024334
X043863Y020521
X042828Y018654
X045057Y018489
X044022Y016622
X046149Y016483
X045114Y014615
X047318Y014476
X046283Y012609
X04852Y012478
X052407Y008829
X054699Y008854
X056992
X059284Y008829
X061576
X04179Y020803
X042593Y021727
X041031Y022225
X042082Y024297
X012985Y04261
X015033Y042423
X014583Y041643
X016807Y042659
X019099Y042684
X021392
X023684Y042659
X025976
X028169Y042922
X028981Y043856
X031116Y043894
X030353Y04183
X030124Y045863
X032259Y045901
X031318Y04792
X033453Y047958
X032512Y049952
X034647Y04999
X033731Y051959
X035866Y051997
X035103Y053957
X034381Y055357
X036703Y05486
X035416Y057225
X033238Y057415
X034273Y059282
X032019Y059421
X033054Y061289
X030808Y061487
X031843Y063355
X029631Y063536
X030666Y065404
X028702Y06563
X027033Y065705
X024747
X022461
X020189Y065685
X017889Y065705
X015875Y066341
X016789Y067535
X019075
X021361
X023647
X025933
X029486Y067035
X014398Y067217
X014416Y064285
X012281Y064247
X013222Y062329
X011088Y062291
X012074Y060319
X009919Y060285
X010895Y058338
X00876Y0583
X009717Y056334
X009363Y052521
X008328Y050654
X010557Y050489
X009522Y048622
X011649Y048483
X010614Y046615
X012818Y046476
X011783Y044609
X01402Y044478
X017907Y040829
X020199Y040854
X022492
X024784Y040829
X027076
X00729Y052803
X008093Y053727
X006531Y054225
X007582Y056297
X047485Y04261
X049533Y042423
X049083Y041643
X051307Y042659
X053599Y042684
X055892
X058184Y042659
X060476
X062669Y042922
X063481Y043856
X065616Y043894
X064853Y04183
X064624Y045863
X066759Y045901
X065818Y04792
X067953Y047958
X067012Y049952
X069147Y04999
X068231Y051959
X070366Y051997
X069603Y053957
X068881Y055357
X071203Y05486
X069916Y057225
X067738Y057415
X068773Y059282
X066519Y059421
X067554Y061289
X065308Y061487
X066343Y063355
X064131Y063536
X065166Y065404
X063202Y06563
X061533Y065705
X059247
X056961
X054689Y065685
X052389Y065705
X050375Y066341
X051289Y067535
X053575
X055861
X058147
X060433
X063986Y067035
X048898Y067217
X048916Y064285
X046781Y064247
X047722Y062329
X045588Y062291
X046574Y060319
X044419Y060285
X045395Y058338
X04326Y0583
X044217Y056334
X043863Y052521
X042828Y050654
X045057Y050489
X044022Y048622
X046149Y048483
X045114Y046615
X047318Y046476
X046283Y044609
X04852Y044478
X052407Y040829
X054699Y040854
X056992
X059284Y040829
X061576
X04179Y052803
X042593Y053727
X041031Y054225
X042082Y056297
M30
