M48
;Layer_Color=9474304
;FILE_FORMAT=2:5
INCH,TZ
;TYPE=PLATED
T01F00S00C0.00800
%
T01
X51124Y41773
X59186Y41034
X57414Y37966
X66169Y41963
X75194Y42064
X84219
X93244Y41963
X102269
X110900Y43000
X114099Y46679
X122504Y46828
X119500Y38700
X118599Y54580
X127004Y54728
X123299Y62679
X131704Y62828
X127999Y70679
X136404Y70828
X132799Y78579
X141204Y78728
X138200Y86444
X135358Y91958
X144500Y90000
X139432Y99311
X130858Y100058
X134932Y107411
X126058Y107958
X130132Y115311
X121293Y116092
X125368Y123445
X116658Y124158
X120732Y131511
X113000Y132400
X106431Y132695
X97431Y132695
X88431Y132695
X79486Y132618
X70431Y132695
X62500Y135200
X66100Y139900
X75100
X84100
X93100Y139900
X102100Y139900
X116086Y137934
X56684Y138651
X56757Y127105
X48352Y126957
X52057Y119405
X43652Y119257
X47536Y111493
X39052Y111357
X42893Y103693
X34489Y103545
X38257Y95805
X36863Y80793
X32789Y73440
X41563Y72793
X37489Y65440
X45863Y64893
X41789Y57540
X50463Y56993
X46389Y49640
X55198Y49126
X70500Y34759
X79525Y34859
X88550
X97575Y34759
X106600
X28700Y81900
X31863Y85540
X25712Y87500
X29852Y95657
M30
