G04*
G04 #@! TF.GenerationSoftware,Altium Limited,Altium Designer,24.6.1 (21)*
G04*
G04 Layer_Color=65535*
%FSLAX25Y25*%
%MOIN*%
G70*
G04*
G04 #@! TF.SameCoordinates,E7EFAE83-DE6B-43C8-B1E7-83CE5A6567CB*
G04*
G04*
G04 #@! TF.FilePolarity,Positive*
G04*
G01*
G75*
%ADD10C,0.00300*%
%ADD11C,0.01000*%
%ADD12C,0.00600*%
%ADD13C,0.00500*%
D10*
X100879Y32143D02*
X100776Y32217D01*
X121909Y40565D02*
X121794Y40513D01*
X126409Y48465D02*
X126294Y48413D01*
X131109Y56565D02*
X130994Y56513D01*
X135809Y64565D02*
X135694Y64513D01*
X140381Y72923D02*
X140266Y72871D01*
X144558Y95664D02*
X144545Y95539D01*
X140058Y103764D02*
X140045Y103639D01*
X135258Y111664D02*
X135246Y111539D01*
X130494Y119798D02*
X130481Y119672D01*
X125858Y127864D02*
X125846Y127739D01*
X91853Y32143D02*
X91751Y32217D01*
X107821Y142516D02*
X107924Y142442D01*
X98821Y142516D02*
X98924Y142442D01*
X89821Y142516D02*
X89924Y142442D01*
X80821Y142516D02*
X80924Y142442D01*
X71821Y142516D02*
X71924Y142442D01*
X48948Y133220D02*
X49063Y133271D01*
X44248Y125520D02*
X44363Y125571D01*
X39648Y117620D02*
X39763Y117671D01*
X35084Y109807D02*
X35199Y109859D01*
X30448Y101919D02*
X30563Y101971D01*
X27663Y77087D02*
X27676Y77212D01*
X32363Y69087D02*
X32375Y69212D01*
X36663Y61187D02*
X36676Y61312D01*
X41263Y53287D02*
X41275Y53412D01*
X45998Y45420D02*
X46011Y45546D01*
X64779Y32143D02*
X64676Y32217D01*
X73804Y32243D02*
X73701Y32317D01*
X82828Y32243D02*
X82726Y32317D01*
D11*
X100485Y37261D02*
X107965D01*
X117279Y42783D02*
X121019Y49261D01*
X121779Y50683D02*
X125520Y57161D01*
X126479Y58783D02*
X130219Y65261D01*
X131179Y66783D02*
X134920Y73261D01*
X135751Y75141D02*
X139491Y81619D01*
X136583Y99242D02*
X140323Y92764D01*
X132082Y107342D02*
X135823Y100864D01*
X127283Y115242D02*
X131023Y108764D01*
X122518Y123376D02*
X126258Y116898D01*
X117883Y131442D02*
X121623Y124964D01*
X91460Y37261D02*
X98940D01*
X100735Y137398D02*
X108215D01*
X91735D02*
X99215D01*
X82735D02*
X90215D01*
X73735D02*
X81215D01*
X64735D02*
X72215D01*
X49837Y124523D02*
X53577Y131001D01*
X45137Y116823D02*
X48877Y123301D01*
X40537Y108923D02*
X44277Y115401D01*
X35973Y101111D02*
X39713Y107589D01*
X31337Y93223D02*
X35077Y99701D01*
X31898Y79987D02*
X35638Y73509D01*
X36598Y71987D02*
X40339Y65509D01*
X40898Y64087D02*
X44638Y57609D01*
X45498Y56187D02*
X49238Y49709D01*
X50234Y48320D02*
X53974Y41842D01*
X64385Y37261D02*
X71865Y37261D01*
X73410Y37361D02*
X80890D01*
X82435D02*
X89915D01*
D12*
X56595Y40484D02*
X57579Y42189D01*
X60005Y38516D02*
X60989Y40220D01*
X111358Y38883D02*
X112487Y37271D01*
X114583Y41142D02*
X115712Y39529D01*
X29628Y89669D02*
X31597Y89669D01*
X29628Y85732D02*
X31597Y85732D01*
X59312Y138329D02*
X60442Y136717D01*
X56087Y136071D02*
X57217Y134458D01*
X115920Y133711D02*
X116905Y135416D01*
X112511Y135679D02*
X113495Y137384D01*
X141431Y84131D02*
X143400Y84131D01*
X141431Y88068D02*
X143400Y88068D01*
D13*
X67400Y11547D02*
X70066D01*
X68733D01*
Y7548D01*
X72065D02*
X73398D01*
X74064Y8214D01*
Y9547D01*
X73398Y10214D01*
X72065D01*
X71399Y9547D01*
Y8214D01*
X72065Y7548D01*
X75397Y6215D02*
Y10214D01*
X77397D01*
X78063Y9547D01*
Y8214D01*
X77397Y7548D01*
X75397D01*
X85394Y11547D02*
X84061D01*
X83395Y10880D01*
Y8214D01*
X84061Y7548D01*
X85394D01*
X86061Y8214D01*
Y10880D01*
X85394Y11547D01*
X87394Y10214D02*
X88726Y7548D01*
X90059Y10214D01*
X93392Y7548D02*
X92059D01*
X91392Y8214D01*
Y9547D01*
X92059Y10214D01*
X93392D01*
X94058Y9547D01*
Y8881D01*
X91392D01*
X95391Y10214D02*
Y7548D01*
Y8881D01*
X96057Y9547D01*
X96724Y10214D01*
X97390D01*
X99390Y7548D02*
X100723D01*
X100056D01*
Y11547D01*
X99390D01*
X103388Y10214D02*
X104721D01*
X105388Y9547D01*
Y7548D01*
X103388D01*
X102722Y8214D01*
X103388Y8881D01*
X105388D01*
X106721Y10214D02*
Y8214D01*
X107387Y7548D01*
X109386D01*
Y6882D01*
X108720Y6215D01*
X108054D01*
X109386Y7548D02*
Y10214D01*
M02*
