G04*
G04 #@! TF.GenerationSoftware,Altium Limited,Altium Designer,24.6.1 (21)*
G04*
G04 Layer_Color=32768*
%FSLAX25Y25*%
%MOIN*%
G70*
G04*
G04 #@! TF.SameCoordinates,E7EFAE83-DE6B-43C8-B1E7-83CE5A6567CB*
G04*
G04*
G04 #@! TF.FilePolarity,Positive*
G04*
G01*
G75*
%ADD38C,0.00197*%
D38*
X58321Y44261D02*
X62413Y41899D01*
X54187Y37101D02*
X58279Y34739D01*
X62413Y41899D01*
X54187Y37101D02*
X58321Y44261D01*
X57709Y38477D02*
X58891Y40523D01*
X57277Y40091D02*
X59323Y38909D01*
X109794Y40431D02*
X113664Y43141D01*
X114536Y33659D02*
X118406Y36369D01*
X113664Y43141D02*
X118406Y36369D01*
X109794Y40431D02*
X114536Y33659D01*
X113423Y39367D02*
X114778Y37433D01*
X113133Y37723D02*
X115068Y39077D01*
X33762Y85338D02*
Y90062D01*
X25495Y85338D02*
Y90062D01*
Y85338D02*
X33762D01*
X25495Y90062D02*
X33762D01*
X28447Y87700D02*
X30809D01*
X29628Y86519D02*
Y88881D01*
X58136Y132459D02*
X62006Y135169D01*
X53394Y139231D02*
X57264Y141941D01*
X53394Y139231D02*
X58136Y132459D01*
X57264Y141941D02*
X62006Y135169D01*
X57023Y138168D02*
X58377Y136232D01*
X56732Y136522D02*
X58667Y137877D01*
X111087Y134001D02*
X115179Y131639D01*
X115221Y141161D02*
X119313Y138799D01*
X111087Y134001D02*
X115221Y141161D01*
X115179Y131639D02*
X119313Y138799D01*
X114609Y135377D02*
X115791Y137423D01*
X114177Y136991D02*
X116223Y135809D01*
X139266Y83738D02*
Y88462D01*
X147534Y83738D02*
Y88462D01*
X139266D02*
X147534D01*
X139266Y83738D02*
X147534D01*
X142219Y86100D02*
X144581D01*
X143400Y84919D02*
Y87281D01*
M02*
