G04*
G04 #@! TF.GenerationSoftware,Altium Limited,Altium Designer,24.6.1 (21)*
G04*
G04 Layer_Physical_Order=2*
G04 Layer_Color=16711680*
%FSLAX25Y25*%
%MOIN*%
G70*
G04*
G04 #@! TF.SameCoordinates,E7EFAE83-DE6B-43C8-B1E7-83CE5A6567CB*
G04*
G04*
G04 #@! TF.FilePolarity,Positive*
G04*
G01*
G75*
%ADD13C,0.00500*%
%ADD32C,0.01575*%
G36*
X110186Y141228D02*
X112433Y140629D01*
X114583Y139741D01*
X116598Y138579D01*
X118444Y137164D01*
X120089Y135521D01*
X121505Y133676D01*
X122086Y132668D01*
X122086Y132668D01*
X143131Y96218D01*
X143711Y95213D01*
X144600Y93067D01*
X145201Y90824D01*
X145504Y88521D01*
Y86199D01*
X145201Y83896D01*
X144600Y81653D01*
X143711Y79507D01*
X143131Y78502D01*
X143131D01*
X122086Y42052D01*
X121506Y41046D01*
X120092Y39204D01*
X118450Y37561D01*
X116607Y36148D01*
X114596Y34986D01*
X112451Y34098D01*
X110207Y33497D01*
X107905Y33193D01*
X106744Y33193D01*
X63493D01*
X61191Y33497D01*
X58947Y34098D01*
X56802Y34986D01*
X54791Y36148D01*
X52948Y37562D01*
X51306Y39204D01*
X49892Y41046D01*
X49312Y42052D01*
X28267Y78502D01*
X27687Y79507D01*
X26798Y81653D01*
X26197Y83896D01*
X25894Y86199D01*
X25894Y88521D01*
X26197Y90824D01*
X26798Y93067D01*
X27687Y95213D01*
X28267Y96218D01*
Y96218D01*
X49312Y132668D01*
X49892Y133674D01*
X51306Y135517D01*
X52948Y137159D01*
X54791Y138573D01*
X56802Y139734D01*
X58947Y140622D01*
X61191Y141224D01*
X63493Y141527D01*
X64654D01*
X64654Y141527D01*
X106717Y141527D01*
X107880Y141528D01*
X110186Y141228D01*
D02*
G37*
%LPC*%
G36*
X62500Y137022D02*
X61803Y136884D01*
X61211Y136489D01*
X60953Y136102D01*
X60586Y136003D01*
X60526Y135974D01*
X60460Y135960D01*
X59029Y135368D01*
X58973Y135331D01*
X58910Y135309D01*
X57569Y134535D01*
X57518Y134491D01*
X57458Y134461D01*
X56230Y133518D01*
X56185Y133468D01*
X56129Y133430D01*
X55035Y132335D01*
X54997Y132280D01*
X54947Y132235D01*
X54004Y131007D01*
X53974Y130947D01*
X53930Y130896D01*
X53543Y130226D01*
X53543Y130226D01*
X32498Y93775D01*
X32498Y93775D01*
X32111Y93105D01*
X32090Y93041D01*
X32052Y92985D01*
X31460Y91555D01*
X31447Y91489D01*
X31417Y91429D01*
X31016Y89933D01*
X31012Y89866D01*
X30990Y89802D01*
X30788Y88267D01*
X30792Y88200D01*
X30779Y88134D01*
X30779Y86965D01*
X30575Y86829D01*
X30180Y86237D01*
X30041Y85540D01*
X30180Y84842D01*
X30575Y84251D01*
X31166Y83856D01*
X31271Y83835D01*
X31417Y83292D01*
X31447Y83231D01*
X31460Y83165D01*
X32052Y81735D01*
X32090Y81679D01*
X32111Y81615D01*
X32498Y80945D01*
X53543Y44495D01*
X53543Y44495D01*
X53930Y43824D01*
X53974Y43774D01*
X54004Y43713D01*
X54947Y42485D01*
X54997Y42441D01*
X55035Y42385D01*
X56129Y41290D01*
X56185Y41253D01*
X56230Y41202D01*
X57458Y40260D01*
X57518Y40230D01*
X57569Y40185D01*
X57625Y40153D01*
X57897Y39746D01*
X58488Y39351D01*
X59186Y39212D01*
X59309Y39236D01*
X60460Y38760D01*
X60526Y38747D01*
X60586Y38717D01*
X62081Y38316D01*
X62149Y38312D01*
X62212Y38290D01*
X63747Y38088D01*
X63814Y38092D01*
X63880Y38079D01*
X107518D01*
X107584Y38092D01*
X107651Y38088D01*
X109186Y38290D01*
X109249Y38312D01*
X109317Y38316D01*
X110812Y38717D01*
X110872Y38747D01*
X110938Y38760D01*
X112369Y39352D01*
X112425Y39390D01*
X112488Y39411D01*
X113829Y40185D01*
X113880Y40230D01*
X113940Y40260D01*
X115168Y41202D01*
X115213Y41253D01*
X115269Y41290D01*
X116364Y42385D01*
X116401Y42441D01*
X116451Y42485D01*
X117394Y43713D01*
X117424Y43774D01*
X117468Y43824D01*
X117855Y44495D01*
X138900Y80945D01*
X138900Y80945D01*
X139287Y81615D01*
X139308Y81679D01*
X139346Y81735D01*
X139938Y83165D01*
X139951Y83231D01*
X139981Y83292D01*
X140382Y84787D01*
X140386Y84854D01*
X140408Y84918D01*
X140610Y86453D01*
X140605Y86520D01*
X140619Y86586D01*
X140619Y88134D01*
X140605Y88200D01*
X140610Y88267D01*
X140408Y89802D01*
X140386Y89866D01*
X140382Y89933D01*
X139981Y91429D01*
X139951Y91489D01*
X139938Y91555D01*
X139346Y92985D01*
X139308Y93041D01*
X139287Y93105D01*
X138900Y93775D01*
X138900Y93775D01*
X117855Y130226D01*
X117855Y130226D01*
X117468Y130896D01*
X117424Y130947D01*
X117394Y131007D01*
X116451Y132235D01*
X116401Y132280D01*
X116364Y132335D01*
X115269Y133430D01*
X115213Y133468D01*
X115168Y133518D01*
X113940Y134461D01*
X113880Y134491D01*
X113829Y134535D01*
X112488Y135309D01*
X112425Y135331D01*
X112369Y135368D01*
X110938Y135960D01*
X110872Y135974D01*
X110812Y136003D01*
X109317Y136404D01*
X109249Y136408D01*
X109186Y136430D01*
X107651Y136632D01*
X107584Y136628D01*
X107518Y136641D01*
X106744D01*
X64654Y136641D01*
X64654Y136641D01*
X63880Y136641D01*
X63814Y136628D01*
X63747Y136632D01*
X63602Y136613D01*
X63197Y136884D01*
X62500Y137022D01*
D02*
G37*
%LPD*%
G36*
X106744Y135621D02*
X107518D01*
X109053Y135419D01*
X110548Y135019D01*
X111979Y134426D01*
X113319Y133652D01*
X114548Y132709D01*
X115642Y131614D01*
X116585Y130386D01*
X116972Y129716D01*
X116972Y129716D01*
X138017Y93266D01*
X138404Y92595D01*
X138996Y91165D01*
X139397Y89669D01*
X139599Y88134D01*
X139599Y86586D01*
X139397Y85051D01*
X138996Y83556D01*
X138404Y82125D01*
X138017Y81455D01*
X138017Y81455D01*
X116972Y45004D01*
X116585Y44334D01*
X115642Y43106D01*
X114548Y42011D01*
X113319Y41069D01*
X111979Y40294D01*
X110548Y39702D01*
X109053Y39301D01*
X107518Y39099D01*
X63880D01*
X62345Y39301D01*
X60850Y39702D01*
X59419Y40294D01*
X58079Y41069D01*
X56850Y42011D01*
X55756Y43106D01*
X54813Y44334D01*
X54426Y45004D01*
X54426Y45004D01*
X33381Y81455D01*
X32994Y82125D01*
X32402Y83556D01*
X32001Y85051D01*
X31799Y86586D01*
X31799Y88134D01*
X32001Y89669D01*
X32402Y91165D01*
X32994Y92595D01*
X33381Y93266D01*
X33381Y93266D01*
X54426Y129716D01*
X54813Y130386D01*
X55756Y131614D01*
X56850Y132709D01*
X58079Y133652D01*
X59419Y134426D01*
X60850Y135019D01*
X62345Y135419D01*
X63880Y135621D01*
X64654Y135621D01*
X64654Y135621D01*
X106744Y135621D01*
D02*
G37*
%LPC*%
G36*
X64654Y130735D02*
X64654Y130735D01*
X64267D01*
X64201Y130722D01*
X64134Y130727D01*
X63367Y130626D01*
X63303Y130604D01*
X63236Y130600D01*
X62488Y130399D01*
X62428Y130369D01*
X62362Y130356D01*
X61647Y130060D01*
X61591Y130023D01*
X61527Y130001D01*
X60857Y129614D01*
X60806Y129570D01*
X60746Y129540D01*
X60132Y129069D01*
X60087Y129018D01*
X60031Y128981D01*
X59484Y128433D01*
X59447Y128377D01*
X59396Y128333D01*
X58925Y127719D01*
X58895Y127659D01*
X58851Y127608D01*
X58657Y127273D01*
X58657Y127273D01*
X37613Y90823D01*
X37613Y90823D01*
X37419Y90487D01*
X37398Y90424D01*
X37360Y90368D01*
X37064Y89653D01*
X37051Y89587D01*
X37021Y89526D01*
X36821Y88779D01*
X36816Y88712D01*
X36795Y88648D01*
X36694Y87880D01*
X36698Y87813D01*
X36685Y87747D01*
X36685Y86973D01*
X36698Y86907D01*
X36694Y86840D01*
X36795Y86072D01*
X36816Y86009D01*
X36821Y85942D01*
X37021Y85194D01*
X37051Y85134D01*
X37064Y85068D01*
X37360Y84352D01*
X37398Y84297D01*
X37419Y84233D01*
X37613Y83898D01*
X37613Y83898D01*
X58657Y47447D01*
X58657Y47447D01*
X58851Y47112D01*
X58895Y47062D01*
X58925Y47001D01*
X59396Y46387D01*
X59447Y46343D01*
X59484Y46287D01*
X60031Y45739D01*
X60087Y45702D01*
X60132Y45652D01*
X60746Y45180D01*
X60806Y45151D01*
X60857Y45106D01*
X61527Y44719D01*
X61591Y44698D01*
X61647Y44660D01*
X62362Y44364D01*
X62428Y44351D01*
X62488Y44321D01*
X63236Y44121D01*
X63303Y44116D01*
X63367Y44095D01*
X64134Y43994D01*
X64201Y43998D01*
X64267Y43985D01*
X106744D01*
X107131Y43985D01*
X107196Y43998D01*
X107264Y43994D01*
X108031Y44095D01*
X108095Y44116D01*
X108162Y44121D01*
X108910Y44321D01*
X108970Y44351D01*
X109036Y44364D01*
X109751Y44660D01*
X109807Y44698D01*
X109871Y44719D01*
X110541Y45106D01*
X110592Y45151D01*
X110652Y45180D01*
X111266Y45652D01*
X111311Y45702D01*
X111367Y45739D01*
X111914Y46287D01*
X111951Y46343D01*
X112002Y46387D01*
X112473Y47001D01*
X112503Y47062D01*
X112547Y47112D01*
X112741Y47447D01*
X133785Y83898D01*
X133785Y83898D01*
X133979Y84233D01*
X134000Y84297D01*
X134038Y84352D01*
X134334Y85068D01*
X134347Y85134D01*
X134377Y85194D01*
X134577Y85942D01*
X134582Y86009D01*
X134603Y86072D01*
X134704Y86840D01*
X134700Y86907D01*
X134713Y86973D01*
X134713Y87747D01*
X134700Y87813D01*
X134704Y87880D01*
X134603Y88648D01*
X134582Y88712D01*
X134577Y88779D01*
X134377Y89526D01*
X134347Y89587D01*
X134334Y89653D01*
X134038Y90368D01*
X134001Y90424D01*
X133979Y90487D01*
X133785Y90823D01*
X133785Y90823D01*
X112741Y127273D01*
X112741Y127273D01*
X112547Y127608D01*
X112503Y127659D01*
X112473Y127719D01*
X112002Y128333D01*
X111951Y128377D01*
X111914Y128433D01*
X111367Y128981D01*
X111311Y129018D01*
X111266Y129069D01*
X110652Y129540D01*
X110592Y129570D01*
X110541Y129614D01*
X109871Y130001D01*
X109807Y130023D01*
X109751Y130060D01*
X109036Y130356D01*
X108970Y130369D01*
X108910Y130399D01*
X108162Y130600D01*
X108095Y130604D01*
X108031Y130626D01*
X107264Y130727D01*
X107196Y130722D01*
X107131Y130735D01*
X106744D01*
X64654Y130735D01*
D02*
G37*
%LPD*%
D13*
X67400Y19137D02*
Y15138D01*
X69399D01*
X70066Y15805D01*
Y16471D01*
X69399Y17138D01*
X67400D01*
X69399D01*
X70066Y17804D01*
Y18471D01*
X69399Y19137D01*
X67400D01*
X72065Y15138D02*
X73398D01*
X74064Y15805D01*
Y17138D01*
X73398Y17804D01*
X72065D01*
X71399Y17138D01*
Y15805D01*
X72065Y15138D01*
X76064Y18471D02*
Y17804D01*
X75397D01*
X76730D01*
X76064D01*
Y15805D01*
X76730Y15138D01*
X79396Y18471D02*
Y17804D01*
X78730D01*
X80063D01*
X79396D01*
Y15805D01*
X80063Y15138D01*
X82728D02*
X84061D01*
X84728Y15805D01*
Y17138D01*
X84061Y17804D01*
X82728D01*
X82062Y17138D01*
Y15805D01*
X82728Y15138D01*
X86061D02*
Y17804D01*
X86727D01*
X87394Y17138D01*
Y15138D01*
Y17138D01*
X88060Y17804D01*
X88726Y17138D01*
Y15138D01*
D32*
X28700Y81900D02*
D03*
X56684Y138651D02*
D03*
X138200Y86444D02*
D03*
X144500Y90000D02*
D03*
X113000Y132400D02*
D03*
X59186Y41034D02*
D03*
X119500Y38700D02*
D03*
X110900Y43000D02*
D03*
X56757Y127105D02*
D03*
X52057Y119405D02*
D03*
X47536Y111493D02*
D03*
X42893Y103693D02*
D03*
X38257Y95805D02*
D03*
X37489Y65440D02*
D03*
X36863Y80793D02*
D03*
X41563Y72793D02*
D03*
X45863Y64893D02*
D03*
X50463Y56993D02*
D03*
X55198Y49126D02*
D03*
X66169Y41963D02*
D03*
X75194Y42064D02*
D03*
X84219D02*
D03*
X93244Y41963D02*
D03*
X102269D02*
D03*
X114099Y46679D02*
D03*
X118599Y54580D02*
D03*
X123299Y62679D02*
D03*
X127999Y70679D02*
D03*
X132799Y78579D02*
D03*
X135358Y91958D02*
D03*
X130858Y100058D02*
D03*
X126058Y107958D02*
D03*
X121293Y116092D02*
D03*
X116658Y124158D02*
D03*
X106431Y132695D02*
D03*
X97431Y132695D02*
D03*
X88431Y132695D02*
D03*
X79486Y132618D02*
D03*
X70431Y132695D02*
D03*
X62500Y135200D02*
D03*
X25712Y87500D02*
D03*
X31863Y85540D02*
D03*
X134932Y107411D02*
D03*
X139432Y99311D02*
D03*
X120732Y131511D02*
D03*
X125368Y123445D02*
D03*
X39052Y111357D02*
D03*
X43652Y119257D02*
D03*
X116086Y137934D02*
D03*
X57414Y37966D02*
D03*
X106600Y34759D02*
D03*
X97575D02*
D03*
X88550Y34859D02*
D03*
X79525D02*
D03*
X70500Y34759D02*
D03*
X51124Y41773D02*
D03*
X46389Y49640D02*
D03*
X41789Y57540D02*
D03*
X32789Y73440D02*
D03*
X29852Y95657D02*
D03*
X34489Y103545D02*
D03*
X48352Y126957D02*
D03*
X66100Y139900D02*
D03*
X75100D02*
D03*
X84100D02*
D03*
X93100Y139900D02*
D03*
X102100Y139900D02*
D03*
X130132Y115311D02*
D03*
X141204Y78728D02*
D03*
X136404Y70828D02*
D03*
X131704Y62828D02*
D03*
X127004Y54728D02*
D03*
X122504Y46828D02*
D03*
M02*
