G04*
G04 #@! TF.GenerationSoftware,Altium Limited,Altium Designer,24.6.1 (21)*
G04*
G04 Layer_Color=32896*
%FSLAX25Y25*%
%MOIN*%
G70*
G04*
G04 #@! TF.SameCoordinates,E7EFAE83-DE6B-43C8-B1E7-83CE5A6567CB*
G04*
G04*
G04 #@! TF.FilePolarity,Positive*
G04*
G01*
G75*
%ADD13C,0.00500*%
D13*
X107067Y140033D02*
X107483Y140450D01*
X108317D01*
X108733Y140033D01*
Y138367D01*
X108317Y137950D01*
X107483D01*
X107067Y138367D01*
Y139200D01*
X107900D01*
X115867Y39833D02*
X116284Y40250D01*
X117116D01*
X117533Y39833D01*
Y38167D01*
X117116Y37750D01*
X116284D01*
X115867Y38167D01*
Y39000D01*
X116700D01*
X141559Y82528D02*
X143723Y81279D01*
X143099Y80197D01*
X142530Y80044D01*
X141087Y80877D01*
X140934Y81446D01*
X141559Y82528D01*
X139685Y79282D02*
X140101Y80003D01*
X140670Y80156D01*
X142113Y79323D01*
X142266Y78754D01*
X141849Y78032D01*
X141280Y77880D01*
X139837Y78713D01*
X139685Y79282D01*
X135125Y85062D02*
X136489Y86018D01*
X137206Y84995D01*
X136285Y84858D01*
X135943Y84619D01*
X135841Y84039D01*
X136319Y83356D01*
X136899Y83254D01*
X137582Y83732D01*
X137684Y84312D01*
X134442Y84585D02*
X135398Y83220D01*
X135193Y82060D01*
X134033Y82264D01*
X133077Y83629D01*
X141267Y90833D02*
X141683Y91250D01*
X142517D01*
X142933Y90833D01*
Y89167D01*
X142517Y88750D01*
X141683D01*
X141267Y89167D01*
Y90000D01*
X142100D01*
X112466Y39850D02*
Y37350D01*
X111216D01*
X110800Y37767D01*
Y39433D01*
X111216Y39850D01*
X112466D01*
X109967D02*
X109134D01*
X109550D01*
Y37350D01*
X109967D01*
X109134D01*
X104267Y43599D02*
X105600D01*
Y42600D01*
X104934Y42933D01*
X104600D01*
X104267Y42600D01*
Y41933D01*
X104600Y41600D01*
X105267D01*
X105600Y41933D01*
X103601Y43599D02*
Y42266D01*
X102934Y41600D01*
X102268Y42266D01*
Y43599D01*
X30716Y93250D02*
X32383D01*
Y92000D01*
X31550Y92417D01*
X31133D01*
X30716Y92000D01*
Y91167D01*
X31133Y90750D01*
X31966D01*
X32383Y91167D01*
X29884Y93250D02*
Y91584D01*
X29050Y90750D01*
X28217Y91584D01*
Y93250D01*
X57916Y138650D02*
X59583D01*
Y137400D01*
X58750Y137817D01*
X58333D01*
X57916Y137400D01*
Y136567D01*
X58333Y136150D01*
X59166D01*
X59583Y136567D01*
X57083Y138650D02*
Y136984D01*
X56250Y136150D01*
X55417Y136984D01*
Y138650D01*
X30667Y82933D02*
X31084Y83350D01*
X31916D01*
X32333Y82933D01*
Y81267D01*
X31916Y80850D01*
X31084D01*
X30667Y81267D01*
Y82100D01*
X31500D01*
X67400Y3956D02*
Y-42D01*
X69399D01*
X70066Y624D01*
Y1290D01*
X69399Y1957D01*
X67400D01*
X69399D01*
X70066Y2623D01*
Y3290D01*
X69399Y3956D01*
X67400D01*
X72065Y-42D02*
X73398D01*
X74064Y624D01*
Y1957D01*
X73398Y2623D01*
X72065D01*
X71399Y1957D01*
Y624D01*
X72065Y-42D01*
X76064Y3290D02*
Y2623D01*
X75397D01*
X76730D01*
X76064D01*
Y624D01*
X76730Y-42D01*
X79396Y3290D02*
Y2623D01*
X78730D01*
X80063D01*
X79396D01*
Y624D01*
X80063Y-42D01*
X82728D02*
X84061D01*
X84728Y624D01*
Y1957D01*
X84061Y2623D01*
X82728D01*
X82062Y1957D01*
Y624D01*
X82728Y-42D01*
X86061D02*
Y2623D01*
X86727D01*
X87394Y1957D01*
Y-42D01*
Y1957D01*
X88060Y2623D01*
X88726Y1957D01*
Y-42D01*
X96057Y3956D02*
X94725D01*
X94058Y3290D01*
Y624D01*
X94725Y-42D01*
X96057D01*
X96724Y624D01*
Y3290D01*
X96057Y3956D01*
X98057Y2623D02*
X99390Y-42D01*
X100723Y2623D01*
X104055Y-42D02*
X102722D01*
X102056Y624D01*
Y1957D01*
X102722Y2623D01*
X104055D01*
X104721Y1957D01*
Y1290D01*
X102056D01*
X106054Y2623D02*
Y-42D01*
Y1290D01*
X106721Y1957D01*
X107387Y2623D01*
X108054D01*
X110053Y-42D02*
X111386D01*
X110719D01*
Y3956D01*
X110053D01*
X114052Y2623D02*
X115384D01*
X116051Y1957D01*
Y-42D01*
X114052D01*
X113385Y624D01*
X114052Y1290D01*
X116051D01*
X117384Y2623D02*
Y624D01*
X118050Y-42D01*
X120050D01*
Y-709D01*
X119383Y-1375D01*
X118717D01*
X120050Y-42D02*
Y2623D01*
M02*
