G04*
G04 #@! TF.GenerationSoftware,Altium Limited,Altium Designer,24.6.1 (21)*
G04*
G04 Layer_Physical_Order=1*
G04 Layer_Color=255*
%FSLAX25Y25*%
%MOIN*%
G70*
G04*
G04 #@! TF.SameCoordinates,E7EFAE83-DE6B-43C8-B1E7-83CE5A6567CB*
G04*
G04*
G04 #@! TF.FilePolarity,Positive*
G04*
G01*
G75*
%ADD11C,0.01000*%
%ADD13C,0.00500*%
%ADD14R,0.02756X0.02756*%
%ADD15P,0.03452X4X375.0*%
%ADD16P,0.03452X4X80.0*%
%ADD17P,0.03897X4X375.0*%
%ADD18P,0.03897X4X75.0*%
%ADD19R,0.02441X0.02441*%
G04:AMPARAMS|DCode=29|XSize=19.68mil|YSize=19.68mil|CornerRadius=0mil|HoleSize=0mil|Usage=FLASHONLY|Rotation=90.000|XOffset=0mil|YOffset=0mil|HoleType=Round|Shape=Octagon|*
%AMOCTAGOND29*
4,1,8,0.00492,0.00984,-0.00492,0.00984,-0.00984,0.00492,-0.00984,-0.00492,-0.00492,-0.00984,0.00492,-0.00984,0.00984,-0.00492,0.00984,0.00492,0.00492,0.00984,0.0*
%
%ADD29OCTAGOND29*%

G04:AMPARAMS|DCode=30|XSize=19.68mil|YSize=19.68mil|CornerRadius=0mil|HoleSize=0mil|Usage=FLASHONLY|Rotation=150.000|XOffset=0mil|YOffset=0mil|HoleType=Round|Shape=Octagon|*
%AMOCTAGOND30*
4,1,8,-0.00606,0.00918,-0.01099,0.00066,-0.00918,-0.00606,-0.00066,-0.01099,0.00606,-0.00918,0.01099,-0.00066,0.00918,0.00606,0.00066,0.01099,-0.00606,0.00918,0.0*
%
%ADD30OCTAGOND30*%

G04:AMPARAMS|DCode=31|XSize=19.68mil|YSize=19.68mil|CornerRadius=0mil|HoleSize=0mil|Usage=FLASHONLY|Rotation=35.000|XOffset=0mil|YOffset=0mil|HoleType=Round|Shape=Octagon|*
%AMOCTAGOND31*
4,1,8,0.01089,0.00161,0.00524,0.00968,-0.00161,0.01089,-0.00968,0.00524,-0.01089,-0.00161,-0.00524,-0.00968,0.00161,-0.01089,0.00968,-0.00524,0.01089,0.00161,0.0*
%
%ADD31OCTAGOND31*%

%ADD32C,0.01575*%
D11*
X112094Y138601D02*
X113064Y138106D01*
X113325Y138059D01*
X113978Y138029D02*
X113941Y138031D01*
X61800Y136890D02*
X61982Y135975D01*
X62500Y135200D01*
X27393Y91707D02*
X27184Y91867D01*
X30557Y89164D02*
X30050Y90062D01*
X29083Y90421D01*
X28391Y90709D02*
X29083Y90421D01*
X138200Y86444D02*
X139032Y86100D01*
X113325Y138059D02*
X113941Y138031D01*
X111680Y138955D02*
X112094Y138601D01*
X113978Y138029D02*
X115254Y137934D01*
X116086D01*
X62344Y135200D02*
X62500D01*
X61800Y136890D02*
Y139500D01*
X26700Y92000D02*
X27184Y91867D01*
X30557Y89164D02*
X30680Y88420D01*
X27393Y91707D02*
X28391Y90709D01*
X30680Y88420D02*
X31400Y87700D01*
X138500Y86900D02*
X138578Y86822D01*
X139032Y86100D02*
X141628D01*
X135194Y87694D02*
X137196Y89696D01*
X138162Y90254D02*
X138741Y90833D01*
Y92703D01*
X137196Y89696D02*
X138162Y90254D01*
X135194Y82559D02*
Y87694D01*
X138741Y92703D02*
X141598Y95561D01*
X144500Y90000D02*
X144785Y89715D01*
Y86487D02*
Y89715D01*
Y86487D02*
X145172Y86100D01*
X106600Y41963D02*
X111000Y37563D01*
Y35400D02*
Y37563D01*
X115116Y36949D02*
X117749D01*
X119500Y38700D01*
X110900Y42801D02*
Y43000D01*
X113084Y39851D02*
Y40617D01*
X110900Y42801D02*
X113084Y40617D01*
X114314Y133938D02*
Y134866D01*
X113110Y132734D02*
X114314Y133938D01*
X113110Y132510D02*
Y132734D01*
X113000Y132400D02*
X113110Y132510D01*
X110400Y131145D02*
Y135931D01*
Y131145D02*
X113636Y127909D01*
X114493D01*
X59794Y45298D02*
X63291Y41800D01*
Y39964D02*
X63500Y39755D01*
X63291Y39964D02*
Y41800D01*
X57441Y45298D02*
X59794D01*
X57363Y45376D02*
X57441Y45298D01*
X63500Y37428D02*
Y39755D01*
X39623Y61290D02*
X41947Y63614D01*
Y66315D01*
X43728Y68097D01*
Y69042D01*
X35323Y70275D02*
X36774Y71726D01*
Y74788D02*
X39028Y77042D01*
X35323Y69190D02*
Y70275D01*
X36774Y71726D02*
Y74788D01*
X61796Y135749D02*
X62344Y135200D01*
X58716Y135749D02*
X61796D01*
X59994Y132695D02*
X66100D01*
X58006Y130707D02*
X59994Y132695D01*
X106431Y139900D02*
X110400Y135931D01*
X50518Y130707D02*
X58006D01*
X25812Y87600D02*
X27757D01*
X25712Y87500D02*
X25812Y87600D01*
X27757D02*
X27857Y87700D01*
X32860Y81760D02*
X36092Y84992D01*
Y92054D01*
X32860Y79461D02*
Y81760D01*
X30623Y77190D02*
Y77224D01*
X32860Y79461D01*
X31753Y85650D02*
X31863Y85540D01*
X31753Y85650D02*
Y87347D01*
X31400Y87700D02*
X31753Y87347D01*
X63500Y37428D02*
X66169Y34759D01*
X133193Y95709D02*
X135447Y97963D01*
X137098Y102576D02*
Y103661D01*
X135447Y100925D02*
X137098Y102576D01*
X135447Y97963D02*
Y100925D01*
X132298Y110476D02*
Y111561D01*
X130947Y109125D02*
X132298Y110476D01*
X127533Y118609D02*
Y119694D01*
X126147Y117223D02*
X127533Y118609D01*
X121013Y125137D02*
X122898Y127022D01*
Y127761D01*
X121013Y122466D02*
Y125137D01*
X119128Y119842D02*
Y120581D01*
X121013Y122466D01*
X98453Y40903D02*
X100739Y38617D01*
X100922D01*
X102269Y37269D01*
Y34759D02*
Y37269D01*
X97575Y41963D02*
X98453Y41085D01*
Y40903D02*
Y41085D01*
X89428Y40903D02*
Y41186D01*
X92080Y38800D02*
X93244Y37637D01*
Y34759D02*
Y37637D01*
X88550Y42064D02*
X89428Y41186D01*
Y40903D02*
X91530Y38800D01*
X92080D01*
X79525Y42064D02*
X80403Y41186D01*
X82689Y38717D02*
X82872D01*
X84219Y34859D02*
Y37369D01*
X80403Y41003D02*
Y41186D01*
Y41003D02*
X82689Y38717D01*
X82872D02*
X84219Y37369D01*
X75194Y34859D02*
Y37269D01*
X70500Y41963D02*
X71378Y41085D01*
Y41003D02*
Y41085D01*
Y41003D02*
X73714Y38667D01*
X73797D01*
X75194Y37269D01*
X51213Y50742D02*
X52628Y52157D01*
X51213Y47778D02*
Y50742D01*
X48959Y45524D02*
X51213Y47778D01*
X52628Y52157D02*
Y53242D01*
X44223Y54475D02*
X45774Y56026D01*
X44223Y53390D02*
Y54475D01*
X45774Y58888D02*
X48028Y61142D01*
X45774Y56026D02*
Y58888D01*
X32018Y99407D02*
X32285Y99675D01*
X39961Y100675D02*
X40228Y100942D01*
X32285Y99675D02*
X40461D01*
X36884Y107525D02*
X45062D01*
X36654Y107295D02*
X36884Y107525D01*
X44562Y108525D02*
X44792Y108755D01*
X41491Y115381D02*
X49618D01*
X40718Y116107D02*
X40991Y116381D01*
X49618Y115381D02*
X49892Y115655D01*
X53918Y124181D02*
X54092Y124355D01*
X45818Y123007D02*
X45991Y123181D01*
X54418D01*
X74222Y133573D02*
Y133781D01*
X71974Y136030D02*
X74222Y133781D01*
X70431Y137365D02*
Y139900D01*
X74222Y133573D02*
X75100Y132695D01*
X71766Y136030D02*
X71974D01*
X70431Y137365D02*
X71766Y136030D01*
X83222Y133573D02*
Y133781D01*
X79431Y137364D02*
Y139900D01*
X83222Y133573D02*
X84100Y132695D01*
X80974Y136030D02*
X83222Y133781D01*
X80766Y136030D02*
X80974D01*
X79431Y137364D02*
X80766Y136030D01*
X92222Y133573D02*
X93100Y132695D01*
X88431Y137365D02*
X89766Y136030D01*
X88431Y137365D02*
Y139900D01*
X92222Y133573D02*
Y133781D01*
X89974Y136030D02*
X92222Y133781D01*
X89766Y136030D02*
X89974D01*
X101222Y133573D02*
X102100Y132695D01*
X98974Y136030D02*
X101222Y133781D01*
X97431Y137365D02*
X98766Y136030D01*
X97431Y137365D02*
Y139900D01*
X101222Y133573D02*
Y133781D01*
X98766Y136030D02*
X98974D01*
X123893Y111709D02*
X126147Y113963D01*
Y117223D01*
X130947Y106063D02*
Y109125D01*
X128693Y103809D02*
X130947Y106063D01*
X130438Y74704D02*
X138765D01*
X139039Y74977D01*
X127197Y67077D02*
X134239D01*
X125464Y66430D02*
X126549D01*
X127197Y67077D01*
X122597Y59077D02*
X129539D01*
X120765Y58330D02*
X121850D01*
X122597Y59077D01*
X116264Y50430D02*
X116538Y50704D01*
X124565D01*
X124839Y50977D01*
D13*
X144763Y80127D02*
X144800Y80316D01*
X144763Y80126D02*
X144763Y80127D01*
X143767Y78135D02*
X143765Y78132D01*
X126413Y48446D02*
X126395Y48417D01*
X125636Y47103D02*
X125589Y46993D01*
X125469Y46707D02*
X125589Y46993D01*
X127895Y50647D02*
X127914Y50676D01*
X122386Y43861D02*
X123333Y43738D01*
X124091Y44320D01*
X121914Y44131D02*
X121314Y44052D01*
X144356Y79155D02*
X144384Y79211D01*
X144763Y80126D02*
X144763Y80127D01*
X144384Y79211D02*
X144763Y80126D01*
X143767Y78135D02*
X144356Y79155D01*
X135217Y63326D02*
X143765Y78132D01*
X125636Y47103D02*
X126395Y48417D01*
X124091Y44320D02*
X125469Y46707D01*
X127914Y50676D02*
X135217Y63326D01*
X126413Y48446D02*
X127895Y50647D01*
X121914Y44131D02*
X122386Y43861D01*
X121314Y44052D02*
X121314Y44052D01*
X120339Y43077D02*
X121314Y44052D01*
X144800Y80316D02*
Y81800D01*
X67400Y25395D02*
X70066D01*
X68733D01*
Y21396D01*
X72065D02*
X73398D01*
X74064Y22063D01*
Y23395D01*
X73398Y24062D01*
X72065D01*
X71399Y23395D01*
Y22063D01*
X72065Y21396D01*
X75397Y20063D02*
Y24062D01*
X77397D01*
X78063Y23395D01*
Y22063D01*
X77397Y21396D01*
X75397D01*
X83395Y25395D02*
Y21396D01*
X86061D01*
X88060Y24062D02*
X89393D01*
X90059Y23395D01*
Y21396D01*
X88060D01*
X87394Y22063D01*
X88060Y22729D01*
X90059D01*
X91392Y24062D02*
Y22063D01*
X92059Y21396D01*
X94058D01*
Y20730D01*
X93392Y20063D01*
X92725D01*
X94058Y21396D02*
Y24062D01*
X97390Y21396D02*
X96057D01*
X95391Y22063D01*
Y23395D01*
X96057Y24062D01*
X97390D01*
X98057Y23395D01*
Y22729D01*
X95391D01*
X99390Y24062D02*
Y21396D01*
Y22729D01*
X100056Y23395D01*
X100723Y24062D01*
X101389D01*
D14*
X106600Y41963D02*
D03*
X106600Y34759D02*
D03*
X102269Y34759D02*
D03*
X102269Y41963D02*
D03*
X93244D02*
D03*
X93244Y34759D02*
D03*
X97575Y34759D02*
D03*
X97575Y41963D02*
D03*
X106431Y132695D02*
D03*
X106431Y139900D02*
D03*
X102100Y139900D02*
D03*
X102100Y132695D02*
D03*
X93100D02*
D03*
X93100Y139900D02*
D03*
X97431Y139900D02*
D03*
X97431Y132695D02*
D03*
X88431Y132695D02*
D03*
X88431Y139900D02*
D03*
X84100Y139900D02*
D03*
X84100Y132695D02*
D03*
X75100D02*
D03*
X75100Y139900D02*
D03*
X79431Y139900D02*
D03*
X79431Y132695D02*
D03*
X70431D02*
D03*
X70431Y139900D02*
D03*
X66100Y139900D02*
D03*
X66100Y132695D02*
D03*
X70500Y41963D02*
D03*
X70500Y34759D02*
D03*
X66169Y34759D02*
D03*
Y41963D02*
D03*
X79525Y42064D02*
D03*
X79525Y34859D02*
D03*
X75194Y34859D02*
D03*
X75194Y42064D02*
D03*
X88550Y42064D02*
D03*
X88550Y34859D02*
D03*
X84219Y34859D02*
D03*
X84219Y42064D02*
D03*
D15*
X59186Y41034D02*
D03*
X57414Y37966D02*
D03*
X114314Y134866D02*
D03*
X116086Y137934D02*
D03*
D16*
X113084Y39851D02*
D03*
X115116Y36949D02*
D03*
X58716Y135749D02*
D03*
X56684Y138651D02*
D03*
D17*
X116264Y50430D02*
D03*
X122504Y46828D02*
D03*
X120339Y43077D02*
D03*
X114099Y46679D02*
D03*
X120765Y58330D02*
D03*
X127004Y54728D02*
D03*
X124839Y50977D02*
D03*
X118599Y54580D02*
D03*
X125464Y66430D02*
D03*
X131704Y62828D02*
D03*
X129539Y59077D02*
D03*
X123299Y62679D02*
D03*
X130165Y74430D02*
D03*
X136404Y70828D02*
D03*
X134239Y67077D02*
D03*
X127999Y70679D02*
D03*
X134736Y82788D02*
D03*
X140976Y79185D02*
D03*
X138810Y75435D02*
D03*
X132571Y79037D02*
D03*
X54592Y123354D02*
D03*
X48352Y126957D02*
D03*
X50518Y130707D02*
D03*
X56757Y127105D02*
D03*
X52057Y119405D02*
D03*
X45818Y123007D02*
D03*
X43652Y119257D02*
D03*
X49892Y115655D02*
D03*
X45292Y107755D02*
D03*
X39052Y111357D02*
D03*
X41218Y115107D02*
D03*
X47457Y111505D02*
D03*
X42893Y103693D02*
D03*
X36654Y107295D02*
D03*
X34489Y103545D02*
D03*
X40728Y99942D02*
D03*
X36092Y92054D02*
D03*
X29852Y95657D02*
D03*
X32018Y99407D02*
D03*
X38257Y95805D02*
D03*
D18*
X133193Y95709D02*
D03*
X139432Y99311D02*
D03*
X141598Y95561D02*
D03*
X135358Y91958D02*
D03*
X128693Y103809D02*
D03*
X134932Y107411D02*
D03*
X137098Y103661D02*
D03*
X130858Y100058D02*
D03*
X123893Y111709D02*
D03*
X130132Y115311D02*
D03*
X132298Y111561D02*
D03*
X126058Y107958D02*
D03*
X119128Y119842D02*
D03*
X125368Y123445D02*
D03*
X127533Y119694D02*
D03*
X121293Y116092D02*
D03*
X114493Y127909D02*
D03*
X120732Y131511D02*
D03*
X122898Y127761D02*
D03*
X116658Y124158D02*
D03*
X36863Y80793D02*
D03*
X30623Y77190D02*
D03*
X32789Y73440D02*
D03*
X39028Y77042D02*
D03*
X43728Y69042D02*
D03*
X37489Y65440D02*
D03*
X35323Y69190D02*
D03*
X41563Y72793D02*
D03*
X45863Y64893D02*
D03*
X39623Y61290D02*
D03*
X41789Y57540D02*
D03*
X48028Y61142D02*
D03*
X52628Y53242D02*
D03*
X46389Y49640D02*
D03*
X44223Y53390D02*
D03*
X50463Y56993D02*
D03*
X55198Y49126D02*
D03*
X48959Y45524D02*
D03*
X51124Y41773D02*
D03*
X57363Y45376D02*
D03*
D19*
X31400Y87700D02*
D03*
X27857D02*
D03*
X141628Y86100D02*
D03*
X145172D02*
D03*
D29*
X111680Y138955D02*
D03*
X119500Y38700D02*
D03*
X144500Y90000D02*
D03*
X111000Y35400D02*
D03*
X110900Y43000D02*
D03*
X26700Y92000D02*
D03*
X61800Y139500D02*
D03*
X28700Y81900D02*
D03*
D30*
X145000D02*
D03*
D31*
X138200Y86444D02*
D03*
D32*
X28700Y81900D02*
D03*
X56684Y138651D02*
D03*
X138200Y86444D02*
D03*
X144500Y90000D02*
D03*
X113000Y132400D02*
D03*
X59186Y41034D02*
D03*
X119500Y38700D02*
D03*
X110900Y43000D02*
D03*
X56757Y127105D02*
D03*
X52057Y119405D02*
D03*
X47536Y111493D02*
D03*
X42893Y103693D02*
D03*
X38257Y95805D02*
D03*
X37489Y65440D02*
D03*
X36863Y80793D02*
D03*
X41563Y72793D02*
D03*
X45863Y64893D02*
D03*
X50463Y56993D02*
D03*
X55198Y49126D02*
D03*
X66169Y41963D02*
D03*
X75194Y42064D02*
D03*
X84219D02*
D03*
X93244Y41963D02*
D03*
X102269D02*
D03*
X114099Y46679D02*
D03*
X118599Y54580D02*
D03*
X123299Y62679D02*
D03*
X127999Y70679D02*
D03*
X132799Y78579D02*
D03*
X135358Y91958D02*
D03*
X130858Y100058D02*
D03*
X126058Y107958D02*
D03*
X121293Y116092D02*
D03*
X116658Y124158D02*
D03*
X106431Y132695D02*
D03*
X97431Y132695D02*
D03*
X88431Y132695D02*
D03*
X79486Y132618D02*
D03*
X70431Y132695D02*
D03*
X62500Y135200D02*
D03*
X25712Y87500D02*
D03*
X31863Y85540D02*
D03*
X134932Y107411D02*
D03*
X139432Y99311D02*
D03*
X120732Y131511D02*
D03*
X125368Y123445D02*
D03*
X39052Y111357D02*
D03*
X43652Y119257D02*
D03*
X116086Y137934D02*
D03*
X57414Y37966D02*
D03*
X106600Y34759D02*
D03*
X97575D02*
D03*
X88550Y34859D02*
D03*
X79525D02*
D03*
X70500Y34759D02*
D03*
X51124Y41773D02*
D03*
X46389Y49640D02*
D03*
X41789Y57540D02*
D03*
X32789Y73440D02*
D03*
X29852Y95657D02*
D03*
X34489Y103545D02*
D03*
X48352Y126957D02*
D03*
X66100Y139900D02*
D03*
X75100D02*
D03*
X84100D02*
D03*
X93100Y139900D02*
D03*
X102100Y139900D02*
D03*
X130132Y115311D02*
D03*
X141204Y78728D02*
D03*
X136404Y70828D02*
D03*
X131704Y62828D02*
D03*
X127004Y54728D02*
D03*
X122504Y46828D02*
D03*
M02*
