G04*
G04 #@! TF.GenerationSoftware,Altium Limited,Altium Designer,24.6.1 (21)*
G04*
G04 Layer_Color=128*
%FSLAX25Y25*%
%MOIN*%
G70*
G04*
G04 #@! TF.SameCoordinates,B81F68AC-7AC7-42F5-9DEE-18334BCCA9CF*
G04*
G04*
G04 #@! TF.FilePolarity,Positive*
G04*
G01*
G75*
%ADD39C,0.00200*%
D39*
X28300Y81900D02*
X29100D01*
X28700Y81500D02*
Y82300D01*
X56284Y138651D02*
X57084D01*
X56684Y138251D02*
Y139051D01*
X137800Y86444D02*
X138600D01*
X138200Y86045D02*
Y86844D01*
X144100Y90000D02*
X144900D01*
X144500Y89600D02*
Y90400D01*
X112600Y132400D02*
X113400D01*
X113000Y132000D02*
Y132800D01*
X58786Y41034D02*
X59586D01*
X59186Y40634D02*
Y41434D01*
X119100Y38700D02*
X119900D01*
X119500Y38300D02*
Y39100D01*
X110500Y43000D02*
X111300D01*
X110900Y42600D02*
Y43400D01*
X56357Y127105D02*
X57157D01*
X56757Y126705D02*
Y127505D01*
X51657Y119405D02*
X52457D01*
X52057Y119005D02*
Y119805D01*
X47136Y111493D02*
X47936D01*
X47536Y111093D02*
Y111893D01*
X42494Y103693D02*
X43293D01*
X42893Y103293D02*
Y104093D01*
X37857Y95805D02*
X38657D01*
X38257Y95405D02*
Y96205D01*
X37089Y65440D02*
X37889D01*
X37489Y65040D02*
Y65840D01*
X36463Y80793D02*
X37263D01*
X36863Y80393D02*
Y81193D01*
X41163Y72793D02*
X41963D01*
X41563Y72393D02*
Y73193D01*
X45463Y64893D02*
X46263D01*
X45863Y64493D02*
Y65293D01*
X50063Y56993D02*
X50863D01*
X50463Y56593D02*
Y57393D01*
X54798Y49126D02*
X55598D01*
X55198Y48726D02*
Y49526D01*
X65769Y41963D02*
X66569D01*
X66169Y41563D02*
Y42364D01*
X74794Y42064D02*
X75594D01*
X75194Y41664D02*
Y42463D01*
X83819Y42064D02*
X84619D01*
X84219Y41664D02*
Y42463D01*
X92844Y41963D02*
X93644D01*
X93244Y41563D02*
Y42364D01*
X101869Y41963D02*
X102669D01*
X102269Y41563D02*
Y42364D01*
X113699Y46679D02*
X114499D01*
X114099Y46279D02*
Y47080D01*
X118199Y54580D02*
X118999D01*
X118599Y54180D02*
Y54979D01*
X122899Y62679D02*
X123699D01*
X123299Y62279D02*
Y63080D01*
X127599Y70679D02*
X128399D01*
X127999Y70280D02*
Y71079D01*
X132399Y78579D02*
X133199D01*
X132799Y78180D02*
Y78979D01*
X134958Y91958D02*
X135758D01*
X135358Y91558D02*
Y92358D01*
X130458Y100058D02*
X131258D01*
X130858Y99658D02*
Y100458D01*
X125658Y107958D02*
X126458D01*
X126058Y107558D02*
Y108358D01*
X120894Y116092D02*
X121694D01*
X121293Y115692D02*
Y116492D01*
X116258Y124158D02*
X117058D01*
X116658Y123758D02*
Y124558D01*
X106031Y132695D02*
X106831D01*
X106431Y132295D02*
Y133095D01*
X97031Y132695D02*
X97831D01*
X97431Y132295D02*
Y133095D01*
X88031Y132695D02*
X88831D01*
X88431Y132295D02*
Y133095D01*
X79086Y132618D02*
X79886D01*
X79486Y132218D02*
Y133018D01*
X70031Y132695D02*
X70831D01*
X70431Y132295D02*
Y133095D01*
X62100Y135200D02*
X62900D01*
X62500Y134800D02*
Y135600D01*
X25312Y87500D02*
X26112D01*
X25712Y87100D02*
Y87900D01*
X31463Y85540D02*
X32263D01*
X31863Y85140D02*
Y85940D01*
X134532Y107411D02*
X135332D01*
X134932Y107011D02*
Y107811D01*
X139032Y99311D02*
X139832D01*
X139432Y98911D02*
Y99711D01*
X120332Y131511D02*
X121132D01*
X120732Y131111D02*
Y131911D01*
X124968Y123445D02*
X125768D01*
X125368Y123045D02*
Y123845D01*
X38652Y111357D02*
X39452D01*
X39052Y110957D02*
Y111757D01*
X43252Y119257D02*
X44052D01*
X43652Y118857D02*
Y119657D01*
X115686Y137934D02*
X116486D01*
X116086Y137534D02*
Y138334D01*
X57014Y37966D02*
X57814D01*
X57414Y37566D02*
Y38366D01*
X106200Y34759D02*
X107000D01*
X106600Y34359D02*
Y35159D01*
X97175Y34759D02*
X97975D01*
X97575Y34359D02*
Y35159D01*
X88150Y34859D02*
X88950D01*
X88550Y34459D02*
Y35259D01*
X79125Y34859D02*
X79925D01*
X79525Y34459D02*
Y35259D01*
X70100Y34759D02*
X70900D01*
X70500Y34359D02*
Y35159D01*
X50724Y41773D02*
X51524D01*
X51124Y41373D02*
Y42173D01*
X45989Y49640D02*
X46789D01*
X46389Y49240D02*
Y50040D01*
X41389Y57540D02*
X42189D01*
X41789Y57140D02*
Y57940D01*
X32389Y73440D02*
X33189D01*
X32789Y73040D02*
Y73840D01*
X29452Y95657D02*
X30252D01*
X29852Y95257D02*
Y96057D01*
X34089Y103545D02*
X34889D01*
X34489Y103145D02*
Y103945D01*
X47952Y126957D02*
X48752D01*
X48352Y126557D02*
Y127357D01*
X65700Y139900D02*
X66500D01*
X66100Y139500D02*
Y140300D01*
X74700Y139900D02*
X75500D01*
X75100Y139500D02*
Y140300D01*
X83700Y139900D02*
X84500D01*
X84100Y139500D02*
Y140300D01*
X92700Y139900D02*
X93500D01*
X93100Y139500D02*
Y140300D01*
X101700Y139900D02*
X102500D01*
X102100Y139500D02*
Y140300D01*
X129732Y115311D02*
X130532D01*
X130132Y114911D02*
Y115711D01*
X140804Y78728D02*
X141604D01*
X141204Y78328D02*
Y79128D01*
X136004Y70828D02*
X136804D01*
X136404Y70428D02*
Y71228D01*
X131304Y62828D02*
X132104D01*
X131704Y62428D02*
Y63228D01*
X126604Y54728D02*
X127404D01*
X127004Y54328D02*
Y55128D01*
X122104Y46828D02*
X122904D01*
X122504Y46428D02*
Y47228D01*
M02*
