G04*
G04 #@! TF.GenerationSoftware,Altium Limited,Altium Designer,24.6.1 (21)*
G04*
G04 Layer_Color=2752767*
%FSLAX25Y25*%
%MOIN*%
G70*
G04*
G04 #@! TF.SameCoordinates,B81F68AC-7AC7-42F5-9DEE-18334BCCA9CF*
G04*
G04*
G04 #@! TF.FilePolarity,Positive*
G04*
G01*
G75*
%ADD11C,0.01000*%
%ADD34C,0.01500*%
%ADD39C,0.00200*%
%ADD40C,0.01600*%
D11*
X23768Y444999D02*
X30435D01*
Y451666D01*
X23768D02*
X30435D01*
X23768Y444999D02*
Y451666D01*
X642820Y448998D02*
X644819Y444999D01*
X646818Y448998D01*
X651817Y444999D02*
Y450997D01*
X648818Y447998D01*
X652816D01*
X654816Y449998D02*
X655816Y450997D01*
X657815D01*
X658814Y449998D01*
Y445999D01*
X657815Y444999D01*
X655816D01*
X654816Y445999D01*
Y449998D01*
X660814Y450997D02*
Y444999D01*
Y447998D01*
X661814Y448998D01*
X663813D01*
X664813Y447998D01*
Y444999D01*
X670811D02*
X666812D01*
X670811Y448998D01*
Y449998D01*
X669811Y450997D01*
X667812D01*
X666812Y449998D01*
X672810D02*
X673810Y450997D01*
X675809D01*
X676809Y449998D01*
Y445999D01*
X675809Y444999D01*
X673810D01*
X672810Y445999D01*
Y449998D01*
X678808Y444999D02*
Y448998D01*
X679808D01*
X680807Y447998D01*
Y444999D01*
Y447998D01*
X681807Y448998D01*
X682807Y447998D01*
Y444999D01*
X684806Y449998D02*
X685806Y450997D01*
X687805D01*
X688805Y449998D01*
Y445999D01*
X687805Y444999D01*
X685806D01*
X684806Y445999D01*
Y449998D01*
X690804Y444999D02*
Y448998D01*
X691804D01*
X692803Y447998D01*
Y444999D01*
Y447998D01*
X693803Y448998D01*
X694803Y447998D01*
Y444999D01*
X696802Y448998D02*
X700801Y444999D01*
X698802Y446999D01*
X700801Y448998D01*
X696802Y444999D01*
X702800Y449998D02*
X703800Y450997D01*
X705799D01*
X706799Y449998D01*
Y445999D01*
X705799Y444999D01*
X703800D01*
X702800Y445999D01*
Y449998D01*
X568240Y444999D02*
Y450997D01*
X571239D01*
X572239Y449998D01*
Y447998D01*
X571239Y446999D01*
X568240D01*
X570239D02*
X572239Y444999D01*
X575238D02*
X577237D01*
X578237Y445999D01*
Y447998D01*
X577237Y448998D01*
X575238D01*
X574238Y447998D01*
Y445999D01*
X575238Y444999D01*
X580236Y448998D02*
Y445999D01*
X581236Y444999D01*
X584235D01*
Y448998D01*
X586234Y444999D02*
Y448998D01*
X589233D01*
X590233Y447998D01*
Y444999D01*
X596231Y450997D02*
Y444999D01*
X593232D01*
X592232Y445999D01*
Y447998D01*
X593232Y448998D01*
X596231D01*
X601229Y444999D02*
X599230D01*
X598230Y445999D01*
Y447998D01*
X599230Y448998D01*
X601229D01*
X602229Y447998D01*
Y446999D01*
X598230D01*
X608227Y450997D02*
Y444999D01*
X605228D01*
X604228Y445999D01*
Y447998D01*
X605228Y448998D01*
X608227D01*
X509255Y450997D02*
Y446999D01*
X511254Y444999D01*
X513254Y446999D01*
Y450997D01*
X515253Y444999D02*
X517252D01*
X516253D01*
Y448998D01*
X515253D01*
X521251D02*
X523250D01*
X524250Y447998D01*
Y444999D01*
X521251D01*
X520252Y445999D01*
X521251Y446999D01*
X524250D01*
X359300Y450997D02*
X363299D01*
X361299D01*
Y444999D01*
X366298D02*
X368297D01*
X369297Y445999D01*
Y447998D01*
X368297Y448998D01*
X366298D01*
X365298Y447998D01*
Y445999D01*
X366298Y444999D01*
X371296Y443000D02*
Y448998D01*
X374295D01*
X375295Y447998D01*
Y445999D01*
X374295Y444999D01*
X371296D01*
X383292Y450997D02*
Y444999D01*
X387291D01*
X390290Y448998D02*
X392289D01*
X393289Y447998D01*
Y444999D01*
X390290D01*
X389290Y445999D01*
X390290Y446999D01*
X393289D01*
X395288Y448998D02*
Y445999D01*
X396288Y444999D01*
X399287D01*
Y443999D01*
X398287Y443000D01*
X397288D01*
X399287Y444999D02*
Y448998D01*
X404285Y444999D02*
X402286D01*
X401286Y445999D01*
Y447998D01*
X402286Y448998D01*
X404285D01*
X405285Y447998D01*
Y446999D01*
X401286D01*
X407284Y448998D02*
Y444999D01*
Y446999D01*
X408284Y447998D01*
X409284Y448998D01*
X410284D01*
X419281Y447998D02*
X423279D01*
X431277Y450997D02*
Y444999D01*
X434276D01*
X435275Y445999D01*
Y446999D01*
X434276Y447998D01*
X431277D01*
X434276D01*
X435275Y448998D01*
Y449998D01*
X434276Y450997D01*
X431277D01*
X438274Y444999D02*
X440274D01*
X441273Y445999D01*
Y447998D01*
X440274Y448998D01*
X438274D01*
X437275Y447998D01*
Y445999D01*
X438274Y444999D01*
X444273Y449998D02*
Y448998D01*
X443273D01*
X445272D01*
X444273D01*
Y445999D01*
X445272Y444999D01*
X449271Y449998D02*
Y448998D01*
X448271D01*
X450271D01*
X449271D01*
Y445999D01*
X450271Y444999D01*
X454269D02*
X456269D01*
X457268Y445999D01*
Y447998D01*
X456269Y448998D01*
X454269D01*
X453270Y447998D01*
Y445999D01*
X454269Y444999D01*
X459268D02*
Y448998D01*
X460267D01*
X461267Y447998D01*
Y444999D01*
Y447998D01*
X462267Y448998D01*
X463266Y447998D01*
Y444999D01*
X471264Y450997D02*
Y444999D01*
X475262D01*
X478262Y448998D02*
X480261D01*
X481260Y447998D01*
Y444999D01*
X478262D01*
X477262Y445999D01*
X478262Y446999D01*
X481260D01*
X483260Y448998D02*
Y445999D01*
X484260Y444999D01*
X487259D01*
Y443999D01*
X486259Y443000D01*
X485259D01*
X487259Y444999D02*
Y448998D01*
X492257Y444999D02*
X490258D01*
X489258Y445999D01*
Y447998D01*
X490258Y448998D01*
X492257D01*
X493257Y447998D01*
Y446999D01*
X489258D01*
X495256Y448998D02*
Y444999D01*
Y446999D01*
X496256Y447998D01*
X497255Y448998D01*
X498255D01*
X285920Y444999D02*
Y450997D01*
X288919D01*
X289918Y449998D01*
Y447998D01*
X288919Y446999D01*
X285920D01*
X287919D02*
X289918Y444999D01*
X292917D02*
X294917D01*
X295917Y445999D01*
Y447998D01*
X294917Y448998D01*
X292917D01*
X291918Y447998D01*
Y445999D01*
X292917Y444999D01*
X297916Y448998D02*
Y445999D01*
X298916Y444999D01*
X301915D01*
Y448998D01*
X303914Y444999D02*
Y448998D01*
X306913D01*
X307913Y447998D01*
Y444999D01*
X313911Y450997D02*
Y444999D01*
X310912D01*
X309912Y445999D01*
Y447998D01*
X310912Y448998D01*
X313911D01*
X235332Y444999D02*
Y450997D01*
X238331D01*
X239331Y449998D01*
Y447998D01*
X238331Y446999D01*
X235332D01*
X241330Y450997D02*
X245329D01*
X243330D01*
Y444999D01*
X247328Y450997D02*
Y444999D01*
Y447998D01*
X251327D01*
Y450997D01*
Y444999D01*
X131362Y449998D02*
X132362Y450997D01*
X134361D01*
X135361Y449998D01*
Y448998D01*
X134361Y447998D01*
X135361Y446999D01*
Y445999D01*
X134361Y444999D01*
X132362D01*
X131362Y445999D01*
Y446999D01*
X132362Y447998D01*
X131362Y448998D01*
Y449998D01*
X132362Y447998D02*
X134361D01*
X137360Y444999D02*
Y445999D01*
X138360D01*
Y444999D01*
X137360D01*
X142359Y449998D02*
X143358Y450997D01*
X145358D01*
X146358Y449998D01*
Y445999D01*
X145358Y444999D01*
X143358D01*
X142359Y445999D01*
Y449998D01*
X148357D02*
X149356Y450997D01*
X151356D01*
X152356Y449998D01*
Y445999D01*
X151356Y444999D01*
X149356D01*
X148357Y445999D01*
Y449998D01*
X154355Y444999D02*
Y448998D01*
X155354D01*
X156354Y447998D01*
Y444999D01*
Y447998D01*
X157354Y448998D01*
X158354Y447998D01*
Y444999D01*
X160353D02*
X162352D01*
X161353D01*
Y448998D01*
X160353D01*
X165351Y444999D02*
X167351D01*
X166351D01*
Y450997D01*
X165351D01*
X178347Y444999D02*
X176348Y446999D01*
Y448998D01*
X178347Y450997D01*
X181346Y449998D02*
X182346Y450997D01*
X184345D01*
X185345Y449998D01*
Y445999D01*
X184345Y444999D01*
X182346D01*
X181346Y445999D01*
Y449998D01*
X187344Y444999D02*
Y445999D01*
X188344D01*
Y444999D01*
X187344D01*
X196341D02*
X192343D01*
X196341Y448998D01*
Y449998D01*
X195342Y450997D01*
X193342D01*
X192343Y449998D01*
X198341D02*
X199340Y450997D01*
X201340D01*
X202339Y449998D01*
Y445999D01*
X201340Y444999D01*
X199340D01*
X198341Y445999D01*
Y449998D01*
X204339D02*
X205338Y450997D01*
X207338D01*
X208337Y449998D01*
Y448998D01*
X207338Y447998D01*
X206338D01*
X207338D01*
X208337Y446999D01*
Y445999D01*
X207338Y444999D01*
X205338D01*
X204339Y445999D01*
X210337Y444999D02*
Y448998D01*
X211336D01*
X212336Y447998D01*
Y444999D01*
Y447998D01*
X213336Y448998D01*
X214335Y447998D01*
Y444999D01*
X216335D02*
Y448998D01*
X217335D01*
X218334Y447998D01*
Y444999D01*
Y447998D01*
X219334Y448998D01*
X220334Y447998D01*
Y444999D01*
X222333D02*
X224332Y446999D01*
Y448998D01*
X222333Y450997D01*
X77376Y435997D02*
X81375D01*
Y434998D01*
X77376Y430999D01*
Y429999D01*
X83374Y434998D02*
X84374Y435997D01*
X86373D01*
X87373Y434998D01*
Y433998D01*
X86373Y432998D01*
X85374D01*
X86373D01*
X87373Y431999D01*
Y430999D01*
X86373Y429999D01*
X84374D01*
X83374Y430999D01*
X95370Y435997D02*
X99369D01*
X97370D01*
Y429999D01*
X102368D02*
X104367D01*
X105367Y430999D01*
Y432998D01*
X104367Y433998D01*
X102368D01*
X101368Y432998D01*
Y430999D01*
X102368Y429999D01*
X108366Y434998D02*
Y433998D01*
X107367D01*
X109366D01*
X108366D01*
Y430999D01*
X109366Y429999D01*
X113365Y433998D02*
X115364D01*
X116364Y432998D01*
Y429999D01*
X113365D01*
X112365Y430999D01*
X113365Y431999D01*
X116364D01*
X118363Y429999D02*
X120362D01*
X119363D01*
Y435997D01*
X118363D01*
X77376Y450997D02*
X81375D01*
Y449998D01*
X77376Y445999D01*
Y444999D01*
X83374Y449998D02*
X84374Y450997D01*
X86373D01*
X87373Y449998D01*
Y448998D01*
X86373Y447998D01*
X85374D01*
X86373D01*
X87373Y446999D01*
Y445999D01*
X86373Y444999D01*
X84374D01*
X83374Y445999D01*
D34*
X17789Y455499D02*
X1069897D01*
X17789Y440499D02*
X1069897D01*
X17789Y425499D02*
X1069897D01*
Y470499D01*
X17789D02*
X1069897D01*
X17789Y425499D02*
Y470499D01*
X932036Y425499D02*
Y470499D01*
X798675Y425499D02*
Y470499D01*
X713299Y425499D02*
Y470499D01*
X638320Y425499D02*
Y470499D01*
X563740Y425499D02*
Y470499D01*
X504755Y425499D02*
Y470499D01*
X354800Y425499D02*
Y470499D01*
X281420Y425499D02*
Y470499D01*
X230832Y425499D02*
Y470499D01*
X126862Y425499D02*
Y470499D01*
X72876Y425499D02*
Y470499D01*
D39*
X121504Y45828D02*
X123504D01*
Y47828D01*
X121504D02*
X123504D01*
X121504Y45828D02*
Y47828D01*
X126004Y53728D02*
X128004D01*
Y55728D01*
X126004D02*
X128004D01*
X126004Y53728D02*
Y55728D01*
X130704Y61828D02*
X132704D01*
Y63828D01*
X130704D02*
X132704D01*
X130704Y61828D02*
Y63828D01*
X135404Y69828D02*
X137404D01*
Y71828D01*
X135404D02*
X137404D01*
X135404Y69828D02*
Y71828D01*
X140204Y77728D02*
X142204D01*
Y79728D01*
X140204D02*
X142204D01*
X140204Y77728D02*
Y79728D01*
X129132Y114311D02*
X131132D01*
Y116311D01*
X129132D02*
X131132D01*
X129132Y114311D02*
Y116311D01*
X101100Y138900D02*
X103100D01*
Y140900D01*
X101100D02*
X103100D01*
X101100Y138900D02*
Y140900D01*
X92100Y138900D02*
X94100D01*
Y140900D01*
X92100D02*
X94100D01*
X92100Y138900D02*
Y140900D01*
X83100Y138900D02*
X85100D01*
Y140900D01*
X83100D02*
X85100D01*
X83100Y138900D02*
Y140900D01*
X74100Y138900D02*
X76100D01*
Y140900D01*
X74100D02*
X76100D01*
X74100Y138900D02*
Y140900D01*
X65100Y138900D02*
X67100D01*
Y140900D01*
X65100D02*
X67100D01*
X65100Y138900D02*
Y140900D01*
X47352Y125957D02*
X49352D01*
Y127957D01*
X47352D02*
X49352D01*
X47352Y125957D02*
Y127957D01*
X33489Y102545D02*
X35489D01*
Y104545D01*
X33489D02*
X35489D01*
X33489Y102545D02*
Y104545D01*
X28852Y94657D02*
X30852D01*
Y96657D01*
X28852D02*
X30852D01*
X28852Y94657D02*
Y96657D01*
X31789Y72440D02*
X33789D01*
Y74440D01*
X31789D02*
X33789D01*
X31789Y72440D02*
Y74440D01*
X40789Y56540D02*
X42789D01*
Y58540D01*
X40789D02*
X42789D01*
X40789Y56540D02*
Y58540D01*
X45389Y48640D02*
X47389D01*
Y50640D01*
X45389D02*
X47389D01*
X45389Y48640D02*
Y50640D01*
X50124Y40773D02*
X52124D01*
Y42773D01*
X50124D02*
X52124D01*
X50124Y40773D02*
Y42773D01*
X69500Y33759D02*
X71500D01*
Y35759D01*
X69500D02*
X71500D01*
X69500Y33759D02*
Y35759D01*
X78525Y33859D02*
X80525D01*
Y35859D01*
X78525D02*
X80525D01*
X78525Y33859D02*
Y35859D01*
X87550Y33859D02*
X89550D01*
Y35859D01*
X87550D02*
X89550D01*
X87550Y33859D02*
Y35859D01*
X96575Y33759D02*
X98575D01*
Y35759D01*
X96575D02*
X98575D01*
X96575Y33759D02*
Y35759D01*
X105600Y33759D02*
X107600D01*
Y35759D01*
X105600D02*
X107600D01*
X105600Y33759D02*
Y35759D01*
X56414Y36966D02*
X58414D01*
Y38966D01*
X56414D02*
X58414D01*
X56414Y36966D02*
Y38966D01*
X115086Y136934D02*
X117086D01*
Y138934D01*
X115086D02*
X117086D01*
X115086Y136934D02*
Y138934D01*
X42652Y118257D02*
X44652D01*
Y120257D01*
X42652D02*
X44652D01*
X42652Y118257D02*
Y120257D01*
X38052Y110357D02*
X40052D01*
Y112357D01*
X38052D02*
X40052D01*
X38052Y110357D02*
Y112357D01*
X124368Y122445D02*
X126368D01*
Y124445D01*
X124368D02*
X126368D01*
X124368Y122445D02*
Y124445D01*
X119732Y130511D02*
X121732D01*
Y132511D01*
X119732D02*
X121732D01*
X119732Y130511D02*
Y132511D01*
X138432Y98311D02*
X140432D01*
Y100311D01*
X138432D02*
X140432D01*
X138432Y98311D02*
Y100311D01*
X133932Y106411D02*
X135932D01*
Y108411D01*
X133932D02*
X135932D01*
X133932Y106411D02*
Y108411D01*
X30863Y84540D02*
X32863D01*
Y86540D01*
X30863D02*
X32863D01*
X30863Y84540D02*
Y86540D01*
X24712Y86500D02*
X26712D01*
Y88500D01*
X24712D02*
X26712D01*
X24712Y86500D02*
Y88500D01*
X61500Y134200D02*
X63500D01*
Y136200D01*
X61500D02*
X63500D01*
X61500Y134200D02*
Y136200D01*
X69431Y131695D02*
X71431D01*
Y133695D01*
X69431D02*
X71431D01*
X69431Y131695D02*
Y133695D01*
X78486Y131618D02*
X80486D01*
Y133618D01*
X78486D02*
X80486D01*
X78486Y131618D02*
Y133618D01*
X87431Y131695D02*
X89431D01*
Y133695D01*
X87431D02*
X89431D01*
X87431Y131695D02*
Y133695D01*
X96431Y131695D02*
X98431D01*
Y133695D01*
X96431D02*
X98431D01*
X96431Y131695D02*
Y133695D01*
X105431Y131695D02*
X107431D01*
Y133695D01*
X105431D02*
X107431D01*
X105431Y131695D02*
Y133695D01*
X115658Y123158D02*
X117658D01*
Y125158D01*
X115658D02*
X117658D01*
X115658Y123158D02*
Y125158D01*
X120293Y115092D02*
X122293D01*
Y117092D01*
X120293D02*
X122293D01*
X120293Y115092D02*
Y117092D01*
X125058Y106958D02*
X127058D01*
Y108958D01*
X125058D02*
X127058D01*
X125058Y106958D02*
Y108958D01*
X129858Y99058D02*
X131858D01*
Y101058D01*
X129858D02*
X131858D01*
X129858Y99058D02*
Y101058D01*
X134358Y90958D02*
X136358D01*
Y92958D01*
X134358D02*
X136358D01*
X134358Y90958D02*
Y92958D01*
X131799Y77579D02*
X133799D01*
Y79580D01*
X131799D02*
X133799D01*
X131799Y77579D02*
Y79580D01*
X126999Y69679D02*
X128999D01*
Y71680D01*
X126999D02*
X128999D01*
X126999Y69679D02*
Y71680D01*
X122299Y61680D02*
X124299D01*
Y63679D01*
X122299D02*
X124299D01*
X122299Y61680D02*
Y63679D01*
X117599Y53579D02*
X119599D01*
Y55580D01*
X117599D02*
X119599D01*
X117599Y53579D02*
Y55580D01*
X113099Y45680D02*
X115099D01*
Y47679D01*
X113099D02*
X115099D01*
X113099Y45680D02*
Y47679D01*
X101269Y40964D02*
X103269D01*
Y42963D01*
X101269D02*
X103269D01*
X101269Y40964D02*
Y42963D01*
X92244Y40964D02*
X94244D01*
Y42963D01*
X92244D02*
X94244D01*
X92244Y40964D02*
Y42963D01*
X83219Y41063D02*
X85219D01*
Y43064D01*
X83219D02*
X85219D01*
X83219Y41063D02*
Y43064D01*
X74194Y41063D02*
X76194D01*
Y43064D01*
X74194D02*
X76194D01*
X74194Y41063D02*
Y43064D01*
X65169Y40964D02*
X67169D01*
Y42963D01*
X65169D02*
X67169D01*
X65169Y40964D02*
Y42963D01*
X54198Y48126D02*
X56198D01*
Y50126D01*
X54198D02*
X56198D01*
X54198Y48126D02*
Y50126D01*
X49463Y55993D02*
X51463D01*
Y57993D01*
X49463D02*
X51463D01*
X49463Y55993D02*
Y57993D01*
X44863Y63893D02*
X46863D01*
Y65893D01*
X44863D02*
X46863D01*
X44863Y63893D02*
Y65893D01*
X40563Y71793D02*
X42563D01*
Y73793D01*
X40563D02*
X42563D01*
X40563Y71793D02*
Y73793D01*
X35863Y79793D02*
X37863D01*
Y81793D01*
X35863D02*
X37863D01*
X35863Y79793D02*
Y81793D01*
X36489Y64440D02*
X38489D01*
Y66440D01*
X36489D02*
X38489D01*
X36489Y64440D02*
Y66440D01*
X37257Y94805D02*
X39257D01*
Y96805D01*
X37257D02*
X39257D01*
X37257Y94805D02*
Y96805D01*
X41894Y102693D02*
X43894D01*
Y104693D01*
X41894D02*
X43894D01*
X41894Y102693D02*
Y104693D01*
X46536Y110493D02*
X48536D01*
Y112493D01*
X46536D02*
X48536D01*
X46536Y110493D02*
Y112493D01*
X51057Y118405D02*
X53057D01*
Y120405D01*
X51057D02*
X53057D01*
X51057Y118405D02*
Y120405D01*
X55757Y126105D02*
X57757D01*
Y128105D01*
X55757D02*
X57757D01*
X55757Y126105D02*
Y128105D01*
X109900Y42000D02*
X111900D01*
Y44000D01*
X109900D02*
X111900D01*
X109900Y42000D02*
Y44000D01*
X118500Y37700D02*
X120500D01*
Y39700D01*
X118500D02*
X120500D01*
X118500Y37700D02*
Y39700D01*
X58186Y40034D02*
X60186D01*
Y42034D01*
X58186D02*
X60186D01*
X58186Y40034D02*
Y42034D01*
X112000Y131400D02*
X114000D01*
Y133400D01*
X112000D02*
X114000D01*
X112000Y131400D02*
Y133400D01*
X143500Y89000D02*
X145500D01*
Y91000D01*
X143500D02*
X145500D01*
X143500Y89000D02*
Y91000D01*
X137200Y85444D02*
X139200D01*
Y87445D01*
X137200D02*
X139200D01*
X137200Y85444D02*
Y87445D01*
X55684Y137651D02*
X57684D01*
Y139651D01*
X55684D02*
X57684D01*
X55684Y137651D02*
Y139651D01*
X27700Y80900D02*
X29700D01*
Y82900D01*
X27700D02*
X29700D01*
X27700Y80900D02*
Y82900D01*
D40*
X936536Y467197D02*
Y459999D01*
Y463598D01*
X941335D01*
Y467197D01*
Y459999D01*
X944933D02*
X947333D01*
X948532Y461199D01*
Y463598D01*
X947333Y464798D01*
X944933D01*
X943734Y463598D01*
Y461199D01*
X944933Y459999D01*
X950931D02*
X953331D01*
X952131D01*
Y467197D01*
X950931D01*
X960528Y459999D02*
X958129D01*
X956929Y461199D01*
Y463598D01*
X958129Y464798D01*
X960528D01*
X961728Y463598D01*
Y462398D01*
X956929D01*
X971325Y467197D02*
X976123D01*
X973724D01*
Y459999D01*
X979722D02*
X982121D01*
X983321Y461199D01*
Y463598D01*
X982121Y464798D01*
X979722D01*
X978522Y463598D01*
Y461199D01*
X979722Y459999D01*
X985720D02*
X988119D01*
X986920D01*
Y467197D01*
X985720D01*
X995317Y459999D02*
X992918D01*
X991718Y461199D01*
Y463598D01*
X992918Y464798D01*
X995317D01*
X996517Y463598D01*
Y462398D01*
X991718D01*
X998916Y464798D02*
Y459999D01*
Y462398D01*
X1000116Y463598D01*
X1001315Y464798D01*
X1002515D01*
X1007313D02*
X1009712D01*
X1010912Y463598D01*
Y459999D01*
X1007313D01*
X1006114Y461199D01*
X1007313Y462398D01*
X1010912D01*
X1013311Y459999D02*
Y464798D01*
X1016910D01*
X1018110Y463598D01*
Y459999D01*
X1025307Y464798D02*
X1021709D01*
X1020509Y463598D01*
Y461199D01*
X1021709Y459999D01*
X1025307D01*
X1031306D02*
X1028906D01*
X1027707Y461199D01*
Y463598D01*
X1028906Y464798D01*
X1031306D01*
X1032505Y463598D01*
Y462398D01*
X1027707D01*
X1044501Y459999D02*
X1042102Y462398D01*
Y464798D01*
X1044501Y467197D01*
X1048100Y463598D02*
X1052899D01*
X1055298Y459999D02*
X1057697Y462398D01*
Y464798D01*
X1055298Y467197D01*
X803175D02*
Y459999D01*
Y463598D01*
X807974D01*
Y467197D01*
Y459999D01*
X811573D02*
X813972D01*
X815172Y461199D01*
Y463598D01*
X813972Y464798D01*
X811573D01*
X810373Y463598D01*
Y461199D01*
X811573Y459999D01*
X817571D02*
X819970D01*
X818770D01*
Y467197D01*
X817571D01*
X827168Y459999D02*
X824768D01*
X823569Y461199D01*
Y463598D01*
X824768Y464798D01*
X827168D01*
X828367Y463598D01*
Y462398D01*
X823569D01*
X837964Y467197D02*
X842762D01*
X840363D01*
Y459999D01*
X846361D02*
X848761D01*
X849960Y461199D01*
Y463598D01*
X848761Y464798D01*
X846361D01*
X845162Y463598D01*
Y461199D01*
X846361Y459999D01*
X852359D02*
X854759D01*
X853559D01*
Y467197D01*
X852359D01*
X861956Y459999D02*
X859557D01*
X858358Y461199D01*
Y463598D01*
X859557Y464798D01*
X861956D01*
X863156Y463598D01*
Y462398D01*
X858358D01*
X865555Y464798D02*
Y459999D01*
Y462398D01*
X866755Y463598D01*
X867954Y464798D01*
X869154D01*
X873952D02*
X876352D01*
X877551Y463598D01*
Y459999D01*
X873952D01*
X872753Y461199D01*
X873952Y462398D01*
X877551D01*
X879951Y459999D02*
Y464798D01*
X883549D01*
X884749Y463598D01*
Y459999D01*
X891947Y464798D02*
X888348D01*
X887148Y463598D01*
Y461199D01*
X888348Y459999D01*
X891947D01*
X897945D02*
X895545D01*
X894346Y461199D01*
Y463598D01*
X895545Y464798D01*
X897945D01*
X899144Y463598D01*
Y462398D01*
X894346D01*
X911140Y459999D02*
X908741Y462398D01*
Y464798D01*
X911140Y467197D01*
X914739Y463598D02*
X919538D01*
X917138Y465997D02*
Y461199D01*
X921937Y459999D02*
X924336Y462398D01*
Y464798D01*
X921937Y467197D01*
X717799D02*
Y459999D01*
X721398D01*
X722598Y461199D01*
Y465997D01*
X721398Y467197D01*
X717799D01*
X728595Y459999D02*
X726196D01*
X724997Y461199D01*
Y463598D01*
X726196Y464798D01*
X728595D01*
X729795Y463598D01*
Y462398D01*
X724997D01*
X732194Y459999D02*
X735793D01*
X736993Y461199D01*
X735793Y462398D01*
X733394D01*
X732194Y463598D01*
X733394Y464798D01*
X736993D01*
X744191D02*
X740592D01*
X739392Y463598D01*
Y461199D01*
X740592Y459999D01*
X744191D01*
X746590Y464798D02*
Y459999D01*
Y462398D01*
X747789Y463598D01*
X748989Y464798D01*
X750189D01*
X753787Y459999D02*
X756187D01*
X754987D01*
Y464798D01*
X753787D01*
X759785Y457600D02*
Y464798D01*
X763384D01*
X764584Y463598D01*
Y461199D01*
X763384Y459999D01*
X759785D01*
X768183Y465997D02*
Y464798D01*
X766983D01*
X769382D01*
X768183D01*
Y461199D01*
X769382Y459999D01*
X772981D02*
X775380D01*
X774181D01*
Y464798D01*
X772981D01*
X780179Y459999D02*
X782578D01*
X783778Y461199D01*
Y463598D01*
X782578Y464798D01*
X780179D01*
X778979Y463598D01*
Y461199D01*
X780179Y459999D01*
X786177D02*
Y464798D01*
X789776D01*
X790975Y463598D01*
Y459999D01*
X642820Y467197D02*
X647618D01*
X645219D01*
Y459999D01*
X653616D02*
X651217D01*
X650017Y461199D01*
Y463598D01*
X651217Y464798D01*
X653616D01*
X654816Y463598D01*
Y462398D01*
X650017D01*
X657215Y459999D02*
Y464798D01*
X658415D01*
X659614Y463598D01*
Y459999D01*
Y463598D01*
X660814Y464798D01*
X662013Y463598D01*
Y459999D01*
X664413Y457600D02*
Y464798D01*
X668012D01*
X669211Y463598D01*
Y461199D01*
X668012Y459999D01*
X664413D01*
X671610D02*
X674010D01*
X672810D01*
Y467197D01*
X671610D01*
X678808Y464798D02*
X681207D01*
X682407Y463598D01*
Y459999D01*
X678808D01*
X677608Y461199D01*
X678808Y462398D01*
X682407D01*
X686006Y465997D02*
Y464798D01*
X684806D01*
X687205D01*
X686006D01*
Y461199D01*
X687205Y459999D01*
X694403D02*
X692004D01*
X690804Y461199D01*
Y463598D01*
X692004Y464798D01*
X694403D01*
X695603Y463598D01*
Y462398D01*
X690804D01*
X568240Y459999D02*
Y467197D01*
X571839D01*
X573038Y465997D01*
Y463598D01*
X571839Y462398D01*
X568240D01*
X576637Y464798D02*
X579036D01*
X580236Y463598D01*
Y459999D01*
X576637D01*
X575438Y461199D01*
X576637Y462398D01*
X580236D01*
X587434Y467197D02*
Y459999D01*
X583835D01*
X582635Y461199D01*
Y463598D01*
X583835Y464798D01*
X587434D01*
X601829Y465997D02*
X600629Y467197D01*
X598230D01*
X597031Y465997D01*
Y464798D01*
X598230Y463598D01*
X600629D01*
X601829Y462398D01*
Y461199D01*
X600629Y459999D01*
X598230D01*
X597031Y461199D01*
X604228Y467197D02*
Y459999D01*
Y463598D01*
X605428Y464798D01*
X607827D01*
X609027Y463598D01*
Y459999D01*
X612626Y464798D02*
X615025D01*
X616224Y463598D01*
Y459999D01*
X612626D01*
X611426Y461199D01*
X612626Y462398D01*
X616224D01*
X618624Y457600D02*
Y464798D01*
X622222D01*
X623422Y463598D01*
Y461199D01*
X622222Y459999D01*
X618624D01*
X629420D02*
X627021D01*
X625821Y461199D01*
Y463598D01*
X627021Y464798D01*
X629420D01*
X630620Y463598D01*
Y462398D01*
X625821D01*
X509255Y467197D02*
Y462398D01*
X511654Y459999D01*
X514053Y462398D01*
Y467197D01*
X516453Y459999D02*
X518852D01*
X517652D01*
Y464798D01*
X516453D01*
X523650D02*
X526050D01*
X527249Y463598D01*
Y459999D01*
X523650D01*
X522451Y461199D01*
X523650Y462398D01*
X527249D01*
X529648Y459999D02*
X534447Y464798D01*
X536846Y459999D02*
Y467197D01*
X540445D01*
X541645Y465997D01*
Y463598D01*
X540445Y462398D01*
X536846D01*
X545243Y464798D02*
X547643D01*
X548842Y463598D01*
Y459999D01*
X545243D01*
X544044Y461199D01*
X545243Y462398D01*
X548842D01*
X556040Y467197D02*
Y459999D01*
X552441D01*
X551241Y461199D01*
Y463598D01*
X552441Y464798D01*
X556040D01*
X359300Y467197D02*
Y459999D01*
X362899D01*
X364099Y461199D01*
Y465997D01*
X362899Y467197D01*
X359300D01*
X366498Y464798D02*
Y459999D01*
Y462398D01*
X367697Y463598D01*
X368897Y464798D01*
X370096D01*
X373695Y459999D02*
X376095D01*
X374895D01*
Y464798D01*
X373695D01*
X379693Y459999D02*
X382093D01*
X380893D01*
Y467197D01*
X379693D01*
X385691Y459999D02*
X388091D01*
X386891D01*
Y467197D01*
X385691D01*
X398887D02*
Y459999D01*
X403686D01*
X407284Y464798D02*
X409684D01*
X410883Y463598D01*
Y459999D01*
X407284D01*
X406085Y461199D01*
X407284Y462398D01*
X410883D01*
X413282Y464798D02*
Y461199D01*
X414482Y459999D01*
X418081D01*
Y458800D01*
X416881Y457600D01*
X415682D01*
X418081Y459999D02*
Y464798D01*
X424079Y459999D02*
X421680D01*
X420480Y461199D01*
Y463598D01*
X421680Y464798D01*
X424079D01*
X425279Y463598D01*
Y462398D01*
X420480D01*
X427678Y464798D02*
Y459999D01*
Y462398D01*
X428877Y463598D01*
X430077Y464798D01*
X431277D01*
X442073Y459999D02*
Y467197D01*
X445672D01*
X446872Y465997D01*
Y463598D01*
X445672Y462398D01*
X442073D01*
X450470Y464798D02*
X452870D01*
X454069Y463598D01*
Y459999D01*
X450470D01*
X449271Y461199D01*
X450470Y462398D01*
X454069D01*
X456468Y459999D02*
X458868D01*
X457668D01*
Y464798D01*
X456468D01*
X462467D02*
Y459999D01*
Y462398D01*
X463666Y463598D01*
X464866Y464798D01*
X466065D01*
X285920Y467197D02*
Y459999D01*
Y463598D01*
X290718D01*
Y467197D01*
Y459999D01*
X294317D02*
X296716D01*
X297916Y461199D01*
Y463598D01*
X296716Y464798D01*
X294317D01*
X293117Y463598D01*
Y461199D01*
X294317Y459999D01*
X300315D02*
X302714D01*
X301515D01*
Y467197D01*
X300315D01*
X309912Y459999D02*
X307513D01*
X306313Y461199D01*
Y463598D01*
X307513Y464798D01*
X309912D01*
X311112Y463598D01*
Y462398D01*
X306313D01*
X320708Y467197D02*
X325507D01*
X323108D01*
Y459999D01*
X327906Y464798D02*
Y461199D01*
X329106Y459999D01*
X332705D01*
Y458800D01*
X331505Y457600D01*
X330305D01*
X332705Y459999D02*
Y464798D01*
X335104Y457600D02*
Y464798D01*
X338703D01*
X339902Y463598D01*
Y461199D01*
X338703Y459999D01*
X335104D01*
X345900D02*
X343501D01*
X342302Y461199D01*
Y463598D01*
X343501Y464798D01*
X345900D01*
X347100Y463598D01*
Y462398D01*
X342302D01*
X235332Y459999D02*
Y467197D01*
X238931D01*
X240131Y465997D01*
Y463598D01*
X238931Y462398D01*
X235332D01*
X242530Y459999D02*
X244929D01*
X243729D01*
Y467197D01*
X242530D01*
X249728Y464798D02*
X252127D01*
X253326Y463598D01*
Y459999D01*
X249728D01*
X248528Y461199D01*
X249728Y462398D01*
X253326D01*
X256925Y465997D02*
Y464798D01*
X255726D01*
X258125D01*
X256925D01*
Y461199D01*
X258125Y459999D01*
X265322D02*
X262923D01*
X261724Y461199D01*
Y463598D01*
X262923Y464798D01*
X265322D01*
X266522Y463598D01*
Y462398D01*
X261724D01*
X273720Y467197D02*
Y459999D01*
X270121D01*
X268921Y461199D01*
Y463598D01*
X270121Y464798D01*
X273720D01*
X131362Y467197D02*
Y459999D01*
Y463598D01*
X136161D01*
Y467197D01*
Y459999D01*
X139760D02*
X142159D01*
X143358Y461199D01*
Y463598D01*
X142159Y464798D01*
X139760D01*
X138560Y463598D01*
Y461199D01*
X139760Y459999D01*
X145758D02*
X148157D01*
X146957D01*
Y467197D01*
X145758D01*
X155354Y459999D02*
X152955D01*
X151756Y461199D01*
Y463598D01*
X152955Y464798D01*
X155354D01*
X156554Y463598D01*
Y462398D01*
X151756D01*
X170949Y465997D02*
X169750Y467197D01*
X167351D01*
X166151Y465997D01*
Y464798D01*
X167351Y463598D01*
X169750D01*
X170949Y462398D01*
Y461199D01*
X169750Y459999D01*
X167351D01*
X166151Y461199D01*
X173349Y459999D02*
X175748D01*
X174548D01*
Y464798D01*
X173349D01*
X179347D02*
X184145D01*
X179347Y459999D01*
X184145D01*
X190143D02*
X187744D01*
X186545Y461199D01*
Y463598D01*
X187744Y464798D01*
X190143D01*
X191343Y463598D01*
Y462398D01*
X186545D01*
X82175Y465997D02*
X80975Y467197D01*
X78576D01*
X77376Y465997D01*
Y461199D01*
X78576Y459999D01*
X80975D01*
X82175Y461199D01*
X85773Y459999D02*
X88173D01*
X89372Y461199D01*
Y463598D01*
X88173Y464798D01*
X85773D01*
X84574Y463598D01*
Y461199D01*
X85773Y459999D01*
X91772Y464798D02*
Y461199D01*
X92971Y459999D01*
X96570D01*
Y464798D01*
X98969Y459999D02*
Y464798D01*
X102568D01*
X103768Y463598D01*
Y459999D01*
X107367Y465997D02*
Y464798D01*
X106167D01*
X108566D01*
X107367D01*
Y461199D01*
X108566Y459999D01*
X31587Y465997D02*
X30387Y467197D01*
X27988D01*
X26789Y465997D01*
Y464798D01*
X27988Y463598D01*
X30387D01*
X31587Y462398D01*
Y461199D01*
X30387Y459999D01*
X27988D01*
X26789Y461199D01*
X33986Y464798D02*
Y461199D01*
X35186Y459999D01*
X38785D01*
Y458800D01*
X37585Y457600D01*
X36386D01*
X38785Y459999D02*
Y464798D01*
X41184Y459999D02*
Y464798D01*
X42384D01*
X43583Y463598D01*
Y459999D01*
Y463598D01*
X44783Y464798D01*
X45982Y463598D01*
Y459999D01*
X48382Y467197D02*
Y459999D01*
X51981D01*
X53180Y461199D01*
Y462398D01*
Y463598D01*
X51981Y464798D01*
X48382D01*
X56779Y459999D02*
X59178D01*
X60378Y461199D01*
Y463598D01*
X59178Y464798D01*
X56779D01*
X55579Y463598D01*
Y461199D01*
X56779Y459999D01*
X62777D02*
X65176D01*
X63977D01*
Y467197D01*
X62777D01*
M02*
